{"glyphs":{"0":{"ha":840,"x_min":0,"x_max":0,"o":"m 421 -19 b 760 485 633 -19 760 168 b 421 993 760 801 629 993 b 81 485 210 993 81 800 b 421 -19 81 169 207 -19 z m 172 485 b 421 917 172 765 258 917 b 668 485 581 917 668 765 b 421 56 668 204 581 56 b 172 485 263 56 172 204 z "},"1":{"ha":513,"x_min":0,"x_max":0,"o":"m 288 694 l 288 0 l 376 0 l 376 972 l 300 972 b 39 736 264 853 167 758 l 39 647 b 288 824 160 663 243 738 z "},"2":{"ha":781,"x_min":0,"x_max":0,"o":"m 67 0 l 717 0 l 717 82 l 179 82 b 350 257 188 126 246 179 l 435 319 b 701 701 611 453 701 556 b 397 993 701 878 576 993 b 76 661 214 993 76 860 l 76 635 l 168 635 l 168 653 b 397 917 168 818 261 917 b 610 700 528 917 610 826 b 414 407 610 571 513 482 l 272 300 b 67 0 124 188 71 108 z "},"3":{"ha":813,"x_min":0,"x_max":0,"o":"m 403 -19 b 735 264 592 -19 735 96 b 526 513 735 386 660 478 b 708 739 651 551 708 639 b 410 993 708 890 581 993 b 89 706 219 993 96 876 l 179 706 b 410 917 186 836 272 917 b 618 736 535 917 618 849 b 410 549 618 624 528 549 l 332 549 l 332 469 l 408 469 b 643 267 544 469 643 390 b 403 56 643 136 542 56 b 161 269 256 56 167 144 l 71 269 b 403 -19 78 96 203 -19 z "},"4":{"ha":808,"x_min":0,"x_max":0,"o":"m 497 0 l 586 0 l 586 258 l 765 258 l 765 340 l 586 340 l 586 972 l 475 972 l 43 344 l 43 258 l 497 258 z m 132 340 b 169 394 144 358 157 378 l 451 806 b 497 874 467 829 483 853 l 497 340 z "},"5":{"ha":786,"x_min":0,"x_max":0,"o":"m 386 -19 b 721 321 589 -19 721 122 b 422 643 721 511 596 643 b 176 522 315 643 228 592 b 189 615 181 553 185 589 l 225 890 l 667 890 l 667 972 l 157 972 l 86 426 l 172 426 b 404 569 207 497 292 569 b 629 317 546 569 629 469 b 383 56 629 163 539 56 b 161 254 253 56 167 133 l 71 254 b 386 -19 78 90 200 -19 z "},"6":{"ha":821,"x_min":0,"x_max":0,"o":"m 418 -19 b 740 313 604 -19 740 122 b 440 632 740 497 619 632 b 169 461 321 632 217 567 b 172 519 169 482 171 501 b 463 918 185 761 282 918 b 647 743 568 918 639 850 l 738 743 b 464 993 728 894 621 993 b 78 450 203 993 78 743 b 418 -19 78 193 175 -19 z m 188 314 b 425 558 188 451 289 558 b 649 311 564 558 649 451 b 418 51 649 160 556 51 b 188 314 289 51 188 149 z "},"7":{"ha":697,"x_min":0,"x_max":0,"o":"m 210 0 l 304 0 b 660 885 318 331 444 642 l 660 972 l 33 972 l 33 890 l 575 890 b 210 0 346 639 232 346 z "},"8":{"ha":835,"x_min":0,"x_max":0,"o":"m 418 -19 b 757 256 626 -19 757 90 b 542 504 757 367 679 469 b 729 735 660 542 729 631 b 418 993 729 879 603 993 b 106 735 231 993 106 879 b 292 504 106 631 175 542 b 78 256 156 469 78 367 b 418 -19 78 90 208 -19 z m 169 256 b 418 461 169 379 268 461 b 665 256 565 461 665 379 b 418 51 665 131 569 51 b 169 256 265 51 169 131 z m 196 735 b 418 921 196 840 282 921 b 638 735 553 921 638 840 b 418 547 638 625 549 547 b 196 735 286 547 196 625 z "},"9":{"ha":817,"x_min":0,"x_max":0,"o":"m 371 -19 b 736 507 633 -19 736 218 b 394 993 736 776 639 993 b 74 671 213 993 74 860 b 381 358 74 493 208 358 b 644 521 493 358 599 418 b 646 472 646 500 646 488 b 375 54 646 217 554 54 b 178 224 264 54 190 117 l 88 224 b 371 -19 100 81 201 -19 z m 167 674 b 396 921 167 818 263 921 b 628 674 528 921 628 817 b 396 431 628 536 528 431 b 167 674 263 431 167 538 z "}," ":{"ha":347,"x_min":0,"x_max":0,"o":""},"A":{"ha":925,"x_min":0,"x_max":0,"o":"m 14 0 l 111 0 l 231 304 l 690 304 l 811 0 l 913 0 l 514 972 l 408 972 z m 261 382 l 422 789 b 460 881 435 818 447 851 b 496 790 472 853 485 818 l 658 382 z "},"Á":{"ha":925,"x_min":0,"x_max":0,"o":"m 14 0 l 111 0 l 231 304 l 690 304 l 811 0 l 913 0 l 514 972 l 408 972 z m 261 382 l 422 789 b 460 881 435 818 447 851 b 496 790 472 853 485 818 l 658 382 z m 413 1097 l 486 1097 l 614 1268 l 506 1268 z "},"Ă":{"ha":925,"x_min":0,"x_max":0,"o":"m 14 0 l 111 0 l 231 304 l 690 304 l 811 0 l 913 0 l 514 972 l 408 972 z m 261 382 l 422 789 b 460 881 435 818 447 851 b 496 790 472 853 485 818 l 658 382 z m 293 1268 b 461 1101 294 1172 357 1101 b 629 1268 568 1101 628 1172 l 558 1268 b 461 1174 553 1213 522 1174 b 365 1268 400 1174 368 1211 z "},"Â":{"ha":925,"x_min":0,"x_max":0,"o":"m 14 0 l 111 0 l 231 304 l 690 304 l 811 0 l 913 0 l 514 972 l 408 972 z m 261 382 l 422 789 b 460 881 435 818 447 851 b 496 790 472 853 485 818 l 658 382 z m 276 1107 l 368 1107 l 421 1168 b 461 1215 433 1183 447 1201 b 503 1167 475 1200 489 1183 l 553 1107 l 647 1107 l 514 1268 l 408 1268 z "},"Ä":{"ha":925,"x_min":0,"x_max":0,"o":"m 14 0 l 111 0 l 231 304 l 690 304 l 811 0 l 913 0 l 514 972 l 408 972 z m 261 382 l 422 789 b 460 881 435 818 447 851 b 496 790 472 853 485 818 l 658 382 z m 274 1101 l 374 1101 l 374 1240 l 274 1240 z m 551 1101 l 650 1101 l 650 1240 l 551 1240 z "},"Ȧ":{"ha":925,"x_min":0,"x_max":0,"o":"m 14 0 l 111 0 l 231 304 l 690 304 l 811 0 l 913 0 l 514 972 l 408 972 z m 261 382 l 422 789 b 460 881 435 818 447 851 b 496 790 472 853 485 818 l 658 382 z m 411 1101 l 511 1101 l 511 1240 l 411 1240 z "},"À":{"ha":925,"x_min":0,"x_max":0,"o":"m 14 0 l 111 0 l 231 304 l 690 304 l 811 0 l 913 0 l 514 972 l 408 972 z m 261 382 l 422 789 b 460 881 435 818 447 851 b 496 790 472 853 485 818 l 658 382 z m 313 1268 l 440 1097 l 517 1097 l 424 1268 z "},"Ā":{"ha":925,"x_min":0,"x_max":0,"o":"m 14 0 l 111 0 l 231 304 l 690 304 l 811 0 l 913 0 l 514 972 l 408 972 z m 261 382 l 422 789 b 460 881 435 818 447 851 b 496 790 472 853 485 818 l 658 382 z m 276 1135 l 643 1135 l 643 1213 l 276 1213 z "},"Ą":{"ha":925,"x_min":0,"x_max":0,"o":"m 14 0 l 111 0 l 231 304 l 690 304 l 811 0 l 838 0 b 721 -144 769 -33 721 -79 b 856 -261 721 -221 783 -261 b 915 -254 881 -261 901 -258 l 915 -187 b 871 -192 901 -189 888 -192 b 800 -128 833 -192 800 -172 b 917 0 800 -72 858 -29 l 913 1 l 514 972 l 408 972 z m 261 382 l 422 789 b 460 881 435 818 447 851 b 496 790 472 853 485 818 l 658 382 z "},"Å":{"ha":925,"x_min":0,"x_max":0,"o":"m 14 0 l 111 0 l 231 304 l 690 304 l 811 0 l 913 0 l 514 972 l 408 972 z m 261 382 l 422 789 b 460 881 435 818 447 851 b 496 790 472 853 485 818 l 658 382 z m 347 1178 b 460 1067 347 1113 399 1067 b 574 1178 522 1067 574 1113 b 460 1292 574 1244 522 1292 b 347 1178 399 1292 347 1244 z m 407 1178 b 460 1238 407 1215 429 1238 b 514 1178 492 1238 514 1215 b 460 1121 514 1143 493 1121 b 407 1178 429 1121 407 1143 z "},"Ã":{"ha":925,"x_min":0,"x_max":0,"o":"m 14 0 l 111 0 l 231 304 l 690 304 l 811 0 l 913 0 l 514 972 l 408 972 z m 261 382 l 422 789 b 460 881 435 818 447 851 b 496 790 472 853 485 818 l 658 382 z m 263 1124 l 335 1124 b 385 1186 336 1161 351 1186 b 550 1119 439 1186 476 1119 b 661 1249 607 1119 660 1154 l 590 1249 b 542 1188 589 1211 576 1188 b 378 1254 485 1188 450 1254 b 263 1124 321 1254 265 1221 z "},"Æ":{"ha":1244,"x_min":0,"x_max":0,"o":"m -14 0 l 88 0 l 247 304 l 550 304 l 550 0 l 1172 0 l 1172 79 l 642 79 l 642 463 l 1133 463 l 1133 542 l 642 542 l 642 894 l 1157 894 l 1157 972 l 510 972 z m 289 382 l 513 808 l 550 882 l 550 382 z "},"Ǽ":{"ha":1244,"x_min":0,"x_max":0,"o":"m -14 0 l 88 0 l 247 304 l 550 304 l 550 0 l 1172 0 l 1172 79 l 642 79 l 642 463 l 1133 463 l 1133 542 l 642 542 l 642 894 l 1157 894 l 1157 972 l 510 972 z m 289 382 l 513 808 l 550 882 l 550 382 z m 756 1097 l 829 1097 l 957 1268 l 849 1268 z "},"B":{"ha":906,"x_min":0,"x_max":0,"o":"m 135 0 l 489 0 b 829 267 681 0 829 78 b 626 511 829 389 750 479 b 803 732 729 542 803 622 b 503 972 803 886 686 972 l 135 972 z m 226 79 l 226 469 l 490 469 b 735 271 656 469 735 389 b 500 79 735 147 660 79 z m 226 549 l 226 894 l 499 894 b 708 726 643 894 708 824 b 492 549 708 618 629 549 z "},"C":{"ha":994,"x_min":0,"x_max":0,"o":"m 532 -19 b 938 303 754 -19 904 106 l 843 303 b 531 60 811 156 703 60 b 168 489 314 60 168 231 b 529 914 168 744 314 914 b 835 669 699 914 807 818 l 933 669 b 532 993 908 856 756 993 b 72 489 268 993 72 789 b 532 -19 72 178 260 -19 z "},"Ć":{"ha":994,"x_min":0,"x_max":0,"o":"m 532 -19 b 938 303 754 -19 904 106 l 843 303 b 531 60 811 156 703 60 b 168 489 314 60 168 231 b 529 914 168 744 314 914 b 835 669 699 914 807 818 l 933 669 b 532 993 908 856 756 993 b 72 489 268 993 72 789 b 532 -19 72 178 260 -19 z m 476 1097 l 550 1097 l 678 1268 l 569 1268 z "},"Č":{"ha":994,"x_min":0,"x_max":0,"o":"m 532 -19 b 938 303 754 -19 904 106 l 843 303 b 531 60 811 156 703 60 b 168 489 314 60 168 231 b 529 914 168 744 314 914 b 835 669 699 914 807 818 l 933 669 b 532 993 908 856 756 993 b 72 489 268 993 72 789 b 532 -19 72 178 260 -19 z m 339 1268 l 471 1107 l 576 1107 l 710 1268 l 615 1268 l 565 1208 b 524 1161 551 1190 538 1176 b 483 1207 510 1175 496 1190 l 431 1268 z "},"Ç":{"ha":994,"x_min":0,"x_max":0,"o":"m 518 -292 b 657 -181 610 -292 657 -242 b 521 -82 657 -117 603 -75 l 561 -18 b 938 303 768 -8 906 114 l 843 303 b 531 60 811 156 703 60 b 168 489 314 60 168 231 b 529 914 168 744 314 914 b 835 669 699 914 807 818 l 933 669 b 532 993 908 856 756 993 b 72 489 268 993 72 789 b 490 -18 72 194 240 1 l 442 -96 l 476 -137 b 521 -131 489 -133 504 -131 b 588 -181 563 -131 588 -151 b 517 -232 588 -214 558 -232 b 415 -187 469 -232 436 -207 l 378 -233 b 518 -292 407 -264 460 -292 z "},"Ĉ":{"ha":994,"x_min":0,"x_max":0,"o":"m 532 -19 b 938 303 754 -19 904 106 l 843 303 b 531 60 811 156 703 60 b 168 489 314 60 168 231 b 529 914 168 744 314 914 b 835 669 699 914 807 818 l 933 669 b 532 993 908 856 756 993 b 72 489 268 993 72 789 b 532 -19 72 178 260 -19 z m 340 1107 l 432 1107 l 485 1168 b 525 1215 497 1183 511 1201 b 567 1167 539 1200 553 1183 l 617 1107 l 711 1107 l 578 1268 l 472 1268 z "},"Ċ":{"ha":994,"x_min":0,"x_max":0,"o":"m 532 -19 b 938 303 754 -19 904 106 l 843 303 b 531 60 811 156 703 60 b 168 489 314 60 168 231 b 529 914 168 744 314 914 b 835 669 699 914 807 818 l 933 669 b 532 993 908 856 756 993 b 72 489 268 993 72 789 b 532 -19 72 178 260 -19 z m 474 1101 l 574 1101 l 574 1240 l 474 1240 z "},"D":{"ha":1004,"x_min":0,"x_max":0,"o":"m 135 0 l 449 0 b 932 486 763 0 932 188 b 425 972 932 813 738 972 l 135 972 z m 226 79 l 226 894 l 431 894 b 836 486 701 894 836 744 b 440 79 836 213 690 79 z "},"Ð":{"ha":1014,"x_min":0,"x_max":0,"o":"m 144 0 l 458 0 b 942 486 772 0 942 188 b 435 972 942 813 747 972 l 144 972 l 144 528 l 40 528 l 40 454 l 144 454 z m 236 79 l 236 454 l 390 454 l 390 528 l 236 528 l 236 894 l 440 894 b 846 486 711 894 846 744 b 450 79 846 213 700 79 z "},"Ď":{"ha":1004,"x_min":0,"x_max":0,"o":"m 135 0 l 449 0 b 932 486 763 0 932 188 b 425 972 932 813 738 972 l 135 972 z m 226 79 l 226 894 l 431 894 b 836 486 701 894 836 744 b 440 79 836 213 690 79 z m 296 1268 l 428 1107 l 533 1107 l 667 1268 l 572 1268 l 522 1208 b 481 1161 508 1190 494 1176 b 440 1207 467 1175 453 1190 l 388 1268 z "},"Đ":{"ha":1014,"x_min":0,"x_max":0,"o":"m 144 0 l 458 0 b 942 486 772 0 942 188 b 435 972 942 813 747 972 l 144 972 l 144 528 l 40 528 l 40 454 l 144 454 z m 236 79 l 236 454 l 390 454 l 390 528 l 236 528 l 236 894 l 440 894 b 846 486 711 894 846 744 b 450 79 846 213 700 79 z "},"E":{"ha":839,"x_min":0,"x_max":0,"o":"m 135 0 l 767 0 l 767 79 l 226 79 l 226 456 l 728 456 l 728 535 l 226 535 l 226 894 l 750 894 l 750 972 l 135 972 z "},"É":{"ha":839,"x_min":0,"x_max":0,"o":"m 135 0 l 767 0 l 767 79 l 226 79 l 226 456 l 728 456 l 728 535 l 226 535 l 226 894 l 750 894 l 750 972 l 135 972 z m 407 1097 l 481 1097 l 608 1268 l 500 1268 z "},"Ĕ":{"ha":839,"x_min":0,"x_max":0,"o":"m 135 0 l 767 0 l 767 79 l 226 79 l 226 456 l 728 456 l 728 535 l 226 535 l 226 894 l 750 894 l 750 972 l 135 972 z m 288 1268 b 456 1101 289 1172 351 1101 b 624 1268 563 1101 622 1172 l 553 1268 b 456 1174 547 1213 517 1174 b 360 1268 394 1174 363 1211 z "},"Ě":{"ha":839,"x_min":0,"x_max":0,"o":"m 135 0 l 767 0 l 767 79 l 226 79 l 226 456 l 728 456 l 728 535 l 226 535 l 226 894 l 750 894 l 750 972 l 135 972 z m 269 1268 l 401 1107 l 507 1107 l 640 1268 l 546 1268 l 496 1208 b 454 1161 482 1190 468 1176 b 414 1207 440 1175 426 1190 l 361 1268 z "},"Ê":{"ha":839,"x_min":0,"x_max":0,"o":"m 135 0 l 767 0 l 767 79 l 226 79 l 226 456 l 728 456 l 728 535 l 226 535 l 226 894 l 750 894 l 750 972 l 135 972 z m 271 1107 l 363 1107 l 415 1168 b 456 1215 428 1183 442 1201 b 497 1167 469 1200 483 1183 l 547 1107 l 642 1107 l 508 1268 l 403 1268 z "},"Ë":{"ha":839,"x_min":0,"x_max":0,"o":"m 135 0 l 767 0 l 767 79 l 226 79 l 226 456 l 728 456 l 728 535 l 226 535 l 226 894 l 750 894 l 750 972 l 135 972 z m 267 1101 l 367 1101 l 367 1240 l 267 1240 z m 544 1101 l 643 1101 l 643 1240 l 544 1240 z "},"Ė":{"ha":839,"x_min":0,"x_max":0,"o":"m 135 0 l 767 0 l 767 79 l 226 79 l 226 456 l 728 456 l 728 535 l 226 535 l 226 894 l 750 894 l 750 972 l 135 972 z m 404 1101 l 504 1101 l 504 1240 l 404 1240 z "},"È":{"ha":839,"x_min":0,"x_max":0,"o":"m 135 0 l 767 0 l 767 79 l 226 79 l 226 456 l 728 456 l 728 535 l 226 535 l 226 894 l 750 894 l 750 972 l 135 972 z m 306 1268 l 433 1097 l 510 1097 l 417 1268 z "},"Ē":{"ha":839,"x_min":0,"x_max":0,"o":"m 135 0 l 767 0 l 767 79 l 226 79 l 226 456 l 728 456 l 728 535 l 226 535 l 226 894 l 750 894 l 750 972 l 135 972 z m 271 1135 l 638 1135 l 638 1213 l 271 1213 z "},"Ę":{"ha":839,"x_min":0,"x_max":0,"o":"m 135 0 l 678 0 b 571 -144 615 -33 571 -81 b 707 -261 571 -221 633 -261 b 764 -254 731 -261 749 -258 l 764 -187 b 722 -192 751 -189 738 -192 b 649 -128 683 -192 649 -172 b 767 0 649 -72 704 -29 l 767 79 l 226 79 l 226 456 l 728 456 l 728 535 l 226 535 l 226 894 l 750 894 l 750 972 l 135 972 z "},"F":{"ha":801,"x_min":0,"x_max":0,"o":"m 135 0 l 226 0 l 226 456 l 728 456 l 728 535 l 226 535 l 226 894 l 751 894 l 751 972 l 135 972 z "},"G":{"ha":1022,"x_min":0,"x_max":0,"o":"m 531 -19 b 851 160 682 -19 797 58 l 851 63 l 851 0 l 932 0 l 932 490 l 518 490 l 518 413 l 844 413 l 844 374 b 533 58 844 181 729 58 b 168 483 314 58 168 239 b 539 914 168 750 317 914 b 831 696 693 914 806 822 l 928 696 b 539 993 899 871 747 993 b 72 483 275 993 72 797 b 531 -19 72 197 254 -19 z "},"Ğ":{"ha":1022,"x_min":0,"x_max":0,"o":"m 531 -19 b 851 160 682 -19 797 58 l 851 63 l 851 0 l 932 0 l 932 490 l 518 490 l 518 413 l 844 413 l 844 374 b 533 58 844 181 729 58 b 168 483 314 58 168 239 b 539 914 168 750 317 914 b 831 696 693 914 806 822 l 928 696 b 539 993 899 871 747 993 b 72 483 275 993 72 797 b 531 -19 72 197 254 -19 z m 368 1268 b 536 1101 369 1172 432 1101 b 704 1268 643 1101 703 1172 l 633 1268 b 536 1174 628 1213 597 1174 b 440 1268 475 1174 443 1211 z "},"Ĝ":{"ha":1022,"x_min":0,"x_max":0,"o":"m 531 -19 b 851 160 682 -19 797 58 l 851 63 l 851 0 l 932 0 l 932 490 l 518 490 l 518 413 l 844 413 l 844 374 b 533 58 844 181 729 58 b 168 483 314 58 168 239 b 539 914 168 750 317 914 b 831 696 693 914 806 822 l 928 696 b 539 993 899 871 747 993 b 72 483 275 993 72 797 b 531 -19 72 197 254 -19 z m 351 1107 l 443 1107 l 496 1168 b 536 1215 508 1183 522 1201 b 578 1167 550 1200 564 1183 l 628 1107 l 722 1107 l 589 1268 l 483 1268 z "},"Ģ":{"ha":1022,"x_min":0,"x_max":0,"o":"m 531 -19 b 851 160 682 -19 797 58 l 851 63 l 851 0 l 932 0 l 932 490 l 518 490 l 518 413 l 844 413 l 844 374 b 533 58 844 181 729 58 b 168 483 314 58 168 239 b 539 914 168 750 317 914 b 831 696 693 914 806 822 l 928 696 b 539 993 899 871 747 993 b 72 483 275 993 72 797 b 531 -19 72 197 254 -19 z m 474 -381 b 590 -232 546 -375 590 -332 l 590 -117 l 481 -117 l 481 -235 l 533 -235 b 474 -326 533 -299 514 -319 z "},"Ġ":{"ha":1022,"x_min":0,"x_max":0,"o":"m 531 -19 b 851 160 682 -19 797 58 l 851 63 l 851 0 l 932 0 l 932 490 l 518 490 l 518 413 l 844 413 l 844 374 b 533 58 844 181 729 58 b 168 483 314 58 168 239 b 539 914 168 750 317 914 b 831 696 693 914 806 822 l 928 696 b 539 993 899 871 747 993 b 72 483 275 993 72 797 b 531 -19 72 197 254 -19 z m 485 1101 l 585 1101 l 585 1240 l 485 1240 z "},"H":{"ha":1018,"x_min":0,"x_max":0,"o":"m 135 0 l 226 0 l 226 471 l 790 471 l 790 0 l 882 0 l 882 972 l 790 972 l 790 550 l 226 550 l 226 972 l 135 972 z "},"Ħ":{"ha":1039,"x_min":0,"x_max":0,"o":"m 144 0 l 236 0 l 236 471 l 800 471 l 800 0 l 892 0 l 892 731 l 997 731 l 997 807 l 892 807 l 892 972 l 800 972 l 800 807 l 236 807 l 236 972 l 144 972 l 144 807 l 42 807 l 42 731 l 144 731 z m 236 550 l 236 731 l 800 731 l 800 550 z "},"Ĥ":{"ha":1018,"x_min":0,"x_max":0,"o":"m 135 0 l 226 0 l 226 471 l 790 471 l 790 0 l 882 0 l 882 972 l 790 972 l 790 550 l 226 550 l 226 972 l 135 972 z m 325 1107 l 417 1107 l 469 1168 b 510 1215 482 1183 496 1201 b 551 1167 524 1200 538 1183 l 601 1107 l 696 1107 l 563 1268 l 457 1268 z "},"I":{"ha":501,"x_min":0,"x_max":0,"o":"m 69 0 l 432 0 l 432 79 l 297 79 l 297 893 l 432 893 l 432 972 l 69 972 l 69 893 l 206 893 l 206 79 l 69 79 z "},"Ĳ":{"ha":1307,"x_min":0,"x_max":0,"o":"m 69 0 l 432 0 l 432 79 l 297 79 l 297 893 l 432 893 l 432 972 l 69 972 l 69 893 l 206 893 l 206 79 l 69 79 z m 533 294 b 835 -19 539 106 643 -19 b 1139 297 1019 -19 1139 106 l 1139 893 l 1279 893 l 1279 972 l 836 972 l 836 893 l 1046 893 l 1046 300 b 836 58 1046 151 976 58 b 626 294 697 58 632 151 z "},"Í":{"ha":501,"x_min":0,"x_max":0,"o":"m 69 0 l 432 0 l 432 79 l 297 79 l 297 893 l 432 893 l 432 972 l 69 972 l 69 893 l 206 893 l 206 79 l 69 79 z m 206 1097 l 279 1097 l 407 1268 l 299 1268 z "},"Ĭ":{"ha":501,"x_min":0,"x_max":0,"o":"m 69 0 l 432 0 l 432 79 l 297 79 l 297 893 l 432 893 l 432 972 l 69 972 l 69 893 l 206 893 l 206 79 l 69 79 z m 86 1268 b 254 1101 88 1172 150 1101 b 422 1268 361 1101 421 1172 l 351 1268 b 254 1174 346 1213 315 1174 b 158 1268 193 1174 161 1211 z "},"Î":{"ha":501,"x_min":0,"x_max":0,"o":"m 69 0 l 432 0 l 432 79 l 297 79 l 297 893 l 432 893 l 432 972 l 69 972 l 69 893 l 206 893 l 206 79 l 69 79 z m 69 1107 l 161 1107 l 214 1168 b 254 1215 226 1183 240 1201 b 296 1167 268 1200 282 1183 l 346 1107 l 440 1107 l 307 1268 l 201 1268 z "},"Ï":{"ha":501,"x_min":0,"x_max":0,"o":"m 69 0 l 432 0 l 432 79 l 297 79 l 297 893 l 432 893 l 432 972 l 69 972 l 69 893 l 206 893 l 206 79 l 69 79 z m 65 1101 l 165 1101 l 165 1240 l 65 1240 z m 343 1101 l 442 1101 l 442 1240 l 343 1240 z "},"İ":{"ha":501,"x_min":0,"x_max":0,"o":"m 69 0 l 432 0 l 432 79 l 297 79 l 297 893 l 432 893 l 432 972 l 69 972 l 69 893 l 206 893 l 206 79 l 69 79 z m 203 1101 l 303 1101 l 303 1240 l 203 1240 z "},"Ì":{"ha":501,"x_min":0,"x_max":0,"o":"m 69 0 l 432 0 l 432 79 l 297 79 l 297 893 l 432 893 l 432 972 l 69 972 l 69 893 l 206 893 l 206 79 l 69 79 z m 106 1268 l 233 1097 l 310 1097 l 217 1268 z "},"Ī":{"ha":501,"x_min":0,"x_max":0,"o":"m 69 0 l 432 0 l 432 79 l 297 79 l 297 893 l 432 893 l 432 972 l 69 972 l 69 893 l 206 893 l 206 79 l 69 79 z m 69 1135 l 436 1135 l 436 1213 l 69 1213 z "},"Į":{"ha":501,"x_min":0,"x_max":0,"o":"m 69 0 l 211 0 b 104 -144 149 -33 104 -81 b 240 -261 104 -221 167 -261 b 297 -254 264 -261 282 -258 l 297 -187 b 256 -192 285 -189 271 -192 b 182 -128 217 -192 182 -172 b 300 0 182 -72 238 -29 l 432 0 l 432 79 l 297 79 l 297 893 l 432 893 l 432 972 l 69 972 l 69 893 l 206 893 l 206 79 l 69 79 z "},"Ĩ":{"ha":501,"x_min":0,"x_max":0,"o":"m 69 0 l 432 0 l 432 79 l 297 79 l 297 893 l 432 893 l 432 972 l 69 972 l 69 893 l 206 893 l 206 79 l 69 79 z m 56 1124 l 128 1124 b 178 1186 129 1161 144 1186 b 343 1119 232 1186 269 1119 b 454 1249 400 1119 453 1154 l 383 1249 b 335 1188 382 1211 369 1188 b 171 1254 278 1188 243 1254 b 56 1124 114 1254 58 1221 z "},"J":{"ha":806,"x_min":0,"x_max":0,"o":"m 333 -19 b 638 297 518 -19 638 106 l 638 893 l 778 893 l 778 972 l 335 972 l 335 893 l 544 893 l 544 300 b 335 58 544 151 475 58 b 125 294 196 58 131 151 l 32 294 b 333 -19 38 106 142 -19 z "},"Ĵ":{"ha":806,"x_min":0,"x_max":0,"o":"m 333 -19 b 638 297 518 -19 638 106 l 638 893 l 778 893 l 778 972 l 335 972 l 335 893 l 544 893 l 544 300 b 335 58 544 151 475 58 b 125 294 196 58 131 151 l 32 294 b 333 -19 38 106 142 -19 z m 397 1107 l 489 1107 l 542 1168 b 582 1215 554 1183 568 1201 b 624 1167 596 1200 610 1183 l 674 1107 l 768 1107 l 635 1268 l 529 1268 z "},"K":{"ha":857,"x_min":0,"x_max":0,"o":"m 135 0 l 226 0 l 226 386 l 307 467 l 749 0 l 874 0 l 369 531 l 808 972 l 692 972 l 290 567 l 226 503 l 226 972 l 135 972 z "},"Ķ":{"ha":857,"x_min":0,"x_max":0,"o":"m 135 0 l 226 0 l 226 386 l 307 467 l 749 0 l 874 0 l 369 531 l 808 972 l 692 972 l 290 567 l 226 503 l 226 972 l 135 972 z m 401 -381 b 518 -232 474 -375 518 -332 l 518 -117 l 408 -117 l 408 -235 l 461 -235 b 401 -326 461 -299 442 -319 z "},"L":{"ha":760,"x_min":0,"x_max":0,"o":"m 135 0 l 744 0 l 744 79 l 226 79 l 226 972 l 135 972 z "},"Ĺ":{"ha":760,"x_min":0,"x_max":0,"o":"m 135 0 l 744 0 l 744 79 l 226 79 l 226 972 l 135 972 z m 133 1097 l 207 1097 l 335 1268 l 226 1268 z "},"Ľ":{"ha":760,"x_min":0,"x_max":0,"o":"m 135 0 l 744 0 l 744 79 l 226 79 l 226 972 l 135 972 z m 413 708 b 529 857 485 714 529 757 l 529 972 l 419 972 l 419 854 l 472 854 b 413 763 472 790 453 769 z "},"Ļ":{"ha":760,"x_min":0,"x_max":0,"o":"m 135 0 l 744 0 l 744 79 l 226 79 l 226 972 l 135 972 z m 383 -381 b 500 -232 456 -375 500 -332 l 500 -117 l 390 -117 l 390 -235 l 443 -235 b 383 -326 443 -299 424 -319 z "},"Ŀ":{"ha":760,"x_min":0,"x_max":0,"o":"m 135 0 l 744 0 l 744 79 l 226 79 l 226 972 l 135 972 z m 501 406 l 622 406 l 622 543 l 501 543 z "},"Ł":{"ha":774,"x_min":0,"x_max":0,"o":"m 149 0 l 758 0 l 758 79 l 240 79 l 240 411 l 488 519 l 488 603 l 240 493 l 240 972 l 149 972 l 149 453 l 54 411 l 54 329 l 149 371 z "},"M":{"ha":1299,"x_min":0,"x_max":0,"o":"m 135 0 l 226 0 l 226 746 l 226 878 l 600 0 l 700 0 l 1072 878 l 1072 731 l 1072 0 l 1164 0 l 1164 972 l 1024 972 l 696 204 b 651 99 682 168 667 135 l 606 204 l 276 972 l 135 972 z "},"N":{"ha":1064,"x_min":0,"x_max":0,"o":"m 135 0 l 226 0 l 226 708 l 226 878 l 803 0 l 929 0 l 929 972 l 836 972 l 836 249 l 836 107 l 268 972 l 135 972 z "},"Ń":{"ha":1064,"x_min":0,"x_max":0,"o":"m 135 0 l 226 0 l 226 708 l 226 878 l 803 0 l 929 0 l 929 972 l 836 972 l 836 249 l 836 107 l 268 972 l 135 972 z m 507 1097 l 581 1097 l 708 1268 l 600 1268 z "},"Ň":{"ha":1064,"x_min":0,"x_max":0,"o":"m 135 0 l 226 0 l 226 708 l 226 878 l 803 0 l 929 0 l 929 972 l 836 972 l 836 249 l 836 107 l 268 972 l 135 972 z m 369 1268 l 501 1107 l 607 1107 l 740 1268 l 646 1268 l 596 1208 b 554 1161 582 1190 568 1176 b 514 1207 540 1175 526 1190 l 461 1268 z "},"Ņ":{"ha":1064,"x_min":0,"x_max":0,"o":"m 135 0 l 226 0 l 226 708 l 226 878 l 803 0 l 929 0 l 929 972 l 836 972 l 836 249 l 836 107 l 268 972 l 135 972 z m 493 -381 b 610 -232 565 -375 610 -332 l 610 -117 l 500 -117 l 500 -235 l 553 -235 b 493 -326 553 -299 533 -319 z "},"Ŋ":{"ha":1064,"x_min":0,"x_max":0,"o":"m 763 -314 b 929 -151 886 -314 929 -225 l 929 972 l 836 972 l 836 247 l 836 138 l 267 972 l 135 972 l 135 0 l 226 0 l 226 707 l 226 878 l 842 -25 l 842 -122 b 744 -229 842 -196 807 -229 b 681 -221 721 -229 699 -226 l 681 -301 b 763 -314 704 -308 731 -314 z "},"Ñ":{"ha":1064,"x_min":0,"x_max":0,"o":"m 135 0 l 226 0 l 226 708 l 226 878 l 803 0 l 929 0 l 929 972 l 836 972 l 836 249 l 836 107 l 268 972 l 135 972 z m 356 1124 l 428 1124 b 478 1186 429 1161 444 1186 b 643 1119 532 1186 569 1119 b 754 1249 700 1119 753 1154 l 683 1249 b 635 1188 682 1211 669 1188 b 471 1254 578 1188 543 1254 b 356 1124 414 1254 358 1221 z "},"O":{"ha":1049,"x_min":0,"x_max":0,"o":"m 525 -19 b 976 486 781 -19 976 186 b 525 993 976 786 782 993 b 72 486 267 993 72 786 b 525 -19 72 186 268 -19 z m 168 486 b 525 914 168 743 315 914 b 881 486 735 914 881 743 b 525 58 881 229 736 58 b 168 486 313 58 168 229 z "},"Ó":{"ha":1049,"x_min":0,"x_max":0,"o":"m 525 -19 b 976 486 781 -19 976 186 b 525 993 976 786 782 993 b 72 486 267 993 72 786 b 525 -19 72 186 268 -19 z m 168 486 b 525 914 168 743 315 914 b 881 486 735 914 881 743 b 525 58 881 229 736 58 b 168 486 313 58 168 229 z m 476 1097 l 550 1097 l 678 1268 l 569 1268 z "},"Ŏ":{"ha":1049,"x_min":0,"x_max":0,"o":"m 525 -19 b 976 486 781 -19 976 186 b 525 993 976 786 782 993 b 72 486 267 993 72 786 b 525 -19 72 186 268 -19 z m 168 486 b 525 914 168 743 315 914 b 881 486 735 914 881 743 b 525 58 881 229 736 58 b 168 486 313 58 168 229 z m 357 1268 b 525 1101 358 1172 421 1101 b 693 1268 632 1101 692 1172 l 622 1268 b 525 1174 617 1213 586 1174 b 429 1268 464 1174 432 1211 z "},"Ô":{"ha":1049,"x_min":0,"x_max":0,"o":"m 525 -19 b 976 486 781 -19 976 186 b 525 993 976 786 782 993 b 72 486 267 993 72 786 b 525 -19 72 186 268 -19 z m 168 486 b 525 914 168 743 315 914 b 881 486 735 914 881 743 b 525 58 881 229 736 58 b 168 486 313 58 168 229 z m 340 1107 l 432 1107 l 485 1168 b 525 1215 497 1183 511 1201 b 567 1167 539 1200 553 1183 l 617 1107 l 711 1107 l 578 1268 l 472 1268 z "},"Ö":{"ha":1049,"x_min":0,"x_max":0,"o":"m 525 -19 b 976 486 781 -19 976 186 b 525 993 976 786 782 993 b 72 486 267 993 72 786 b 525 -19 72 186 268 -19 z m 168 486 b 525 914 168 743 315 914 b 881 486 735 914 881 743 b 525 58 881 229 736 58 b 168 486 313 58 168 229 z m 336 1101 l 436 1101 l 436 1240 l 336 1240 z m 614 1101 l 713 1101 l 713 1240 l 614 1240 z "},"Ò":{"ha":1049,"x_min":0,"x_max":0,"o":"m 525 -19 b 976 486 781 -19 976 186 b 525 993 976 786 782 993 b 72 486 267 993 72 786 b 525 -19 72 186 268 -19 z m 168 486 b 525 914 168 743 315 914 b 881 486 735 914 881 743 b 525 58 881 229 736 58 b 168 486 313 58 168 229 z m 375 1268 l 503 1097 l 579 1097 l 486 1268 z "},"Ő":{"ha":1049,"x_min":0,"x_max":0,"o":"m 525 -19 b 976 486 781 -19 976 186 b 525 993 976 786 782 993 b 72 486 267 993 72 786 b 525 -19 72 186 268 -19 z m 168 486 b 525 914 168 743 315 914 b 881 486 735 914 881 743 b 525 58 881 229 736 58 b 168 486 313 58 168 229 z m 378 1097 l 440 1097 l 536 1268 l 438 1268 z m 590 1097 l 656 1097 l 757 1268 l 657 1268 z "},"Ō":{"ha":1049,"x_min":0,"x_max":0,"o":"m 525 -19 b 976 486 781 -19 976 186 b 525 993 976 786 782 993 b 72 486 267 993 72 786 b 525 -19 72 186 268 -19 z m 168 486 b 525 914 168 743 315 914 b 881 486 735 914 881 743 b 525 58 881 229 736 58 b 168 486 313 58 168 229 z m 340 1135 l 707 1135 l 707 1213 l 340 1213 z "},"Ø":{"ha":1049,"x_min":0,"x_max":0,"o":"m 525 -19 b 976 486 781 -19 976 186 b 856 842 976 631 932 753 l 949 961 l 883 1011 l 797 900 b 525 993 722 960 629 993 b 72 486 267 993 72 786 b 199 125 72 339 119 214 l 104 4 l 171 -44 l 258 69 b 525 -19 332 13 424 -19 z m 168 486 b 525 914 168 743 315 914 b 746 833 611 914 686 885 l 251 194 b 168 486 199 268 168 368 z m 308 133 l 801 771 b 881 486 851 697 881 600 b 525 58 881 229 736 58 b 308 133 440 58 367 85 z "},"Ǿ":{"ha":1049,"x_min":0,"x_max":0,"o":"m 525 -19 b 976 486 781 -19 976 186 b 856 842 976 631 932 753 l 949 961 l 883 1011 l 797 900 b 525 993 722 960 629 993 b 72 486 267 993 72 786 b 199 125 72 339 119 214 l 104 4 l 171 -44 l 258 69 b 525 -19 332 13 424 -19 z m 168 486 b 525 914 168 743 315 914 b 746 833 611 914 686 885 l 251 194 b 168 486 199 268 168 368 z m 308 133 l 801 771 b 881 486 851 697 881 600 b 525 58 881 229 736 58 b 308 133 440 58 367 85 z m 476 1097 l 550 1097 l 678 1268 l 569 1268 z "},"Õ":{"ha":1049,"x_min":0,"x_max":0,"o":"m 525 -19 b 976 486 781 -19 976 186 b 525 993 976 786 782 993 b 72 486 267 993 72 786 b 525 -19 72 186 268 -19 z m 168 486 b 525 914 168 743 315 914 b 881 486 735 914 881 743 b 525 58 881 229 736 58 b 168 486 313 58 168 229 z m 325 1124 l 397 1124 b 447 1186 399 1161 414 1186 b 613 1119 501 1186 539 1119 b 724 1249 669 1119 722 1154 l 653 1249 b 604 1188 651 1211 639 1188 b 440 1254 547 1188 513 1254 b 325 1124 383 1254 328 1221 z "},"Œ":{"ha":1242,"x_min":0,"x_max":0,"o":"m 564 0 l 1169 0 l 1169 79 l 710 79 l 710 463 l 1131 463 l 1131 542 l 710 542 l 710 894 l 1154 894 l 1154 972 l 564 972 b 72 486 293 972 72 782 b 564 0 72 190 294 0 z m 168 486 b 561 894 168 738 342 894 l 618 894 l 618 79 l 561 79 b 168 486 339 79 168 235 z "},"P":{"ha":872,"x_min":0,"x_max":0,"o":"m 135 0 l 226 0 l 226 431 l 503 431 b 831 701 692 431 831 510 b 503 972 831 893 688 972 l 135 972 z m 226 510 l 226 894 l 503 894 b 736 701 660 894 736 822 b 503 510 736 581 660 510 z "},"Þ":{"ha":893,"x_min":0,"x_max":0,"o":"m 135 0 l 226 0 l 226 238 l 501 238 b 831 507 692 238 831 317 b 504 774 831 694 688 774 l 226 774 l 226 972 l 135 972 z m 226 317 l 226 694 l 503 694 b 736 507 660 694 736 622 b 503 317 736 389 660 317 z "},"Q":{"ha":1049,"x_min":0,"x_max":0,"o":"m 872 -57 l 932 -3 l 828 101 b 976 486 919 190 976 325 b 525 993 976 786 782 993 b 72 486 267 993 72 786 b 525 -19 72 186 268 -19 b 765 51 614 -19 696 6 z m 168 486 b 525 914 168 743 315 914 b 881 486 735 914 881 743 b 768 161 881 349 839 236 l 611 318 l 554 263 l 707 110 b 525 58 656 76 593 58 b 168 486 313 58 168 229 z "},"R":{"ha":924,"x_min":0,"x_max":0,"o":"m 135 0 l 226 0 l 226 440 l 506 440 b 721 240 642 440 721 400 l 721 0 l 814 0 l 814 256 b 644 482 814 396 740 465 b 835 718 742 508 835 590 b 532 972 835 878 718 972 l 135 972 z m 226 519 l 226 894 l 515 894 b 740 710 658 894 740 829 b 515 519 740 588 647 519 z "},"Ŕ":{"ha":924,"x_min":0,"x_max":0,"o":"m 135 0 l 226 0 l 226 440 l 506 440 b 721 240 642 440 721 400 l 721 0 l 814 0 l 814 256 b 644 482 814 396 740 465 b 835 718 742 508 835 590 b 532 972 835 878 718 972 l 135 972 z m 226 519 l 226 894 l 515 894 b 740 710 658 894 740 829 b 515 519 740 588 647 519 z m 422 1097 l 496 1097 l 624 1268 l 515 1268 z "},"Ř":{"ha":924,"x_min":0,"x_max":0,"o":"m 135 0 l 226 0 l 226 440 l 506 440 b 721 240 642 440 721 400 l 721 0 l 814 0 l 814 256 b 644 482 814 396 740 465 b 835 718 742 508 835 590 b 532 972 835 878 718 972 l 135 972 z m 226 519 l 226 894 l 515 894 b 740 710 658 894 740 829 b 515 519 740 588 647 519 z m 286 1268 l 418 1107 l 524 1107 l 657 1268 l 563 1268 l 513 1208 b 471 1161 499 1190 485 1176 b 431 1207 457 1175 443 1190 l 378 1268 z "},"Ŗ":{"ha":924,"x_min":0,"x_max":0,"o":"m 135 0 l 226 0 l 226 440 l 506 440 b 721 240 642 440 721 400 l 721 0 l 814 0 l 814 256 b 644 482 814 396 740 465 b 835 718 742 508 835 590 b 532 972 835 878 718 972 l 135 972 z m 226 519 l 226 894 l 515 894 b 740 710 658 894 740 829 b 515 519 740 588 647 519 z m 428 -381 b 544 -232 500 -375 544 -332 l 544 -117 l 435 -117 l 435 -235 l 488 -235 b 428 -326 488 -299 468 -319 z "},"S":{"ha":882,"x_min":0,"x_max":0,"o":"m 449 -19 b 817 265 664 -19 817 99 b 561 519 817 400 715 485 l 375 563 b 188 736 249 592 188 644 b 438 914 188 838 288 914 b 699 706 588 914 689 828 l 792 706 b 439 993 781 875 643 993 b 93 731 235 993 93 879 b 350 475 93 593 200 510 l 519 436 b 721 261 651 406 721 354 b 449 58 721 135 611 58 b 153 307 272 58 163 163 l 60 307 b 449 -19 65 114 211 -19 z "},"Ś":{"ha":882,"x_min":0,"x_max":0,"o":"m 449 -19 b 817 265 664 -19 817 99 b 561 519 817 400 715 485 l 375 563 b 188 736 249 592 188 644 b 438 914 188 838 288 914 b 699 706 588 914 689 828 l 792 706 b 439 993 781 875 643 993 b 93 731 235 993 93 879 b 350 475 93 593 200 510 l 519 436 b 721 261 651 406 721 354 b 449 58 721 135 611 58 b 153 307 272 58 163 163 l 60 307 b 449 -19 65 114 211 -19 z m 390 1097 l 464 1097 l 592 1268 l 483 1268 z "},"Š":{"ha":882,"x_min":0,"x_max":0,"o":"m 449 -19 b 817 265 664 -19 817 99 b 561 519 817 400 715 485 l 375 563 b 188 736 249 592 188 644 b 438 914 188 838 288 914 b 699 706 588 914 689 828 l 792 706 b 439 993 781 875 643 993 b 93 731 235 993 93 879 b 350 475 93 593 200 510 l 519 436 b 721 261 651 406 721 354 b 449 58 721 135 611 58 b 153 307 272 58 163 163 l 60 307 b 449 -19 65 114 211 -19 z m 254 1268 l 386 1107 l 492 1107 l 625 1268 l 531 1268 l 481 1208 b 439 1161 467 1190 453 1176 b 399 1207 425 1175 411 1190 l 346 1268 z "},"Ş":{"ha":882,"x_min":0,"x_max":0,"o":"m 438 -292 b 576 -181 529 -292 576 -242 b 440 -82 576 -117 522 -75 l 481 -18 b 817 265 679 -7 817 107 b 561 519 817 400 715 485 l 375 563 b 188 736 249 592 188 644 b 438 914 188 838 288 914 b 699 706 588 914 689 828 l 792 706 b 439 993 781 875 643 993 b 93 731 235 993 93 879 b 350 475 93 593 200 510 l 519 436 b 721 261 651 406 721 354 b 449 58 721 135 611 58 b 153 307 272 58 163 163 l 60 307 b 410 -18 65 125 196 -4 l 361 -96 l 396 -137 b 440 -131 408 -133 424 -131 b 507 -181 482 -131 507 -151 b 436 -232 507 -214 478 -232 b 335 -187 389 -232 356 -207 l 297 -233 b 438 -292 326 -264 379 -292 z "},"Ŝ":{"ha":882,"x_min":0,"x_max":0,"o":"m 449 -19 b 817 265 664 -19 817 99 b 561 519 817 400 715 485 l 375 563 b 188 736 249 592 188 644 b 438 914 188 838 288 914 b 699 706 588 914 689 828 l 792 706 b 439 993 781 875 643 993 b 93 731 235 993 93 879 b 350 475 93 593 200 510 l 519 436 b 721 261 651 406 721 354 b 449 58 721 135 611 58 b 153 307 272 58 163 163 l 60 307 b 449 -19 65 114 211 -19 z m 254 1107 l 346 1107 l 399 1168 b 439 1215 411 1183 425 1201 b 481 1167 453 1200 467 1183 l 531 1107 l 625 1107 l 492 1268 l 386 1268 z "},"Ș":{"ha":882,"x_min":0,"x_max":0,"o":"m 449 -19 b 817 265 664 -19 817 99 b 561 519 817 400 715 485 l 375 563 b 188 736 249 592 188 644 b 438 914 188 838 288 914 b 699 706 588 914 689 828 l 792 706 b 439 993 781 875 643 993 b 93 731 235 993 93 879 b 350 475 93 593 200 510 l 519 436 b 721 261 651 406 721 354 b 449 58 721 135 611 58 b 153 307 272 58 163 163 l 60 307 b 449 -19 65 114 211 -19 z m 397 -381 b 514 -232 469 -375 514 -332 l 514 -117 l 404 -117 l 404 -235 l 457 -235 b 397 -326 457 -299 438 -319 z "},"ẞ":{"ha":925,"x_min":0,"x_max":0,"o":"m 532 -15 b 849 246 742 -15 849 99 b 635 499 849 386 754 469 b 821 728 735 529 821 606 b 506 972 821 868 707 972 l 135 972 l 135 0 l 226 0 l 226 894 l 501 894 b 728 722 638 894 728 832 b 506 535 728 618 649 535 l 414 535 l 414 456 l 503 456 b 757 254 658 456 757 383 b 526 63 757 131 668 63 b 389 82 467 63 417 74 l 389 1 b 532 -15 417 -6 465 -15 z "},"T":{"ha":806,"x_min":0,"x_max":0,"o":"m 357 0 l 449 0 l 449 894 l 792 894 l 792 972 l 13 972 l 13 894 l 357 894 z "},"Ŧ":{"ha":836,"x_min":0,"x_max":0,"o":"m 372 0 l 464 0 l 464 449 l 683 449 l 683 524 l 464 524 l 464 894 l 807 894 l 807 972 l 28 972 l 28 894 l 372 894 l 372 524 l 154 524 l 154 449 l 372 449 z "},"Ť":{"ha":806,"x_min":0,"x_max":0,"o":"m 357 0 l 449 0 l 449 894 l 792 894 l 792 972 l 13 972 l 13 894 l 357 894 z m 217 1268 l 349 1107 l 454 1107 l 588 1268 l 493 1268 l 443 1208 b 401 1161 429 1190 415 1176 b 361 1207 388 1175 374 1190 l 308 1268 z "},"Ţ":{"ha":806,"x_min":0,"x_max":0,"o":"m 357 0 l 367 0 l 307 -96 l 342 -137 b 386 -131 354 -133 369 -131 b 453 -181 428 -131 453 -151 b 382 -232 453 -214 424 -232 b 281 -187 335 -232 301 -207 l 243 -233 b 383 -292 272 -264 325 -292 b 522 -181 475 -292 522 -242 b 386 -82 522 -117 468 -75 l 439 0 l 449 0 l 449 894 l 792 894 l 792 972 l 13 972 l 13 894 l 357 894 z "},"Ț":{"ha":806,"x_min":0,"x_max":0,"o":"m 357 0 l 449 0 l 449 894 l 792 894 l 792 972 l 13 972 l 13 894 l 357 894 z m 342 -381 b 458 -232 414 -375 458 -332 l 458 -117 l 349 -117 l 349 -235 l 401 -235 b 342 -326 401 -299 382 -319 z "},"U":{"ha":964,"x_min":0,"x_max":0,"o":"m 482 -19 b 839 365 700 -19 839 110 l 839 972 l 747 972 l 747 375 b 482 58 747 160 650 58 b 217 375 314 58 217 161 l 217 972 l 125 972 l 125 365 b 482 -19 125 110 264 -19 z "},"Ú":{"ha":964,"x_min":0,"x_max":0,"o":"m 482 -19 b 839 365 700 -19 839 110 l 839 972 l 747 972 l 747 375 b 482 58 747 160 650 58 b 217 375 314 58 217 161 l 217 972 l 125 972 l 125 365 b 482 -19 125 110 264 -19 z m 433 1097 l 507 1097 l 635 1268 l 526 1268 z "},"Ŭ":{"ha":964,"x_min":0,"x_max":0,"o":"m 482 -19 b 839 365 700 -19 839 110 l 839 972 l 747 972 l 747 375 b 482 58 747 160 650 58 b 217 375 314 58 217 161 l 217 972 l 125 972 l 125 365 b 482 -19 125 110 264 -19 z m 314 1268 b 482 1101 315 1172 378 1101 b 650 1268 589 1101 649 1172 l 579 1268 b 482 1174 574 1213 543 1174 b 386 1268 421 1174 389 1211 z "},"Û":{"ha":964,"x_min":0,"x_max":0,"o":"m 482 -19 b 839 365 700 -19 839 110 l 839 972 l 747 972 l 747 375 b 482 58 747 160 650 58 b 217 375 314 58 217 161 l 217 972 l 125 972 l 125 365 b 482 -19 125 110 264 -19 z m 297 1107 l 389 1107 l 442 1168 b 482 1215 454 1183 468 1201 b 524 1167 496 1200 510 1183 l 574 1107 l 668 1107 l 535 1268 l 429 1268 z "},"Ü":{"ha":964,"x_min":0,"x_max":0,"o":"m 482 -19 b 839 365 700 -19 839 110 l 839 972 l 747 972 l 747 375 b 482 58 747 160 650 58 b 217 375 314 58 217 161 l 217 972 l 125 972 l 125 365 b 482 -19 125 110 264 -19 z m 293 1101 l 393 1101 l 393 1240 l 293 1240 z m 571 1101 l 669 1101 l 669 1240 l 571 1240 z "},"Ù":{"ha":964,"x_min":0,"x_max":0,"o":"m 482 -19 b 839 365 700 -19 839 110 l 839 972 l 747 972 l 747 375 b 482 58 747 160 650 58 b 217 375 314 58 217 161 l 217 972 l 125 972 l 125 365 b 482 -19 125 110 264 -19 z m 332 1268 l 460 1097 l 536 1097 l 443 1268 z "},"Ű":{"ha":964,"x_min":0,"x_max":0,"o":"m 482 -19 b 839 365 700 -19 839 110 l 839 972 l 747 972 l 747 375 b 482 58 747 160 650 58 b 217 375 314 58 217 161 l 217 972 l 125 972 l 125 365 b 482 -19 125 110 264 -19 z m 335 1097 l 397 1097 l 493 1268 l 394 1268 z m 547 1097 l 613 1097 l 714 1268 l 614 1268 z "},"Ū":{"ha":964,"x_min":0,"x_max":0,"o":"m 482 -19 b 839 365 700 -19 839 110 l 839 972 l 747 972 l 747 375 b 482 58 747 160 650 58 b 217 375 314 58 217 161 l 217 972 l 125 972 l 125 365 b 482 -19 125 110 264 -19 z m 297 1135 l 664 1135 l 664 1213 l 297 1213 z "},"Ų":{"ha":964,"x_min":0,"x_max":0,"o":"m 524 -261 b 581 -254 550 -261 565 -258 l 581 -187 b 540 -192 567 -189 556 -192 b 465 -128 500 -192 465 -172 b 589 -8 465 -71 529 -22 b 839 365 746 32 839 156 l 839 972 l 747 972 l 747 375 b 482 58 747 160 650 58 b 217 375 314 58 217 161 l 217 972 l 125 972 l 125 365 b 471 -19 125 122 250 -12 b 388 -144 417 -51 388 -93 b 524 -261 388 -221 447 -261 z "},"Ů":{"ha":964,"x_min":0,"x_max":0,"o":"m 482 -19 b 839 365 700 -19 839 110 l 839 972 l 747 972 l 747 375 b 482 58 747 160 650 58 b 217 375 314 58 217 161 l 217 972 l 125 972 l 125 365 b 482 -19 125 110 264 -19 z m 368 1178 b 481 1067 368 1113 419 1067 b 594 1178 543 1067 594 1113 b 481 1292 594 1244 543 1292 b 368 1178 419 1292 368 1244 z m 428 1178 b 481 1238 428 1215 450 1238 b 535 1178 513 1238 535 1215 b 481 1121 535 1143 514 1121 b 428 1178 450 1121 428 1143 z "},"Ũ":{"ha":964,"x_min":0,"x_max":0,"o":"m 482 -19 b 839 365 700 -19 839 110 l 839 972 l 747 972 l 747 375 b 482 58 747 160 650 58 b 217 375 314 58 217 161 l 217 972 l 125 972 l 125 365 b 482 -19 125 110 264 -19 z m 282 1124 l 354 1124 b 404 1186 356 1161 371 1186 b 569 1119 458 1186 496 1119 b 681 1249 626 1119 679 1154 l 610 1249 b 561 1188 608 1211 596 1188 b 397 1254 504 1188 469 1254 b 282 1124 340 1254 285 1221 z "},"V":{"ha":903,"x_min":0,"x_max":0,"o":"m 399 0 l 501 0 l 888 972 l 792 972 l 513 253 b 453 103 493 203 472 151 l 394 253 l 115 972 l 15 972 z "},"W":{"ha":1318,"x_min":0,"x_max":0,"o":"m 301 0 l 414 0 l 631 771 b 658 879 639 806 650 843 b 689 771 668 843 681 807 l 907 0 l 1019 0 l 1290 972 l 1201 972 l 989 214 b 961 111 979 181 971 146 l 932 214 l 718 972 l 603 972 l 392 213 l 363 113 b 333 213 353 147 344 179 l 119 972 l 24 972 z "},"Ẃ":{"ha":1318,"x_min":0,"x_max":0,"o":"m 301 0 l 414 0 l 631 771 b 658 879 639 806 650 843 b 689 771 668 843 681 807 l 907 0 l 1019 0 l 1290 972 l 1201 972 l 989 214 b 961 111 979 181 971 146 l 932 214 l 718 972 l 603 972 l 392 213 l 363 113 b 333 213 353 147 344 179 l 119 972 l 24 972 z m 613 1097 l 686 1097 l 814 1268 l 706 1268 z "},"Ŵ":{"ha":1318,"x_min":0,"x_max":0,"o":"m 301 0 l 414 0 l 631 771 b 658 879 639 806 650 843 b 689 771 668 843 681 807 l 907 0 l 1019 0 l 1290 972 l 1201 972 l 989 214 b 961 111 979 181 971 146 l 932 214 l 718 972 l 603 972 l 392 213 l 363 113 b 333 213 353 147 344 179 l 119 972 l 24 972 z m 476 1107 l 568 1107 l 621 1168 b 661 1215 633 1183 647 1201 b 703 1167 675 1200 689 1183 l 753 1107 l 847 1107 l 714 1268 l 608 1268 z "},"Ẅ":{"ha":1318,"x_min":0,"x_max":0,"o":"m 301 0 l 414 0 l 631 771 b 658 879 639 806 650 843 b 689 771 668 843 681 807 l 907 0 l 1019 0 l 1290 972 l 1201 972 l 989 214 b 961 111 979 181 971 146 l 932 214 l 718 972 l 603 972 l 392 213 l 363 113 b 333 213 353 147 344 179 l 119 972 l 24 972 z m 472 1101 l 572 1101 l 572 1240 l 472 1240 z m 750 1101 l 849 1101 l 849 1240 l 750 1240 z "},"Ẁ":{"ha":1318,"x_min":0,"x_max":0,"o":"m 301 0 l 414 0 l 631 771 b 658 879 639 806 650 843 b 689 771 668 843 681 807 l 907 0 l 1019 0 l 1290 972 l 1201 972 l 989 214 b 961 111 979 181 971 146 l 932 214 l 718 972 l 603 972 l 392 213 l 363 113 b 333 213 353 147 344 179 l 119 972 l 24 972 z m 511 1268 l 639 1097 l 715 1097 l 622 1268 z "},"X":{"ha":842,"x_min":0,"x_max":0,"o":"m 11 0 l 117 0 l 363 361 l 418 442 b 475 361 436 415 456 389 l 722 0 l 832 0 l 475 507 l 800 972 l 694 972 l 481 657 b 421 571 463 629 440 597 b 363 657 404 597 381 631 l 150 972 l 42 972 l 365 507 z "},"Y":{"ha":811,"x_min":0,"x_max":0,"o":"m 358 0 l 450 0 l 450 421 l 794 972 l 693 972 l 468 606 b 404 503 447 569 426 538 b 346 604 385 536 365 569 l 124 972 l 18 972 l 358 421 z "},"Ý":{"ha":811,"x_min":0,"x_max":0,"o":"m 358 0 l 450 0 l 450 421 l 794 972 l 693 972 l 468 606 b 404 503 447 569 426 538 b 346 604 385 536 365 569 l 124 972 l 18 972 l 358 421 z m 361 1097 l 435 1097 l 563 1268 l 454 1268 z "},"Ŷ":{"ha":811,"x_min":0,"x_max":0,"o":"m 358 0 l 450 0 l 450 421 l 794 972 l 693 972 l 468 606 b 404 503 447 569 426 538 b 346 604 385 536 365 569 l 124 972 l 18 972 l 358 421 z m 225 1107 l 317 1107 l 369 1168 b 410 1215 382 1183 396 1201 b 451 1167 424 1200 438 1183 l 501 1107 l 596 1107 l 463 1268 l 357 1268 z "},"Ÿ":{"ha":811,"x_min":0,"x_max":0,"o":"m 358 0 l 450 0 l 450 421 l 794 972 l 693 972 l 468 606 b 404 503 447 569 426 538 b 346 604 385 536 365 569 l 124 972 l 18 972 l 358 421 z m 221 1101 l 321 1101 l 321 1240 l 221 1240 z m 499 1101 l 597 1101 l 597 1240 l 499 1240 z "},"Ỳ":{"ha":811,"x_min":0,"x_max":0,"o":"m 358 0 l 450 0 l 450 421 l 794 972 l 693 972 l 468 606 b 404 503 447 569 426 538 b 346 604 385 536 365 569 l 124 972 l 18 972 l 358 421 z m 260 1268 l 388 1097 l 464 1097 l 371 1268 z "},"Ȳ":{"ha":811,"x_min":0,"x_max":0,"o":"m 358 0 l 450 0 l 450 421 l 794 972 l 693 972 l 468 606 b 404 503 447 569 426 538 b 346 604 385 536 365 569 l 124 972 l 18 972 l 358 421 z m 225 1135 l 592 1135 l 592 1213 l 225 1213 z "},"Z":{"ha":810,"x_min":0,"x_max":0,"o":"m 46 0 l 767 0 l 767 79 l 149 79 b 210 161 167 106 189 135 l 750 889 l 750 972 l 69 972 l 69 894 l 646 894 l 593 821 l 46 85 z "},"Ź":{"ha":810,"x_min":0,"x_max":0,"o":"m 46 0 l 767 0 l 767 79 l 149 79 b 210 161 167 106 189 135 l 750 889 l 750 972 l 69 972 l 69 894 l 646 894 l 593 821 l 46 85 z m 369 1097 l 443 1097 l 571 1268 l 463 1268 z "},"Ž":{"ha":810,"x_min":0,"x_max":0,"o":"m 46 0 l 767 0 l 767 79 l 149 79 b 210 161 167 106 189 135 l 750 889 l 750 972 l 69 972 l 69 894 l 646 894 l 593 821 l 46 85 z m 232 1268 l 364 1107 l 469 1107 l 603 1268 l 508 1268 l 458 1208 b 417 1161 444 1190 431 1176 b 376 1207 403 1175 389 1190 l 324 1268 z "},"Ż":{"ha":810,"x_min":0,"x_max":0,"o":"m 46 0 l 767 0 l 767 79 l 149 79 b 210 161 167 106 189 135 l 750 889 l 750 972 l 69 972 l 69 894 l 646 894 l 593 821 l 46 85 z m 367 1101 l 467 1101 l 467 1240 l 367 1240 z "},"a":{"ha":704,"x_min":0,"x_max":0,"o":"m 293 -19 b 518 111 406 -19 483 38 l 518 43 l 518 0 l 603 0 l 603 447 b 353 688 603 590 513 688 b 90 461 190 688 99 582 l 178 461 b 358 617 183 546 235 617 b 517 478 453 617 517 563 b 422 400 517 426 479 408 l 285 378 b 69 176 164 360 69 299 b 293 -19 69 57 165 -19 z m 158 176 b 310 313 158 257 221 296 l 429 333 b 517 372 476 342 508 356 l 517 264 b 303 50 517 147 432 50 b 158 176 219 50 158 100 z "},"á":{"ha":704,"x_min":0,"x_max":0,"o":"m 293 -19 b 518 111 406 -19 483 38 l 518 43 l 518 0 l 603 0 l 603 447 b 353 688 603 590 513 688 b 90 461 190 688 99 582 l 178 461 b 358 617 183 546 235 617 b 517 478 453 617 517 563 b 422 400 517 426 479 408 l 285 378 b 69 176 164 360 69 299 b 293 -19 69 57 165 -19 z m 158 176 b 310 313 158 257 221 296 l 429 333 b 517 372 476 342 508 356 l 517 264 b 303 50 517 147 432 50 b 158 176 219 50 158 100 z m 307 793 l 381 793 l 508 964 l 400 964 z "},"ă":{"ha":704,"x_min":0,"x_max":0,"o":"m 293 -19 b 518 111 406 -19 483 38 l 518 43 l 518 0 l 603 0 l 603 447 b 353 688 603 590 513 688 b 90 461 190 688 99 582 l 178 461 b 358 617 183 546 235 617 b 517 478 453 617 517 563 b 422 400 517 426 479 408 l 285 378 b 69 176 164 360 69 299 b 293 -19 69 57 165 -19 z m 158 176 b 310 313 158 257 221 296 l 429 333 b 517 372 476 342 508 356 l 517 264 b 303 50 517 147 432 50 b 158 176 219 50 158 100 z m 188 964 b 356 797 189 868 251 797 b 524 964 463 797 522 868 l 453 964 b 356 869 447 908 417 869 b 260 964 294 869 263 907 z "},"â":{"ha":704,"x_min":0,"x_max":0,"o":"m 293 -19 b 518 111 406 -19 483 38 l 518 43 l 518 0 l 603 0 l 603 447 b 353 688 603 590 513 688 b 90 461 190 688 99 582 l 178 461 b 358 617 183 546 235 617 b 517 478 453 617 517 563 b 422 400 517 426 479 408 l 285 378 b 69 176 164 360 69 299 b 293 -19 69 57 165 -19 z m 158 176 b 310 313 158 257 221 296 l 429 333 b 517 372 476 342 508 356 l 517 264 b 303 50 517 147 432 50 b 158 176 219 50 158 100 z m 171 803 l 263 803 l 315 864 b 356 911 328 879 342 897 b 397 863 369 896 383 879 l 447 803 l 542 803 l 408 964 l 303 964 z "},"ä":{"ha":704,"x_min":0,"x_max":0,"o":"m 293 -19 b 518 111 406 -19 483 38 l 518 43 l 518 0 l 603 0 l 603 447 b 353 688 603 590 513 688 b 90 461 190 688 99 582 l 178 461 b 358 617 183 546 235 617 b 517 478 453 617 517 563 b 422 400 517 426 479 408 l 285 378 b 69 176 164 360 69 299 b 293 -19 69 57 165 -19 z m 158 176 b 310 313 158 257 221 296 l 429 333 b 517 372 476 342 508 356 l 517 264 b 303 50 517 147 432 50 b 158 176 219 50 158 100 z m 167 797 l 267 797 l 267 936 l 167 936 z m 444 797 l 543 797 l 543 936 l 444 936 z "},"ȧ":{"ha":704,"x_min":0,"x_max":0,"o":"m 293 -19 b 518 111 406 -19 483 38 l 518 43 l 518 0 l 603 0 l 603 447 b 353 688 603 590 513 688 b 90 461 190 688 99 582 l 178 461 b 358 617 183 546 235 617 b 517 478 453 617 517 563 b 422 400 517 426 479 408 l 285 378 b 69 176 164 360 69 299 b 293 -19 69 57 165 -19 z m 158 176 b 310 313 158 257 221 296 l 429 333 b 517 372 476 342 508 356 l 517 264 b 303 50 517 147 432 50 b 158 176 219 50 158 100 z m 304 797 l 404 797 l 404 936 l 304 936 z "},"à":{"ha":704,"x_min":0,"x_max":0,"o":"m 293 -19 b 518 111 406 -19 483 38 l 518 43 l 518 0 l 603 0 l 603 447 b 353 688 603 590 513 688 b 90 461 190 688 99 582 l 178 461 b 358 617 183 546 235 617 b 517 478 453 617 517 563 b 422 400 517 426 479 408 l 285 378 b 69 176 164 360 69 299 b 293 -19 69 57 165 -19 z m 158 176 b 310 313 158 257 221 296 l 429 333 b 517 372 476 342 508 356 l 517 264 b 303 50 517 147 432 50 b 158 176 219 50 158 100 z m 206 964 l 333 793 l 410 793 l 317 964 z "},"ā":{"ha":704,"x_min":0,"x_max":0,"o":"m 293 -19 b 518 111 406 -19 483 38 l 518 43 l 518 0 l 603 0 l 603 447 b 353 688 603 590 513 688 b 90 461 190 688 99 582 l 178 461 b 358 617 183 546 235 617 b 517 478 453 617 517 563 b 422 400 517 426 479 408 l 285 378 b 69 176 164 360 69 299 b 293 -19 69 57 165 -19 z m 158 176 b 310 313 158 257 221 296 l 429 333 b 517 372 476 342 508 356 l 517 264 b 303 50 517 147 432 50 b 158 176 219 50 158 100 z m 171 831 l 538 831 l 538 908 l 171 908 z "},"ą":{"ha":704,"x_min":0,"x_max":0,"o":"m 293 -19 b 518 111 406 -19 483 38 l 518 43 l 518 3 b 407 -144 453 -31 407 -79 b 543 -261 407 -221 469 -261 b 600 -254 567 -261 585 -258 l 600 -187 b 558 -192 588 -189 574 -192 b 485 -128 519 -192 485 -172 b 603 0 485 -72 540 -29 l 603 447 b 353 688 603 590 513 688 b 90 461 190 688 99 582 l 178 461 b 358 617 183 546 235 617 b 517 478 453 617 517 563 b 422 400 517 426 479 408 l 285 378 b 69 176 164 360 69 299 b 293 -19 69 57 165 -19 z m 158 176 b 310 313 158 257 221 296 l 429 333 b 517 372 476 342 508 356 l 517 264 b 303 50 517 147 432 50 b 158 176 219 50 158 100 z "},"å":{"ha":704,"x_min":0,"x_max":0,"o":"m 293 -19 b 518 111 406 -19 483 38 l 518 43 l 518 0 l 603 0 l 603 447 b 353 688 603 590 513 688 b 90 461 190 688 99 582 l 178 461 b 358 617 183 546 235 617 b 517 478 453 617 517 563 b 422 400 517 426 479 408 l 285 378 b 69 176 164 360 69 299 b 293 -19 69 57 165 -19 z m 158 176 b 310 313 158 257 221 296 l 429 333 b 517 372 476 342 508 356 l 517 264 b 303 50 517 147 432 50 b 158 176 219 50 158 100 z m 242 874 b 354 763 242 808 293 763 b 468 874 417 763 468 808 b 354 988 468 940 417 988 b 242 874 293 988 242 940 z m 301 874 b 354 933 301 911 324 933 b 408 874 386 933 408 911 b 354 817 408 839 388 817 b 301 874 324 817 301 839 z "},"ã":{"ha":704,"x_min":0,"x_max":0,"o":"m 293 -19 b 518 111 406 -19 483 38 l 518 43 l 518 0 l 603 0 l 603 447 b 353 688 603 590 513 688 b 90 461 190 688 99 582 l 178 461 b 358 617 183 546 235 617 b 517 478 453 617 517 563 b 422 400 517 426 479 408 l 285 378 b 69 176 164 360 69 299 b 293 -19 69 57 165 -19 z m 156 819 l 228 819 b 278 882 229 857 244 882 b 443 815 332 882 369 815 b 554 944 500 815 553 850 l 483 944 b 435 883 482 907 469 883 b 271 950 378 883 343 950 b 156 819 214 950 158 917 z m 158 176 b 310 313 158 257 221 296 l 429 333 b 517 372 476 342 508 356 l 517 264 b 303 50 517 147 432 50 b 158 176 219 50 158 100 z "},"æ":{"ha":1185,"x_min":0,"x_max":0,"o":"m 292 -19 b 553 150 415 -19 511 47 b 831 -19 601 40 699 -19 b 1114 203 1006 -19 1096 81 l 1026 203 b 829 51 1010 99 932 51 b 603 321 693 51 603 149 l 1118 321 l 1118 340 b 822 688 1118 550 1014 688 b 576 547 717 688 628 633 b 351 688 543 632 468 688 b 90 461 190 688 99 582 l 178 461 b 356 617 183 544 233 617 b 517 475 450 617 517 563 b 421 400 517 426 479 410 l 285 378 b 69 179 165 360 69 300 b 292 -19 69 61 163 -19 z m 158 179 b 311 313 158 257 224 296 l 432 335 b 517 371 471 343 507 353 l 517 264 b 301 50 517 150 429 50 b 158 179 218 50 158 100 z m 606 388 b 824 617 617 518 700 617 b 1026 388 954 617 1024 524 z "},"ǽ":{"ha":1185,"x_min":0,"x_max":0,"o":"m 292 -19 b 553 150 415 -19 511 47 b 831 -19 601 40 699 -19 b 1114 203 1006 -19 1096 81 l 1026 203 b 829 51 1010 99 932 51 b 603 321 693 51 603 149 l 1118 321 l 1118 340 b 822 688 1118 550 1014 688 b 576 547 717 688 628 633 b 351 688 543 632 468 688 b 90 461 190 688 99 582 l 178 461 b 356 617 183 544 233 617 b 517 475 450 617 517 563 b 421 400 517 426 479 410 l 285 378 b 69 179 165 360 69 300 b 292 -19 69 61 163 -19 z m 158 179 b 311 313 158 257 224 296 l 432 335 b 517 371 471 343 507 353 l 517 264 b 301 50 517 150 429 50 b 158 179 218 50 158 100 z m 533 793 l 607 793 l 735 964 l 626 964 z m 606 388 b 824 617 617 518 700 617 b 1026 388 954 617 1024 524 z "},"b":{"ha":804,"x_min":0,"x_max":0,"o":"m 436 -19 b 739 335 615 -19 739 129 b 436 688 739 538 622 688 b 197 549 325 688 242 626 l 197 633 l 197 972 l 111 972 l 111 0 l 197 0 l 197 49 l 197 122 b 436 -19 246 29 339 -19 z m 194 336 b 421 617 194 507 286 617 b 649 335 560 617 649 501 b 424 51 649 165 560 51 b 194 336 286 51 194 165 z "},"c":{"ha":735,"x_min":0,"x_max":0,"o":"m 386 -19 b 679 217 556 -19 664 76 l 593 217 b 390 51 578 114 501 51 b 156 336 247 51 156 167 b 392 617 156 497 247 617 b 586 453 497 617 572 549 l 675 453 b 393 688 660 596 544 688 b 67 336 207 688 67 543 b 386 -19 67 114 207 -19 z "},"ć":{"ha":735,"x_min":0,"x_max":0,"o":"m 386 -19 b 679 217 556 -19 664 76 l 593 217 b 390 51 578 114 501 51 b 156 336 247 51 156 167 b 392 617 156 497 247 617 b 586 453 497 617 572 549 l 675 453 b 393 688 660 596 544 688 b 67 336 207 688 67 543 b 386 -19 67 114 207 -19 z m 344 793 l 418 793 l 546 964 l 438 964 z "},"č":{"ha":735,"x_min":0,"x_max":0,"o":"m 386 -19 b 679 217 556 -19 664 76 l 593 217 b 390 51 578 114 501 51 b 156 336 247 51 156 167 b 392 617 156 497 247 617 b 586 453 497 617 572 549 l 675 453 b 393 688 660 596 544 688 b 67 336 207 688 67 543 b 386 -19 67 114 207 -19 z m 207 964 l 339 803 l 444 803 l 578 964 l 483 964 l 433 904 b 392 857 419 886 406 872 b 351 903 378 871 364 886 l 299 964 z "},"ç":{"ha":735,"x_min":0,"x_max":0,"o":"m 369 -292 b 508 -181 461 -292 508 -242 b 372 -82 508 -117 454 -75 l 413 -18 b 679 217 567 -8 665 83 l 593 217 b 390 51 578 114 501 51 b 156 336 247 51 156 167 b 392 617 156 497 247 617 b 586 453 497 617 572 549 l 675 453 b 393 688 660 596 544 688 b 67 336 207 688 67 543 b 342 -17 67 132 185 3 l 293 -96 l 328 -137 b 372 -131 340 -133 356 -131 b 439 -181 414 -131 439 -151 b 368 -232 439 -214 410 -232 b 267 -187 321 -232 288 -207 l 229 -233 b 369 -292 258 -264 311 -292 z "},"ĉ":{"ha":735,"x_min":0,"x_max":0,"o":"m 386 -19 b 679 217 556 -19 664 76 l 593 217 b 390 51 578 114 501 51 b 156 336 247 51 156 167 b 392 617 156 497 247 617 b 586 453 497 617 572 549 l 675 453 b 393 688 660 596 544 688 b 67 336 207 688 67 543 b 386 -19 67 114 207 -19 z m 207 803 l 299 803 l 351 864 b 392 911 364 879 378 897 b 433 863 406 896 419 879 l 483 803 l 578 803 l 444 964 l 339 964 z "},"ċ":{"ha":735,"x_min":0,"x_max":0,"o":"m 386 -19 b 679 217 556 -19 664 76 l 593 217 b 390 51 578 114 501 51 b 156 336 247 51 156 167 b 392 617 156 497 247 617 b 586 453 497 617 572 549 l 675 453 b 393 688 660 596 544 688 b 67 336 207 688 67 543 b 386 -19 67 114 207 -19 z m 342 797 l 442 797 l 442 936 l 342 936 z "},"d":{"ha":804,"x_min":0,"x_max":0,"o":"m 369 -19 b 606 122 468 -19 560 29 l 606 50 l 606 0 l 693 0 l 693 972 l 606 972 l 606 633 l 606 549 b 372 688 568 624 489 688 b 67 335 189 688 67 538 b 369 -19 67 119 196 -19 z m 156 335 b 385 617 156 503 247 617 b 610 336 522 617 610 506 b 382 51 610 164 518 51 b 156 335 246 51 156 165 z "},"ð":{"ha":774,"x_min":0,"x_max":0,"o":"m 386 -19 b 707 347 575 -19 707 125 b 565 810 707 518 661 681 l 678 843 l 658 911 l 517 869 b 351 999 471 919 415 963 l 282 943 b 418 842 333 913 379 879 l 285 803 l 307 735 l 471 782 b 544 664 500 746 524 707 b 572 596 554 642 565 619 b 382 688 529 657 458 688 b 67 335 197 688 67 542 b 386 -19 67 125 199 -19 z m 156 335 b 386 617 156 503 244 617 b 618 335 528 617 618 503 b 386 51 618 165 529 51 b 156 335 243 51 156 165 z "},"ď":{"ha":868,"x_min":0,"x_max":0,"o":"m 369 -19 b 606 122 468 -19 560 29 l 606 50 l 606 0 l 693 0 l 693 972 l 606 972 l 606 633 l 606 549 b 372 688 568 624 489 688 b 67 335 189 688 67 538 b 369 -19 67 119 196 -19 z m 156 335 b 385 617 156 503 247 617 b 610 336 522 617 610 506 b 382 51 610 164 518 51 b 156 335 246 51 156 165 z m 797 710 b 914 857 869 715 914 757 l 914 972 l 804 972 l 804 856 l 856 856 b 797 763 856 790 838 771 z "},"đ":{"ha":804,"x_min":0,"x_max":0,"o":"m 369 -19 b 606 122 468 -19 560 29 l 606 50 l 606 0 l 693 0 l 693 783 l 797 783 l 797 857 l 693 857 l 693 972 l 606 972 l 606 857 l 346 857 l 346 783 l 606 783 l 606 633 l 606 549 b 372 688 568 624 489 688 b 67 335 189 688 67 538 b 369 -19 67 119 196 -19 z m 156 335 b 385 617 156 503 247 617 b 610 336 522 617 610 506 b 382 51 610 164 518 51 b 156 335 246 51 156 165 z "},"e":{"ha":742,"x_min":0,"x_max":0,"o":"m 383 -19 b 669 203 558 -19 651 81 l 583 203 b 385 51 567 99 486 51 b 153 321 249 51 154 147 l 674 321 l 674 340 b 378 688 674 550 568 688 b 67 338 201 688 67 540 b 383 -19 67 108 193 -19 z m 156 388 b 378 617 167 518 251 617 b 582 388 507 617 581 524 z "},"é":{"ha":742,"x_min":0,"x_max":0,"o":"m 383 -19 b 669 203 558 -19 651 81 l 583 203 b 385 51 567 99 486 51 b 153 321 249 51 154 147 l 674 321 l 674 340 b 378 688 674 550 568 688 b 67 338 201 688 67 540 b 383 -19 67 108 193 -19 z m 156 388 b 378 617 167 518 251 617 b 582 388 507 617 581 524 z m 329 793 l 403 793 l 531 964 l 422 964 z "},"ĕ":{"ha":742,"x_min":0,"x_max":0,"o":"m 383 -19 b 669 203 558 -19 651 81 l 583 203 b 385 51 567 99 486 51 b 153 321 249 51 154 147 l 674 321 l 674 340 b 378 688 674 550 568 688 b 67 338 201 688 67 540 b 383 -19 67 108 193 -19 z m 156 388 b 378 617 167 518 251 617 b 582 388 507 617 581 524 z m 210 964 b 378 797 211 868 274 797 b 546 964 485 797 544 868 l 475 964 b 378 869 469 908 439 869 b 282 964 317 869 285 907 z "},"ě":{"ha":742,"x_min":0,"x_max":0,"o":"m 383 -19 b 669 203 558 -19 651 81 l 583 203 b 385 51 567 99 486 51 b 153 321 249 51 154 147 l 674 321 l 674 340 b 378 688 674 550 568 688 b 67 338 201 688 67 540 b 383 -19 67 108 193 -19 z m 156 388 b 378 617 167 518 251 617 b 582 388 507 617 581 524 z m 193 964 l 325 803 l 431 803 l 564 964 l 469 964 l 419 904 b 378 857 406 886 392 872 b 338 903 364 871 350 886 l 285 964 z "},"ê":{"ha":742,"x_min":0,"x_max":0,"o":"m 383 -19 b 669 203 558 -19 651 81 l 583 203 b 385 51 567 99 486 51 b 153 321 249 51 154 147 l 674 321 l 674 340 b 378 688 674 550 568 688 b 67 338 201 688 67 540 b 383 -19 67 108 193 -19 z m 156 388 b 378 617 167 518 251 617 b 582 388 507 617 581 524 z m 193 803 l 285 803 l 338 864 b 378 911 350 879 364 897 b 419 863 392 896 406 879 l 469 803 l 564 803 l 431 964 l 325 964 z "},"ë":{"ha":742,"x_min":0,"x_max":0,"o":"m 383 -19 b 669 203 558 -19 651 81 l 583 203 b 385 51 567 99 486 51 b 153 321 249 51 154 147 l 674 321 l 674 340 b 378 688 674 550 568 688 b 67 338 201 688 67 540 b 383 -19 67 108 193 -19 z m 156 388 b 378 617 167 518 251 617 b 582 388 507 617 581 524 z m 189 797 l 289 797 l 289 936 l 189 936 z m 467 797 l 565 797 l 565 936 l 467 936 z "},"ė":{"ha":742,"x_min":0,"x_max":0,"o":"m 383 -19 b 669 203 558 -19 651 81 l 583 203 b 385 51 567 99 486 51 b 153 321 249 51 154 147 l 674 321 l 674 340 b 378 688 674 550 568 688 b 67 338 201 688 67 540 b 383 -19 67 108 193 -19 z m 156 388 b 378 617 167 518 251 617 b 582 388 507 617 581 524 z m 328 797 l 428 797 l 428 936 l 328 936 z "},"è":{"ha":742,"x_min":0,"x_max":0,"o":"m 383 -19 b 669 203 558 -19 651 81 l 583 203 b 385 51 567 99 486 51 b 153 321 249 51 154 147 l 674 321 l 674 340 b 378 688 674 550 568 688 b 67 338 201 688 67 540 b 383 -19 67 108 193 -19 z m 156 388 b 378 617 167 518 251 617 b 582 388 507 617 581 524 z m 229 964 l 357 793 l 433 793 l 340 964 z "},"ē":{"ha":742,"x_min":0,"x_max":0,"o":"m 383 -19 b 669 203 558 -19 651 81 l 583 203 b 385 51 567 99 486 51 b 153 321 249 51 154 147 l 674 321 l 674 340 b 378 688 674 550 568 688 b 67 338 201 688 67 540 b 383 -19 67 108 193 -19 z m 156 388 b 378 617 167 518 251 617 b 582 388 507 617 581 524 z m 193 831 l 560 831 l 560 908 l 193 908 z "},"ę":{"ha":742,"x_min":0,"x_max":0,"o":"m 419 -261 b 476 -254 444 -261 463 -258 l 476 -187 b 435 -192 464 -189 451 -192 b 361 -126 396 -192 361 -172 b 479 -8 361 -71 413 -26 b 669 203 592 24 656 104 l 583 203 b 385 51 567 99 486 51 b 153 321 249 51 154 147 l 674 321 l 674 340 b 378 688 674 550 568 688 b 67 338 201 688 67 540 b 360 -19 67 122 178 -10 b 283 -144 313 -49 283 -93 b 419 -261 283 -221 346 -261 z m 156 388 b 378 617 167 518 251 617 b 582 388 507 617 581 524 z "},"f":{"ha":418,"x_min":0,"x_max":0,"o":"m 160 0 l 247 0 l 247 593 l 393 593 l 393 668 l 247 668 l 247 807 b 347 913 247 882 283 913 b 394 907 364 913 381 910 l 394 982 b 329 993 382 986 357 993 b 160 810 235 993 160 931 l 160 668 l 26 668 l 26 593 l 160 593 z "},"g":{"ha":803,"x_min":0,"x_max":0,"o":"m 383 -310 b 692 13 579 -310 692 -200 l 692 668 l 606 668 l 606 618 l 606 549 b 371 688 571 613 501 688 b 67 344 200 688 67 551 b 367 0 67 139 192 0 b 606 142 483 0 571 63 l 606 68 l 606 -12 b 383 -240 606 -165 521 -240 b 185 -69 265 -240 189 -171 l 97 -69 b 383 -310 103 -215 214 -310 z m 157 344 b 383 617 157 508 249 617 b 610 346 521 617 610 501 b 382 71 610 185 521 71 b 157 344 249 71 157 182 z "},"ğ":{"ha":803,"x_min":0,"x_max":0,"o":"m 383 -310 b 692 13 579 -310 692 -200 l 692 668 l 606 668 l 606 618 l 606 549 b 371 688 571 613 501 688 b 67 344 200 688 67 551 b 367 0 67 139 192 0 b 606 142 483 0 571 63 l 606 68 l 606 -12 b 383 -240 606 -165 521 -240 b 185 -69 265 -240 189 -171 l 97 -69 b 383 -310 103 -215 214 -310 z m 157 344 b 383 617 157 508 249 617 b 610 346 521 617 610 501 b 382 71 610 185 521 71 b 157 344 249 71 157 182 z m 232 964 b 400 797 233 868 296 797 b 568 964 507 797 567 868 l 497 964 b 400 869 492 908 461 869 b 304 964 339 869 307 907 z "},"ĝ":{"ha":803,"x_min":0,"x_max":0,"o":"m 383 -310 b 692 13 579 -310 692 -200 l 692 668 l 606 668 l 606 618 l 606 549 b 371 688 571 613 501 688 b 67 344 200 688 67 551 b 367 0 67 139 192 0 b 606 142 483 0 571 63 l 606 68 l 606 -12 b 383 -240 606 -165 521 -240 b 185 -69 265 -240 189 -171 l 97 -69 b 383 -310 103 -215 214 -310 z m 157 344 b 383 617 157 508 249 617 b 610 346 521 617 610 501 b 382 71 610 185 521 71 b 157 344 249 71 157 182 z m 215 803 l 307 803 l 360 864 b 400 911 372 879 386 897 b 442 863 414 896 428 879 l 492 803 l 586 803 l 453 964 l 347 964 z "},"ģ":{"ha":803,"x_min":0,"x_max":0,"o":"m 383 -310 b 692 13 579 -310 692 -200 l 692 668 l 606 668 l 606 618 l 606 549 b 371 688 571 613 501 688 b 67 344 200 688 67 551 b 367 0 67 139 192 0 b 606 142 483 0 571 63 l 606 68 l 606 -12 b 383 -240 606 -165 521 -240 b 185 -69 265 -240 189 -171 l 97 -69 b 383 -310 103 -215 214 -310 z m 157 344 b 383 617 157 508 249 617 b 610 346 521 617 610 501 b 382 71 610 185 521 71 b 157 344 249 71 157 182 z m 346 797 l 456 797 l 456 915 l 403 915 b 463 1007 403 979 422 1000 l 463 1061 b 346 913 390 1056 346 1013 z "},"ġ":{"ha":803,"x_min":0,"x_max":0,"o":"m 383 -310 b 692 13 579 -310 692 -200 l 692 668 l 606 668 l 606 618 l 606 549 b 371 688 571 613 501 688 b 67 344 200 688 67 551 b 367 0 67 139 192 0 b 606 142 483 0 571 63 l 606 68 l 606 -12 b 383 -240 606 -165 521 -240 b 185 -69 265 -240 189 -171 l 97 -69 b 383 -310 103 -215 214 -310 z m 157 344 b 383 617 157 508 249 617 b 610 346 521 617 610 501 b 382 71 610 185 521 71 b 157 344 249 71 157 182 z m 350 797 l 450 797 l 450 936 l 350 936 z "},"h":{"ha":768,"x_min":0,"x_max":0,"o":"m 111 0 l 199 0 l 199 389 b 408 617 199 507 282 617 b 578 410 532 617 578 536 l 578 0 l 665 0 l 665 418 b 425 688 665 590 572 688 b 199 549 315 688 236 621 l 199 615 l 199 972 l 111 972 z "},"ħ":{"ha":768,"x_min":0,"x_max":0,"o":"m 111 0 l 199 0 l 199 389 b 408 617 199 507 282 617 b 578 410 532 617 578 536 l 578 0 l 665 0 l 665 418 b 425 688 665 590 572 688 b 199 549 315 688 236 621 l 199 615 l 199 783 l 456 783 l 456 857 l 199 857 l 199 972 l 111 972 l 111 857 l 4 857 l 4 783 l 111 783 z "},"ĥ":{"ha":768,"x_min":0,"x_max":0,"o":"m 111 0 l 199 0 l 199 389 b 408 617 199 507 282 617 b 578 410 532 617 578 536 l 578 0 l 665 0 l 665 418 b 425 688 665 590 572 688 b 199 549 315 688 236 621 l 199 615 l 199 972 l 111 972 z m -29 1107 l 63 1107 l 115 1168 b 156 1215 128 1183 142 1201 b 197 1167 169 1200 183 1183 l 247 1107 l 342 1107 l 208 1268 l 103 1268 z "},"i":{"ha":310,"x_min":0,"x_max":0,"o":"m 111 0 l 199 0 l 199 668 l 111 668 z m 104 797 l 204 797 l 204 936 l 104 936 z "},"ı":{"ha":310,"x_min":0,"x_max":0,"o":"m 111 0 l 199 0 l 199 668 l 111 668 z "},"í":{"ha":310,"x_min":0,"x_max":0,"o":"m 111 0 l 199 0 l 199 668 l 111 668 z m 107 793 l 181 793 l 308 964 l 200 964 z "},"ĭ":{"ha":310,"x_min":0,"x_max":0,"o":"m 111 0 l 199 0 l 199 668 l 111 668 z m -12 964 b 156 797 -11 868 51 797 b 324 964 263 797 322 868 l 253 964 b 156 869 247 908 217 869 b 60 964 94 869 63 907 z "},"î":{"ha":310,"x_min":0,"x_max":0,"o":"m 111 0 l 199 0 l 199 668 l 111 668 z m -29 803 l 63 803 l 115 864 b 156 911 128 879 142 897 b 197 863 169 896 183 879 l 247 803 l 342 803 l 208 964 l 103 964 z "},"ï":{"ha":310,"x_min":0,"x_max":0,"o":"m 111 0 l 199 0 l 199 668 l 111 668 z m -33 797 l 67 797 l 67 936 l -33 936 z m 244 797 l 343 797 l 343 936 l 244 936 z "},"ì":{"ha":310,"x_min":0,"x_max":0,"o":"m 111 0 l 199 0 l 199 668 l 111 668 z m 6 964 l 133 793 l 210 793 l 117 964 z "},"ĳ":{"ha":628,"x_min":0,"x_max":0,"o":"m 111 0 l 199 0 l 199 668 l 111 668 z m 104 797 l 204 797 l 204 936 l 104 936 z m 289 -303 b 351 -310 310 -308 331 -310 b 518 -146 475 -310 518 -226 l 518 668 l 431 668 l 431 -128 b 333 -232 431 -201 397 -232 b 289 -225 317 -232 301 -229 z m 422 797 l 522 797 l 522 936 l 422 936 z "},"ī":{"ha":310,"x_min":0,"x_max":0,"o":"m 111 0 l 199 0 l 199 668 l 111 668 z m -29 831 l 338 831 l 338 908 l -29 908 z "},"į":{"ha":310,"x_min":0,"x_max":0,"o":"m 111 668 l 111 1 b 3 -144 47 -32 3 -81 b 139 -261 3 -221 65 -261 b 196 -254 163 -261 181 -258 l 196 -187 b 154 -192 183 -189 169 -192 b 81 -128 115 -192 81 -172 b 199 0 81 -72 136 -29 l 199 668 z m 104 797 l 204 797 l 204 936 l 104 936 z "},"ĩ":{"ha":310,"x_min":0,"x_max":0,"o":"m 111 0 l 199 0 l 199 668 l 111 668 z m -44 819 l 28 819 b 78 882 29 857 44 882 b 243 815 132 882 169 815 b 354 944 300 815 353 850 l 283 944 b 235 883 282 907 269 883 b 71 950 178 883 143 950 b -44 819 14 950 -42 917 z "},"j":{"ha":318,"x_min":0,"x_max":0,"o":"m 42 -310 b 208 -146 165 -310 208 -226 l 208 668 l 121 668 l 121 -128 b 24 -232 121 -201 88 -232 b -21 -225 7 -232 -8 -229 l -21 -303 b 42 -310 0 -308 21 -310 z m 113 797 l 213 797 l 213 936 l 113 936 z "},"ȷ":{"ha":318,"x_min":0,"x_max":0,"o":"m 42 -310 b 208 -146 165 -310 208 -226 l 208 668 l 121 668 l 121 -128 b 24 -232 121 -201 88 -232 b -21 -225 7 -232 -8 -229 l -21 -303 b 42 -310 0 -308 21 -310 z "},"ĵ":{"ha":318,"x_min":0,"x_max":0,"o":"m 42 -310 b 208 -146 165 -310 208 -226 l 208 668 l 121 668 l 121 -128 b 24 -232 121 -201 88 -232 b -21 -225 7 -232 -8 -229 l -21 -303 b 42 -310 0 -308 21 -310 z m -21 803 l 71 803 l 124 864 b 164 911 136 879 150 897 b 206 863 178 896 192 879 l 256 803 l 350 803 l 217 964 l 111 964 z "},"k":{"ha":678,"x_min":0,"x_max":0,"o":"m 111 0 l 199 0 l 199 258 l 272 328 l 567 0 l 686 0 l 333 385 l 635 668 l 524 668 l 264 421 b 199 358 242 400 218 379 l 199 972 l 111 972 z "},"ķ":{"ha":678,"x_min":0,"x_max":0,"o":"m 111 0 l 199 0 l 199 258 l 272 328 l 567 0 l 686 0 l 333 385 l 635 668 l 524 668 l 264 421 b 199 358 242 400 218 379 l 199 972 l 111 972 z m 306 -381 b 422 -232 378 -375 422 -332 l 422 -117 l 313 -117 l 313 -235 l 365 -235 b 306 -326 365 -299 346 -319 z "},"l":{"ha":310,"x_min":0,"x_max":0,"o":"m 111 0 l 199 0 l 199 972 l 111 972 z "},"ĺ":{"ha":310,"x_min":0,"x_max":0,"o":"m 111 0 l 199 0 l 199 972 l 111 972 z m 107 1097 l 181 1097 l 308 1268 l 200 1268 z "},"ľ":{"ha":374,"x_min":0,"x_max":0,"o":"m 111 0 l 199 0 l 199 972 l 111 972 z m 303 708 b 419 857 375 714 419 757 l 419 972 l 310 972 l 310 854 l 363 854 b 303 763 363 790 343 769 z "},"ļ":{"ha":310,"x_min":0,"x_max":0,"o":"m 111 0 l 199 0 l 199 972 l 111 972 z m 94 -381 b 211 -232 167 -375 211 -332 l 211 -117 l 101 -117 l 101 -235 l 154 -235 b 94 -326 154 -299 135 -319 z "},"ŀ":{"ha":482,"x_min":0,"x_max":0,"o":"m 111 0 l 199 0 l 199 972 l 111 972 z m 335 429 l 456 429 l 456 567 l 335 567 z "},"ł":{"ha":432,"x_min":0,"x_max":0,"o":"m 175 0 l 263 0 l 263 476 l 392 533 l 392 617 l 263 560 l 263 972 l 175 972 l 175 522 l 50 467 l 50 383 l 175 439 z "},"m":{"ha":1165,"x_min":0,"x_max":0,"o":"m 111 0 l 199 0 l 199 378 b 393 617 199 500 272 617 b 543 413 503 617 543 539 l 543 0 l 631 0 l 631 389 b 822 617 631 507 704 617 b 976 407 935 617 976 535 l 976 0 l 1064 0 l 1064 425 b 839 688 1064 603 965 688 b 613 535 732 688 656 624 b 413 688 582 642 500 688 b 199 549 306 688 236 622 l 199 607 l 199 668 l 111 668 z "},"n":{"ha":768,"x_min":0,"x_max":0,"o":"m 111 0 l 199 0 l 199 389 b 411 617 199 508 283 617 b 578 410 533 617 578 536 l 578 0 l 665 0 l 665 419 b 425 688 665 594 568 688 b 197 549 314 688 235 618 l 197 608 l 197 668 l 111 668 z "},"ń":{"ha":768,"x_min":0,"x_max":0,"o":"m 111 0 l 199 0 l 199 389 b 411 617 199 508 283 617 b 578 410 533 617 578 536 l 578 0 l 665 0 l 665 419 b 425 688 665 594 568 688 b 197 549 314 688 235 618 l 197 608 l 197 668 l 111 668 z m 347 793 l 421 793 l 549 964 l 440 964 z "},"ň":{"ha":768,"x_min":0,"x_max":0,"o":"m 111 0 l 199 0 l 199 389 b 411 617 199 508 283 617 b 578 410 533 617 578 536 l 578 0 l 665 0 l 665 419 b 425 688 665 594 568 688 b 197 549 314 688 235 618 l 197 608 l 197 668 l 111 668 z m 210 964 l 342 803 l 447 803 l 581 964 l 486 964 l 436 904 b 394 857 422 886 408 872 b 354 903 381 871 367 886 l 301 964 z "},"ņ":{"ha":768,"x_min":0,"x_max":0,"o":"m 111 0 l 199 0 l 199 389 b 411 617 199 508 283 617 b 578 410 533 617 578 536 l 578 0 l 665 0 l 665 419 b 425 688 665 594 568 688 b 197 549 314 688 235 618 l 197 608 l 197 668 l 111 668 z m 328 -381 b 444 -232 400 -375 444 -332 l 444 -117 l 335 -117 l 335 -235 l 388 -235 b 328 -326 388 -299 368 -319 z "},"ŋ":{"ha":768,"x_min":0,"x_max":0,"o":"m 111 0 l 199 0 l 199 389 b 411 617 199 508 283 617 b 578 410 533 617 578 536 l 578 -119 b 482 -226 578 -193 544 -226 b 417 -217 460 -226 436 -222 l 417 -299 b 499 -310 443 -306 469 -310 b 665 -149 624 -310 665 -222 l 665 419 b 425 688 665 594 568 688 b 197 549 314 688 235 618 l 197 608 l 197 668 l 111 668 z "},"ñ":{"ha":768,"x_min":0,"x_max":0,"o":"m 111 0 l 199 0 l 199 389 b 411 617 199 508 283 617 b 578 410 533 617 578 536 l 578 0 l 665 0 l 665 419 b 425 688 665 594 568 688 b 197 549 314 688 235 618 l 197 608 l 197 668 l 111 668 z m 196 819 l 268 819 b 318 882 269 857 285 882 b 483 815 372 882 410 815 b 594 944 540 815 593 850 l 524 944 b 475 883 522 907 510 883 b 311 950 418 883 383 950 b 196 819 254 950 199 917 z "},"o":{"ha":774,"x_min":0,"x_max":0,"o":"m 386 -19 b 707 335 574 -19 707 125 b 386 688 707 542 574 688 b 67 335 199 688 67 542 b 386 -19 67 125 199 -19 z m 156 335 b 386 617 156 503 244 617 b 618 335 528 617 618 503 b 386 51 618 165 529 51 b 156 335 243 51 156 165 z "},"ó":{"ha":774,"x_min":0,"x_max":0,"o":"m 386 -19 b 707 335 574 -19 707 125 b 386 688 707 542 574 688 b 67 335 199 688 67 542 b 386 -19 67 125 199 -19 z m 156 335 b 386 617 156 503 244 617 b 618 335 528 617 618 503 b 386 51 618 165 529 51 b 156 335 243 51 156 165 z m 338 793 l 411 793 l 539 964 l 431 964 z "},"ŏ":{"ha":774,"x_min":0,"x_max":0,"o":"m 386 -19 b 707 335 574 -19 707 125 b 386 688 707 542 574 688 b 67 335 199 688 67 542 b 386 -19 67 125 199 -19 z m 156 335 b 386 617 156 503 244 617 b 618 335 528 617 618 503 b 386 51 618 165 529 51 b 156 335 243 51 156 165 z m 218 964 b 386 797 219 868 282 797 b 554 964 493 797 553 868 l 483 964 b 386 869 478 908 447 869 b 290 964 325 869 293 907 z "},"ô":{"ha":774,"x_min":0,"x_max":0,"o":"m 386 -19 b 707 335 574 -19 707 125 b 386 688 707 542 574 688 b 67 335 199 688 67 542 b 386 -19 67 125 199 -19 z m 156 335 b 386 617 156 503 244 617 b 618 335 528 617 618 503 b 386 51 618 165 529 51 b 156 335 243 51 156 165 z m 201 803 l 293 803 l 346 864 b 386 911 358 879 372 897 b 428 863 400 896 414 879 l 478 803 l 572 803 l 439 964 l 333 964 z "},"ö":{"ha":774,"x_min":0,"x_max":0,"o":"m 386 -19 b 707 335 574 -19 707 125 b 386 688 707 542 574 688 b 67 335 199 688 67 542 b 386 -19 67 125 199 -19 z m 156 335 b 386 617 156 503 244 617 b 618 335 528 617 618 503 b 386 51 618 165 529 51 b 156 335 243 51 156 165 z m 197 797 l 297 797 l 297 936 l 197 936 z m 475 797 l 574 797 l 574 936 l 475 936 z "},"ò":{"ha":774,"x_min":0,"x_max":0,"o":"m 386 -19 b 707 335 574 -19 707 125 b 386 688 707 542 574 688 b 67 335 199 688 67 542 b 386 -19 67 125 199 -19 z m 156 335 b 386 617 156 503 244 617 b 618 335 528 617 618 503 b 386 51 618 165 529 51 b 156 335 243 51 156 165 z m 238 964 l 365 793 l 442 793 l 349 964 z "},"ő":{"ha":774,"x_min":0,"x_max":0,"o":"m 386 -19 b 707 335 574 -19 707 125 b 386 688 707 542 574 688 b 67 335 199 688 67 542 b 386 -19 67 125 199 -19 z m 156 335 b 386 617 156 503 244 617 b 618 335 528 617 618 503 b 386 51 618 165 529 51 b 156 335 243 51 156 165 z m 240 793 l 303 793 l 399 964 l 300 964 z m 453 793 l 518 793 l 619 964 l 519 964 z "},"ō":{"ha":774,"x_min":0,"x_max":0,"o":"m 386 -19 b 707 335 574 -19 707 125 b 386 688 707 542 574 688 b 67 335 199 688 67 542 b 386 -19 67 125 199 -19 z m 156 335 b 386 617 156 503 244 617 b 618 335 528 617 618 503 b 386 51 618 165 529 51 b 156 335 243 51 156 165 z m 201 831 l 568 831 l 568 908 l 201 908 z "},"ø":{"ha":774,"x_min":0,"x_max":0,"o":"m 386 -19 b 707 335 574 -19 707 125 b 622 582 707 435 676 521 l 688 667 l 631 711 l 569 632 b 386 688 518 667 456 688 b 67 335 199 688 67 542 b 149 88 67 235 97 150 l 83 4 l 140 -40 l 201 39 b 386 -19 253 1 315 -19 z m 156 335 b 386 617 156 503 244 617 b 522 571 439 617 486 600 l 200 154 b 156 335 171 201 156 264 z m 247 99 l 571 517 b 618 335 601 469 618 407 b 386 51 618 165 529 51 b 247 99 331 51 285 68 z "},"ǿ":{"ha":774,"x_min":0,"x_max":0,"o":"m 386 -19 b 707 335 574 -19 707 125 b 622 582 707 435 676 521 l 688 667 l 631 711 l 569 632 b 386 688 518 667 456 688 b 67 335 199 688 67 542 b 149 88 67 235 97 150 l 83 4 l 140 -40 l 201 39 b 386 -19 253 1 315 -19 z m 156 335 b 386 617 156 503 244 617 b 522 571 439 617 486 600 l 200 154 b 156 335 171 201 156 264 z m 247 99 l 571 517 b 618 335 601 469 618 407 b 386 51 618 165 529 51 b 247 99 331 51 285 68 z m 338 793 l 411 793 l 539 964 l 431 964 z "},"õ":{"ha":774,"x_min":0,"x_max":0,"o":"m 386 -19 b 707 335 574 -19 707 125 b 386 688 707 542 574 688 b 67 335 199 688 67 542 b 386 -19 67 125 199 -19 z m 156 335 b 386 617 156 503 244 617 b 618 335 528 617 618 503 b 386 51 618 165 529 51 b 156 335 243 51 156 165 z m 188 819 l 260 819 b 310 882 261 857 276 882 b 475 815 364 882 401 815 b 586 944 532 815 585 850 l 515 944 b 467 883 514 907 501 883 b 303 950 410 883 375 950 b 188 819 246 950 190 917 z "},"œ":{"ha":1283,"x_min":0,"x_max":0,"o":"m 385 -19 b 654 144 506 -19 603 43 b 929 -19 704 38 801 -19 b 1213 203 1101 -19 1194 81 l 1125 203 b 929 51 1108 99 1029 51 b 701 321 796 51 703 149 l 1217 321 l 1217 340 b 921 688 1217 550 1110 688 b 657 518 806 688 707 622 b 385 688 606 624 508 688 b 67 335 197 688 67 543 b 385 -19 67 124 197 -19 z m 156 335 b 385 617 156 503 244 617 b 613 335 522 617 613 503 b 385 51 613 167 524 51 b 156 335 243 51 156 167 z m 704 388 b 922 617 715 518 800 617 b 1125 388 1050 617 1122 524 z "},"p":{"ha":806,"x_min":0,"x_max":0,"o":"m 111 -290 l 199 -290 l 199 49 l 199 122 b 436 -19 247 28 338 -19 b 739 336 615 -19 739 129 b 436 688 739 538 624 688 b 199 547 328 688 240 628 l 199 626 l 199 668 l 111 668 z m 194 336 b 422 617 194 506 288 617 b 649 336 560 617 649 503 b 424 51 649 167 560 51 b 194 336 286 51 194 165 z "},"þ":{"ha":804,"x_min":0,"x_max":0,"o":"m 111 -290 l 197 -290 l 197 49 l 197 122 b 435 -19 243 26 338 -19 b 739 336 614 -19 739 129 b 435 688 739 538 622 688 b 197 547 326 688 239 626 l 197 626 l 197 972 l 111 972 z m 194 336 b 421 617 194 506 288 617 b 649 336 558 617 649 503 b 422 51 649 167 560 51 b 194 336 286 51 194 165 z "},"q":{"ha":811,"x_min":0,"x_max":0,"o":"m 607 -290 l 839 -290 l 839 -218 l 694 -218 l 694 668 l 610 668 l 610 636 l 610 549 b 374 688 569 628 486 688 b 67 335 188 688 67 536 b 372 -19 67 119 192 -19 b 607 122 468 -19 560 25 l 607 49 z m 156 335 b 385 617 156 503 247 617 b 610 335 522 617 610 506 b 382 51 610 163 518 51 b 156 335 246 51 156 164 z "},"r":{"ha":478,"x_min":0,"x_max":0,"o":"m 111 0 l 199 0 l 199 360 b 418 604 199 510 286 604 b 460 601 435 604 449 603 l 460 685 b 422 688 449 686 436 688 b 199 536 314 688 235 621 l 199 625 l 199 668 l 111 668 z "},"ŕ":{"ha":478,"x_min":0,"x_max":0,"o":"m 111 0 l 199 0 l 199 360 b 418 604 199 510 286 604 b 460 601 435 604 449 603 l 460 685 b 422 688 449 686 436 688 b 199 536 314 688 235 621 l 199 625 l 199 668 l 111 668 z m 231 793 l 304 793 l 432 964 l 324 964 z "},"ř":{"ha":478,"x_min":0,"x_max":0,"o":"m 111 0 l 199 0 l 199 360 b 418 604 199 510 286 604 b 460 601 435 604 449 603 l 460 685 b 422 688 449 686 436 688 b 199 536 314 688 235 621 l 199 625 l 199 668 l 111 668 z m 94 964 l 226 803 l 332 803 l 465 964 l 371 964 l 321 904 b 279 857 307 886 293 872 b 239 903 265 871 251 886 l 186 964 z "},"ŗ":{"ha":478,"x_min":0,"x_max":0,"o":"m 111 0 l 199 0 l 199 360 b 418 604 199 510 286 604 b 460 601 435 604 449 603 l 460 685 b 422 688 449 686 436 688 b 199 536 314 688 235 621 l 199 625 l 199 668 l 111 668 z m 94 -381 b 211 -232 167 -375 211 -332 l 211 -117 l 101 -117 l 101 -235 l 154 -235 b 94 -326 154 -299 135 -319 z "},"s":{"ha":667,"x_min":0,"x_max":0,"o":"m 339 -19 b 603 188 501 -19 603 69 b 407 371 603 292 526 349 l 301 392 b 165 501 224 407 165 433 b 322 617 165 571 228 617 b 500 481 425 617 490 564 l 586 481 b 326 688 575 610 481 688 b 78 497 181 688 78 606 b 278 315 78 399 154 339 l 376 296 b 517 181 464 279 517 249 b 339 51 517 101 449 51 b 142 213 218 51 147 115 l 57 213 b 339 -19 64 74 167 -19 z "},"ś":{"ha":667,"x_min":0,"x_max":0,"o":"m 339 -19 b 603 188 501 -19 603 69 b 407 371 603 292 526 349 l 301 392 b 165 501 224 407 165 433 b 322 617 165 571 228 617 b 500 481 425 617 490 564 l 586 481 b 326 688 575 610 481 688 b 78 497 181 688 78 606 b 278 315 78 399 154 339 l 376 296 b 517 181 464 279 517 249 b 339 51 517 101 449 51 b 142 213 218 51 147 115 l 57 213 b 339 -19 64 74 167 -19 z m 279 793 l 353 793 l 481 964 l 372 964 z "},"š":{"ha":667,"x_min":0,"x_max":0,"o":"m 339 -19 b 603 188 501 -19 603 69 b 407 371 603 292 526 349 l 301 392 b 165 501 224 407 165 433 b 322 617 165 571 228 617 b 500 481 425 617 490 564 l 586 481 b 326 688 575 610 481 688 b 78 497 181 688 78 606 b 278 315 78 399 154 339 l 376 296 b 517 181 464 279 517 249 b 339 51 517 101 449 51 b 142 213 218 51 147 115 l 57 213 b 339 -19 64 74 167 -19 z m 143 964 l 275 803 l 381 803 l 514 964 l 419 964 l 369 904 b 328 857 356 886 342 872 b 288 903 314 871 300 886 l 235 964 z "},"ş":{"ha":667,"x_min":0,"x_max":0,"o":"m 331 -292 b 469 -181 422 -292 469 -242 b 333 -82 469 -117 415 -75 l 375 -18 b 603 188 517 -6 603 78 b 407 371 603 292 526 349 l 301 392 b 165 501 224 407 165 433 b 322 617 165 571 228 617 b 500 481 425 617 490 564 l 586 481 b 326 688 575 610 481 688 b 78 497 181 688 78 606 b 278 315 78 399 154 339 l 376 296 b 517 181 464 279 517 249 b 339 51 517 101 449 51 b 142 213 218 51 147 115 l 57 213 b 303 -18 64 83 153 -6 l 254 -96 l 289 -137 b 333 -131 301 -133 317 -131 b 400 -181 375 -131 400 -151 b 329 -232 400 -214 371 -232 b 228 -187 282 -232 249 -207 l 190 -233 b 331 -292 219 -264 272 -292 z "},"ŝ":{"ha":667,"x_min":0,"x_max":0,"o":"m 339 -19 b 603 188 501 -19 603 69 b 407 371 603 292 526 349 l 301 392 b 165 501 224 407 165 433 b 322 617 165 571 228 617 b 500 481 425 617 490 564 l 586 481 b 326 688 575 610 481 688 b 78 497 181 688 78 606 b 278 315 78 399 154 339 l 376 296 b 517 181 464 279 517 249 b 339 51 517 101 449 51 b 142 213 218 51 147 115 l 57 213 b 339 -19 64 74 167 -19 z m 143 803 l 235 803 l 288 864 b 328 911 300 879 314 897 b 369 863 342 896 356 879 l 419 803 l 514 803 l 381 964 l 275 964 z "},"ș":{"ha":667,"x_min":0,"x_max":0,"o":"m 339 -19 b 603 188 501 -19 603 69 b 407 371 603 292 526 349 l 301 392 b 165 501 224 407 165 433 b 322 617 165 571 228 617 b 500 481 425 617 490 564 l 586 481 b 326 688 575 610 481 688 b 78 497 181 688 78 606 b 278 315 78 399 154 339 l 376 296 b 517 181 464 279 517 249 b 339 51 517 101 449 51 b 142 213 218 51 147 115 l 57 213 b 339 -19 64 74 167 -19 z m 289 -381 b 406 -232 361 -375 406 -332 l 406 -117 l 296 -117 l 296 -235 l 349 -235 b 289 -326 349 -299 329 -319 z "},"ß":{"ha":810,"x_min":0,"x_max":0,"o":"m 432 -15 b 743 257 614 -15 743 88 b 544 501 743 382 664 469 b 732 738 660 538 732 631 b 433 993 732 897 604 993 b 111 674 233 993 111 860 l 111 0 l 197 0 l 197 671 b 435 921 197 821 288 921 b 642 731 561 921 642 847 b 433 536 642 611 544 536 l 353 536 l 353 465 l 426 465 b 654 258 553 465 654 392 b 428 64 654 132 558 64 b 329 75 390 64 351 69 l 329 -4 b 432 -15 353 -10 396 -15 z "},"t":{"ha":436,"x_min":0,"x_max":0,"o":"m 326 -12 b 400 -3 353 -12 378 -8 l 400 72 b 346 65 382 68 365 65 b 244 167 286 65 244 90 l 244 593 l 390 593 l 390 668 l 244 668 l 244 881 l 157 881 l 157 668 l 25 668 l 25 593 l 157 593 l 157 160 b 326 -12 157 32 235 -12 z "},"ŧ":{"ha":446,"x_min":0,"x_max":0,"o":"m 333 -12 b 407 -3 360 -12 385 -8 l 407 72 b 353 65 389 68 372 65 b 251 167 293 65 251 90 l 251 332 l 367 332 l 367 406 l 251 406 l 251 593 l 397 593 l 397 668 l 251 668 l 251 881 l 164 881 l 164 668 l 32 668 l 32 593 l 164 593 l 164 406 l 49 406 l 49 332 l 164 332 l 164 160 b 333 -12 164 32 242 -12 z "},"ť":{"ha":436,"x_min":0,"x_max":0,"o":"m 326 -12 b 400 -3 353 -12 378 -8 l 400 72 b 346 65 382 68 365 65 b 244 167 286 65 244 90 l 244 593 l 390 593 l 390 668 l 244 668 l 244 881 l 157 881 l 157 668 l 25 668 l 25 593 l 157 593 l 157 160 b 326 -12 157 32 235 -12 z m 306 726 b 422 872 369 738 422 781 l 422 972 l 311 972 l 311 868 l 365 868 b 306 778 365 814 344 788 z "},"ţ":{"ha":436,"x_min":0,"x_max":0,"o":"m 326 -12 b 400 -3 353 -12 378 -8 l 400 72 b 346 65 382 68 365 65 b 244 167 286 65 244 90 l 244 593 l 390 593 l 390 668 l 244 668 l 244 881 l 157 881 l 157 668 l 25 668 l 25 593 l 157 593 l 157 160 b 242 4 157 74 192 26 l 181 -96 l 215 -137 b 260 -131 228 -133 243 -131 b 326 -181 301 -131 326 -151 b 256 -232 326 -214 297 -232 b 154 -187 208 -232 175 -207 l 117 -233 b 257 -292 146 -264 199 -292 b 396 -181 349 -292 396 -242 b 260 -82 396 -117 342 -75 l 306 -11 b 326 -12 313 -12 319 -12 z "},"ț":{"ha":436,"x_min":0,"x_max":0,"o":"m 326 -12 b 400 -3 353 -12 378 -8 l 400 72 b 346 65 382 68 365 65 b 244 167 286 65 244 90 l 244 593 l 390 593 l 390 668 l 244 668 l 244 881 l 157 881 l 157 668 l 25 668 l 25 593 l 157 593 l 157 160 b 326 -12 157 32 235 -12 z m 217 -381 b 333 -232 289 -375 333 -332 l 333 -117 l 224 -117 l 224 -235 l 276 -235 b 217 -326 276 -299 257 -319 z "},"u":{"ha":754,"x_min":0,"x_max":0,"o":"m 338 -19 b 558 122 444 -19 524 44 l 558 47 l 558 0 l 643 0 l 643 668 l 557 668 l 557 306 b 356 51 557 164 483 51 b 189 260 233 51 189 132 l 189 668 l 101 668 l 101 244 b 338 -19 101 71 192 -19 z "},"ú":{"ha":754,"x_min":0,"x_max":0,"o":"m 338 -19 b 558 122 444 -19 524 44 l 558 47 l 558 0 l 643 0 l 643 668 l 557 668 l 557 306 b 356 51 557 164 483 51 b 189 260 233 51 189 132 l 189 668 l 101 668 l 101 244 b 338 -19 101 71 192 -19 z m 332 793 l 406 793 l 533 964 l 425 964 z "},"ŭ":{"ha":754,"x_min":0,"x_max":0,"o":"m 338 -19 b 558 122 444 -19 524 44 l 558 47 l 558 0 l 643 0 l 643 668 l 557 668 l 557 306 b 356 51 557 164 483 51 b 189 260 233 51 189 132 l 189 668 l 101 668 l 101 244 b 338 -19 101 71 192 -19 z m 213 964 b 381 797 214 868 276 797 b 549 964 488 797 547 868 l 478 964 b 381 869 472 908 442 869 b 285 964 319 869 288 907 z "},"û":{"ha":754,"x_min":0,"x_max":0,"o":"m 338 -19 b 558 122 444 -19 524 44 l 558 47 l 558 0 l 643 0 l 643 668 l 557 668 l 557 306 b 356 51 557 164 483 51 b 189 260 233 51 189 132 l 189 668 l 101 668 l 101 244 b 338 -19 101 71 192 -19 z m 196 803 l 288 803 l 340 864 b 381 911 353 879 367 897 b 422 863 394 896 408 879 l 472 803 l 567 803 l 433 964 l 328 964 z "},"ü":{"ha":754,"x_min":0,"x_max":0,"o":"m 338 -19 b 558 122 444 -19 524 44 l 558 47 l 558 0 l 643 0 l 643 668 l 557 668 l 557 306 b 356 51 557 164 483 51 b 189 260 233 51 189 132 l 189 668 l 101 668 l 101 244 b 338 -19 101 71 192 -19 z m 192 797 l 292 797 l 292 936 l 192 936 z m 469 797 l 568 797 l 568 936 l 469 936 z "},"ù":{"ha":754,"x_min":0,"x_max":0,"o":"m 338 -19 b 558 122 444 -19 524 44 l 558 47 l 558 0 l 643 0 l 643 668 l 557 668 l 557 306 b 356 51 557 164 483 51 b 189 260 233 51 189 132 l 189 668 l 101 668 l 101 244 b 338 -19 101 71 192 -19 z m 231 964 l 358 793 l 435 793 l 342 964 z "},"ű":{"ha":754,"x_min":0,"x_max":0,"o":"m 338 -19 b 558 122 444 -19 524 44 l 558 47 l 558 0 l 643 0 l 643 668 l 557 668 l 557 306 b 356 51 557 164 483 51 b 189 260 233 51 189 132 l 189 668 l 101 668 l 101 244 b 338 -19 101 71 192 -19 z m 233 793 l 296 793 l 392 964 l 293 964 z m 446 793 l 511 793 l 613 964 l 513 964 z "},"ū":{"ha":754,"x_min":0,"x_max":0,"o":"m 338 -19 b 558 122 444 -19 524 44 l 558 47 l 558 0 l 643 0 l 643 668 l 557 668 l 557 306 b 356 51 557 164 483 51 b 189 260 233 51 189 132 l 189 668 l 101 668 l 101 244 b 338 -19 101 71 192 -19 z m 196 831 l 563 831 l 563 908 l 196 908 z "},"ų":{"ha":754,"x_min":0,"x_max":0,"o":"m 338 -19 b 558 122 444 -19 524 44 l 558 47 l 558 3 b 447 -144 493 -31 447 -79 b 583 -261 447 -221 510 -261 b 640 -254 607 -261 625 -258 l 640 -187 b 599 -192 628 -189 614 -192 b 525 -128 560 -192 525 -172 b 643 0 525 -72 581 -29 l 643 668 l 557 668 l 557 306 b 356 51 557 164 483 51 b 189 260 233 51 189 132 l 189 668 l 101 668 l 101 244 b 338 -19 101 71 192 -19 z "},"ů":{"ha":754,"x_min":0,"x_max":0,"o":"m 338 -19 b 558 122 444 -19 524 44 l 558 47 l 558 0 l 643 0 l 643 668 l 557 668 l 557 306 b 356 51 557 164 483 51 b 189 260 233 51 189 132 l 189 668 l 101 668 l 101 244 b 338 -19 101 71 192 -19 z m 267 874 b 379 763 267 808 318 763 b 493 874 442 763 493 808 b 379 988 493 940 442 988 b 267 874 318 988 267 940 z m 326 874 b 379 933 326 911 349 933 b 433 874 411 933 433 911 b 379 817 433 839 413 817 b 326 874 349 817 326 839 z "},"ũ":{"ha":754,"x_min":0,"x_max":0,"o":"m 338 -19 b 558 122 444 -19 524 44 l 558 47 l 558 0 l 643 0 l 643 668 l 557 668 l 557 306 b 356 51 557 164 483 51 b 189 260 233 51 189 132 l 189 668 l 101 668 l 101 244 b 338 -19 101 71 192 -19 z m 181 819 l 253 819 b 303 882 254 857 269 882 b 468 815 357 882 394 815 b 579 944 525 815 578 850 l 508 944 b 460 883 507 907 494 883 b 296 950 403 883 368 950 b 181 819 239 950 183 917 z "},"v":{"ha":664,"x_min":0,"x_max":0,"o":"m 285 0 l 378 0 l 639 668 l 547 668 l 382 214 b 333 92 364 169 350 131 b 288 214 318 131 306 168 l 122 668 l 26 668 z "},"w":{"ha":1060,"x_min":0,"x_max":0,"o":"m 249 0 l 347 0 l 508 508 b 531 575 517 532 522 551 b 553 507 538 551 544 531 l 714 0 l 814 0 l 1032 668 l 943 668 l 792 171 b 768 99 782 146 775 121 b 744 169 760 121 753 146 l 583 668 l 478 668 l 324 169 b 300 96 315 144 307 121 b 275 171 292 119 285 143 l 119 668 l 26 668 z "},"ẃ":{"ha":1060,"x_min":0,"x_max":0,"o":"m 249 0 l 347 0 l 508 508 b 531 575 517 532 522 551 b 553 507 538 551 544 531 l 714 0 l 814 0 l 1032 668 l 943 668 l 792 171 b 768 99 782 146 775 121 b 744 169 760 121 753 146 l 583 668 l 478 668 l 324 169 b 300 96 315 144 307 121 b 275 171 292 119 285 143 l 119 668 l 26 668 z m 482 793 l 556 793 l 683 964 l 575 964 z "},"ŵ":{"ha":1060,"x_min":0,"x_max":0,"o":"m 249 0 l 347 0 l 508 508 b 531 575 517 532 522 551 b 553 507 538 551 544 531 l 714 0 l 814 0 l 1032 668 l 943 668 l 792 171 b 768 99 782 146 775 121 b 744 169 760 121 753 146 l 583 668 l 478 668 l 324 169 b 300 96 315 144 307 121 b 275 171 292 119 285 143 l 119 668 l 26 668 z m 346 803 l 438 803 l 490 864 b 531 911 503 879 517 897 b 572 863 544 896 558 879 l 622 803 l 717 803 l 583 964 l 478 964 z "},"ẅ":{"ha":1060,"x_min":0,"x_max":0,"o":"m 249 0 l 347 0 l 508 508 b 531 575 517 532 522 551 b 553 507 538 551 544 531 l 714 0 l 814 0 l 1032 668 l 943 668 l 792 171 b 768 99 782 146 775 121 b 744 169 760 121 753 146 l 583 668 l 478 668 l 324 169 b 300 96 315 144 307 121 b 275 171 292 119 285 143 l 119 668 l 26 668 z m 342 797 l 442 797 l 442 936 l 342 936 z m 619 797 l 718 797 l 718 936 l 619 936 z "},"ẁ":{"ha":1060,"x_min":0,"x_max":0,"o":"m 249 0 l 347 0 l 508 508 b 531 575 517 532 522 551 b 553 507 538 551 544 531 l 714 0 l 814 0 l 1032 668 l 943 668 l 792 171 b 768 99 782 146 775 121 b 744 169 760 121 753 146 l 583 668 l 478 668 l 324 169 b 300 96 315 144 307 121 b 275 171 292 119 285 143 l 119 668 l 26 668 z m 382 964 l 510 793 l 586 793 l 493 964 z "},"x":{"ha":667,"x_min":0,"x_max":0,"o":"m 26 0 l 129 0 l 283 214 b 332 282 299 236 315 258 b 383 211 350 258 367 235 l 533 0 l 640 0 l 382 343 l 631 668 l 529 668 l 379 461 l 336 404 b 296 458 324 422 310 440 l 149 668 l 42 668 l 283 342 z "},"y":{"ha":663,"x_min":0,"x_max":0,"o":"m 172 -290 l 264 -290 l 642 668 l 550 668 l 385 229 b 343 121 371 194 356 158 l 299 228 l 122 668 l 26 668 l 297 18 z "},"ý":{"ha":663,"x_min":0,"x_max":0,"o":"m 172 -290 l 264 -290 l 642 668 l 550 668 l 385 229 b 343 121 371 194 356 158 l 299 228 l 122 668 l 26 668 l 297 18 z m 288 793 l 361 793 l 489 964 l 381 964 z "},"ŷ":{"ha":663,"x_min":0,"x_max":0,"o":"m 172 -290 l 264 -290 l 642 668 l 550 668 l 385 229 b 343 121 371 194 356 158 l 299 228 l 122 668 l 26 668 l 297 18 z m 151 803 l 243 803 l 296 864 b 336 911 308 879 322 897 b 378 863 350 896 364 879 l 428 803 l 522 803 l 389 964 l 283 964 z "},"ÿ":{"ha":663,"x_min":0,"x_max":0,"o":"m 172 -290 l 264 -290 l 642 668 l 550 668 l 385 229 b 343 121 371 194 356 158 l 299 228 l 122 668 l 26 668 l 297 18 z m 147 797 l 247 797 l 247 936 l 147 936 z m 425 797 l 524 797 l 524 936 l 425 936 z "},"ỳ":{"ha":663,"x_min":0,"x_max":0,"o":"m 172 -290 l 264 -290 l 642 668 l 550 668 l 385 229 b 343 121 371 194 356 158 l 299 228 l 122 668 l 26 668 l 297 18 z m 188 964 l 315 793 l 392 793 l 299 964 z "},"ȳ":{"ha":663,"x_min":0,"x_max":0,"o":"m 172 -290 l 264 -290 l 642 668 l 550 668 l 385 229 b 343 121 371 194 356 158 l 299 228 l 122 668 l 26 668 l 297 18 z m 151 831 l 518 831 l 518 908 l 151 908 z "},"z":{"ha":629,"x_min":0,"x_max":0,"o":"m 50 0 l 581 0 l 581 71 l 146 71 b 188 122 161 89 174 104 l 571 594 l 571 668 l 64 668 l 64 597 l 475 597 b 435 544 461 579 447 563 l 50 74 z "},"ź":{"ha":629,"x_min":0,"x_max":0,"o":"m 50 0 l 581 0 l 581 71 l 146 71 b 188 122 161 89 174 104 l 571 594 l 571 668 l 64 668 l 64 597 l 475 597 b 435 544 461 579 447 563 l 50 74 z m 282 793 l 356 793 l 483 964 l 375 964 z "},"ž":{"ha":629,"x_min":0,"x_max":0,"o":"m 50 0 l 581 0 l 581 71 l 146 71 b 188 122 161 89 174 104 l 571 594 l 571 668 l 64 668 l 64 597 l 475 597 b 435 544 461 579 447 563 l 50 74 z m 144 964 l 276 803 l 382 803 l 515 964 l 421 964 l 371 904 b 329 857 357 886 343 872 b 289 903 315 871 301 886 l 236 964 z "},"ż":{"ha":629,"x_min":0,"x_max":0,"o":"m 50 0 l 581 0 l 581 71 l 146 71 b 188 122 161 89 174 104 l 571 594 l 571 668 l 64 668 l 64 597 l 475 597 b 435 544 461 579 447 563 l 50 74 z m 279 797 l 379 797 l 379 936 l 279 936 z "},"ﬁ":{"ha":739,"x_min":0,"x_max":0,"o":"m 247 593 l 542 593 l 542 0 l 629 0 l 629 668 l 247 668 l 247 807 b 347 913 247 882 283 913 b 394 907 364 913 381 910 l 394 982 b 329 993 382 986 357 993 b 160 810 235 993 160 931 l 160 668 l 26 668 l 26 593 l 160 593 l 160 0 l 247 0 z m 535 797 l 635 797 l 635 936 l 535 936 z "},"ﬂ":{"ha":726,"x_min":0,"x_max":0,"o":"m 160 0 l 247 0 l 247 593 l 393 593 l 393 668 l 247 668 l 247 807 b 347 913 247 882 283 913 b 394 907 364 913 381 910 l 394 982 b 329 993 382 986 357 993 b 160 810 235 993 160 931 l 160 668 l 26 668 l 26 593 l 160 593 z m 529 0 l 617 0 l 617 972 l 529 972 z "},"ª":{"ha":554,"x_min":0,"x_max":0,"o":"m 229 500 b 383 588 317 500 360 543 l 383 547 l 383 515 l 457 515 l 457 799 b 274 983 457 910 399 983 b 88 825 167 983 97 921 l 164 825 b 278 924 169 883 208 924 b 379 839 342 924 379 886 b 322 793 379 811 368 799 l 247 782 b 74 638 142 767 74 725 b 229 500 74 554 146 500 z m 149 640 b 254 726 149 690 183 715 l 326 739 b 382 761 356 743 371 751 l 382 697 b 243 561 382 631 333 561 b 149 640 190 561 149 590 z "},"º":{"ha":576,"x_min":0,"x_max":0,"o":"m 288 499 b 508 740 425 499 508 606 b 288 983 508 878 425 983 b 68 740 151 983 68 878 b 288 499 68 606 151 499 z m 146 740 b 288 921 146 849 200 921 b 431 740 375 921 431 849 b 288 560 431 632 376 560 b 146 740 200 560 146 632 z "},"Δ":{"ha":915,"x_min":0,"x_max":0,"o":"m 44 0 l 871 0 l 871 76 l 499 972 l 415 972 l 44 76 z m 132 76 l 406 743 l 457 868 b 508 743 474 826 492 783 l 782 76 z "},"Ω":{"ha":1063,"x_min":0,"x_max":0,"o":"m 114 0 l 458 0 l 458 75 b 172 493 293 115 172 251 b 531 914 172 750 322 914 b 890 493 739 914 890 750 b 604 75 890 251 769 115 l 604 0 l 947 0 l 947 75 l 782 75 l 750 75 b 985 496 907 154 985 311 b 531 993 985 796 792 993 b 78 496 271 993 78 796 b 313 75 78 311 154 154 l 278 75 l 114 75 z "},"μ":{"ha":790,"x_min":0,"x_max":0,"o":"m 125 -290 l 211 -290 l 211 6 l 211 49 b 363 -19 244 4 297 -19 b 581 117 471 -19 544 44 l 581 47 l 581 0 l 665 0 l 665 668 l 579 668 l 579 300 b 379 51 579 160 507 51 b 211 261 258 51 211 135 l 211 668 l 125 668 z "},"π":{"ha":797,"x_min":0,"x_max":0,"o":"m 672 -19 b 746 -12 699 -19 722 -18 l 746 63 b 690 57 728 60 713 57 b 590 157 632 57 590 79 l 590 597 l 739 597 l 739 668 l 33 668 l 33 597 l 147 597 l 147 0 l 233 0 l 233 597 l 503 597 l 503 154 b 672 -19 503 26 578 -19 z "},"⓪":{"ha":1151,"x_min":0,"x_max":0,"o":"m 576 186 b 790 488 711 186 790 300 b 576 790 790 675 710 790 b 360 488 442 790 360 675 b 576 186 360 300 440 186 z m 71 488 b 575 -19 71 206 297 -19 b 1081 488 854 -19 1081 206 b 575 993 1081 768 854 993 b 71 488 297 993 71 768 z m 142 488 b 575 928 142 735 332 928 b 1010 488 818 928 1010 735 b 575 46 1010 240 818 46 b 142 488 332 46 142 240 z m 438 488 b 576 731 438 639 488 731 b 713 488 664 731 713 639 b 576 246 713 338 664 246 b 438 488 488 246 438 338 z "},"①":{"ha":1151,"x_min":0,"x_max":0,"o":"m 558 621 l 558 197 l 635 197 l 635 779 l 572 779 b 400 644 551 708 488 653 l 400 579 b 558 657 472 583 529 618 z m 71 488 b 575 -19 71 206 297 -19 b 1081 488 854 -19 1081 206 b 575 993 1081 768 854 993 b 71 488 297 993 71 768 z m 142 488 b 575 928 142 735 332 928 b 1010 488 818 928 1010 735 b 575 46 1010 240 818 46 b 142 488 332 46 142 240 z "},"②":{"ha":1151,"x_min":0,"x_max":0,"o":"m 378 197 l 779 197 l 779 263 l 471 263 b 551 356 475 294 500 321 l 635 413 b 774 617 719 471 774 531 b 583 790 774 718 696 790 b 379 600 465 790 381 713 l 456 600 b 582 731 458 681 508 731 b 697 615 653 731 697 682 b 589 463 697 542 643 501 l 517 413 b 378 197 426 351 381 292 z m 71 488 b 575 -19 71 206 297 -19 b 1081 488 854 -19 1081 206 b 575 993 1081 768 854 993 b 71 488 297 993 71 768 z m 142 488 b 575 928 142 735 332 928 b 1010 488 818 928 1010 735 b 575 46 1010 240 818 46 b 142 488 332 46 142 240 z "},"③":{"ha":1151,"x_min":0,"x_max":0,"o":"m 575 186 b 782 354 696 186 782 256 b 658 503 782 428 732 483 b 768 633 724 521 768 569 b 581 790 768 726 689 790 b 374 617 461 790 381 721 l 450 617 b 579 731 456 686 504 731 b 692 632 647 731 692 690 b 576 531 692 567 642 531 l 540 531 l 540 468 l 576 468 b 706 358 660 468 706 421 b 575 246 706 290 654 246 b 442 371 493 246 446 296 l 367 371 b 575 186 371 260 447 186 z m 71 488 b 575 -19 71 206 297 -19 b 1081 488 854 -19 1081 206 b 575 993 1081 768 854 993 b 71 488 297 993 71 768 z m 142 488 b 575 928 142 735 332 928 b 1010 488 818 928 1010 735 b 575 46 1010 240 818 46 b 142 488 332 46 142 240 z "},"④":{"ha":1151,"x_min":0,"x_max":0,"o":"m 604 197 l 681 197 l 681 349 l 789 349 l 789 408 l 681 408 l 681 779 l 593 779 l 332 408 l 332 349 l 604 349 z m 71 488 b 575 -19 71 206 297 -19 b 1081 488 854 -19 1081 206 b 575 993 1081 768 854 993 b 71 488 297 993 71 768 z m 142 488 b 575 928 142 735 332 928 b 1010 488 818 928 1010 735 b 575 46 1010 240 818 46 b 142 488 332 46 142 240 z m 407 408 b 429 440 414 418 421 426 l 585 661 b 604 690 593 671 599 681 l 604 408 z "},"⑤":{"ha":1151,"x_min":0,"x_max":0,"o":"m 571 186 b 781 390 694 186 781 268 b 599 588 781 506 703 588 b 456 524 539 588 489 561 b 461 557 458 535 460 542 l 483 714 l 749 714 l 749 779 l 426 779 l 379 444 l 453 444 b 581 528 475 496 525 528 b 706 389 651 528 706 471 b 571 246 706 304 649 246 b 447 354 499 246 451 290 l 372 354 b 571 186 376 256 453 186 z m 71 488 b 575 -19 71 206 297 -19 b 1081 488 854 -19 1081 206 b 575 993 1081 768 854 993 b 71 488 297 993 71 768 z m 142 488 b 575 928 142 735 332 928 b 1010 488 818 928 1010 735 b 575 46 1010 240 818 46 b 142 488 332 46 142 240 z "},"⑥":{"ha":1151,"x_min":0,"x_max":0,"o":"m 574 186 b 775 388 690 186 775 271 b 590 579 775 500 697 579 b 433 488 514 579 458 538 l 433 511 b 590 731 433 636 486 731 b 697 633 651 731 689 693 l 774 633 b 592 790 764 729 696 790 b 357 472 446 790 357 669 b 574 186 357 299 429 186 z m 71 488 b 575 -19 71 206 297 -19 b 1081 488 854 -19 1081 206 b 575 993 1081 768 854 993 b 71 488 297 993 71 768 z m 142 488 b 575 928 142 735 332 928 b 1010 488 818 928 1010 735 b 575 46 1010 240 818 46 b 142 488 332 46 142 240 z m 449 386 b 579 519 449 463 500 519 b 699 385 650 519 699 463 b 572 246 699 303 647 246 b 449 386 496 246 449 299 z "},"⑦":{"ha":1151,"x_min":0,"x_max":0,"o":"m 486 197 l 568 197 b 788 719 581 410 657 578 l 788 779 l 385 779 l 385 714 l 713 714 b 486 197 579 581 503 418 z m 71 488 b 575 -19 71 206 297 -19 b 1081 488 854 -19 1081 206 b 575 993 1081 768 854 993 b 71 488 297 993 71 768 z m 142 488 b 575 928 142 735 332 928 b 1010 488 818 928 1010 735 b 575 46 1010 240 818 46 b 142 488 332 46 142 240 z "},"⑧":{"ha":1151,"x_min":0,"x_max":0,"o":"m 569 186 b 781 350 697 186 781 253 b 654 497 781 422 732 474 b 765 632 721 519 765 567 b 571 790 765 725 686 790 b 374 631 454 790 374 725 b 483 497 374 569 413 522 b 358 349 406 472 358 418 b 569 186 358 251 442 186 z m 71 488 b 575 -19 71 206 297 -19 b 1081 488 854 -19 1081 206 b 575 993 1081 768 854 993 b 71 488 297 993 71 768 z m 142 488 b 575 928 142 735 332 928 b 1010 488 818 928 1010 735 b 575 46 1010 240 818 46 b 142 488 332 46 142 240 z m 435 354 b 571 468 435 424 492 468 b 704 354 649 468 704 424 b 571 246 704 290 650 246 b 435 354 489 246 435 290 z m 450 631 b 571 731 450 690 497 731 b 689 629 643 731 689 690 b 571 528 689 568 640 528 b 450 631 496 528 450 568 z "},"⑨":{"ha":1151,"x_min":0,"x_max":0,"o":"m 569 186 b 794 503 713 186 794 304 b 582 790 794 676 724 790 b 381 597 464 790 381 708 b 564 408 381 488 456 408 b 722 496 642 408 696 449 l 722 475 b 571 246 719 326 663 246 b 461 339 510 246 469 279 l 385 339 b 569 186 393 258 453 186 z m 71 488 b 575 -19 71 206 297 -19 b 1081 488 854 -19 1081 206 b 575 993 1081 768 854 993 b 71 488 297 993 71 768 z m 142 488 b 575 928 142 735 332 928 b 1010 488 818 928 1010 735 b 575 46 1010 240 818 46 b 142 488 332 46 142 240 z m 457 600 b 582 731 457 674 510 731 b 706 599 657 731 706 679 b 576 468 706 519 657 468 b 457 600 506 468 457 524 z "},"⓿":{"ha":1151,"x_min":0,"x_max":0,"o":"m 576 186 b 790 488 711 186 790 300 b 576 790 790 675 710 790 b 360 488 442 790 360 675 b 576 186 360 300 440 186 z m 71 488 b 575 993 71 768 297 993 b 1081 488 854 993 1081 768 b 575 -19 1081 206 854 -19 b 71 488 297 -19 71 206 z m 438 488 b 576 731 438 639 488 731 b 713 488 664 731 713 639 b 576 246 713 338 664 246 b 438 488 488 246 438 338 z "},"❶":{"ha":1151,"x_min":0,"x_max":0,"o":"m 558 621 l 558 197 l 635 197 l 635 779 l 572 779 b 400 644 551 708 488 653 l 400 579 b 558 657 472 583 529 618 z m 71 488 b 575 993 71 768 297 993 b 1081 488 854 993 1081 768 b 575 -19 1081 206 854 -19 b 71 488 297 -19 71 206 z "},"❷":{"ha":1151,"x_min":0,"x_max":0,"o":"m 378 197 l 779 197 l 779 263 l 471 263 b 551 356 475 294 500 321 l 635 413 b 774 617 719 471 774 531 b 583 790 774 718 696 790 b 379 600 465 790 381 713 l 456 600 b 582 731 458 681 508 731 b 697 615 653 731 697 682 b 589 463 697 542 643 501 l 517 413 b 378 197 426 351 381 292 z m 71 488 b 575 993 71 768 297 993 b 1081 488 854 993 1081 768 b 575 -19 1081 206 854 -19 b 71 488 297 -19 71 206 z "},"❸":{"ha":1151,"x_min":0,"x_max":0,"o":"m 575 186 b 782 354 696 186 782 256 b 658 503 782 428 732 483 b 768 633 724 521 768 569 b 581 790 768 726 689 790 b 374 617 461 790 381 721 l 450 617 b 579 731 456 686 504 731 b 692 632 647 731 692 690 b 576 531 692 567 642 531 l 540 531 l 540 468 l 576 468 b 706 358 660 468 706 421 b 575 246 706 290 654 246 b 442 371 493 246 446 296 l 367 371 b 575 186 371 260 447 186 z m 71 488 b 575 993 71 768 297 993 b 1081 488 854 993 1081 768 b 575 -19 1081 206 854 -19 b 71 488 297 -19 71 206 z "},"❹":{"ha":1151,"x_min":0,"x_max":0,"o":"m 604 197 l 681 197 l 681 349 l 789 349 l 789 408 l 681 408 l 681 779 l 593 779 l 332 408 l 332 349 l 604 349 z m 71 488 b 575 993 71 768 297 993 b 1081 488 854 993 1081 768 b 575 -19 1081 206 854 -19 b 71 488 297 -19 71 206 z m 407 408 b 429 440 414 418 421 426 l 585 661 b 604 690 593 671 599 681 l 604 408 z "},"❺":{"ha":1151,"x_min":0,"x_max":0,"o":"m 571 186 b 781 390 694 186 781 268 b 599 588 781 506 703 588 b 456 524 539 588 489 561 b 461 557 458 535 460 542 l 483 714 l 749 714 l 749 779 l 426 779 l 379 444 l 453 444 b 581 528 475 496 525 528 b 706 389 651 528 706 471 b 571 246 706 304 649 246 b 447 354 499 246 451 290 l 372 354 b 571 186 376 256 453 186 z m 71 488 b 575 993 71 768 297 993 b 1081 488 854 993 1081 768 b 575 -19 1081 206 854 -19 b 71 488 297 -19 71 206 z "},"❻":{"ha":1151,"x_min":0,"x_max":0,"o":"m 574 186 b 775 388 690 186 775 271 b 590 579 775 500 697 579 b 433 488 514 579 458 538 l 433 511 b 590 731 433 636 486 731 b 697 633 651 731 689 693 l 774 633 b 592 790 764 729 696 790 b 357 472 446 790 357 669 b 574 186 357 299 429 186 z m 71 488 b 575 993 71 768 297 993 b 1081 488 854 993 1081 768 b 575 -19 1081 206 854 -19 b 71 488 297 -19 71 206 z m 449 386 b 579 519 449 463 500 519 b 699 385 650 519 699 463 b 572 246 699 303 647 246 b 449 386 496 246 449 299 z "},"❼":{"ha":1151,"x_min":0,"x_max":0,"o":"m 486 197 l 568 197 b 788 719 581 410 657 578 l 788 779 l 385 779 l 385 714 l 713 714 b 486 197 579 581 503 418 z m 71 488 b 575 993 71 768 297 993 b 1081 488 854 993 1081 768 b 575 -19 1081 206 854 -19 b 71 488 297 -19 71 206 z "},"❽":{"ha":1151,"x_min":0,"x_max":0,"o":"m 569 186 b 781 350 697 186 781 253 b 654 497 781 422 732 474 b 765 632 721 519 765 567 b 571 790 765 725 686 790 b 374 631 454 790 374 725 b 483 497 374 569 413 522 b 358 349 406 472 358 418 b 569 186 358 251 442 186 z m 71 488 b 575 993 71 768 297 993 b 1081 488 854 993 1081 768 b 575 -19 1081 206 854 -19 b 71 488 297 -19 71 206 z m 435 354 b 571 468 435 424 492 468 b 704 354 649 468 704 424 b 571 246 704 290 650 246 b 435 354 489 246 435 290 z m 450 631 b 571 731 450 690 497 731 b 689 629 643 731 689 690 b 571 528 689 568 640 528 b 450 631 496 528 450 568 z "},"❾":{"ha":1151,"x_min":0,"x_max":0,"o":"m 569 186 b 794 503 713 186 794 304 b 582 790 794 676 724 790 b 381 597 464 790 381 708 b 564 408 381 488 456 408 b 722 496 642 408 696 449 l 722 475 b 571 246 719 326 663 246 b 461 339 510 246 469 279 l 385 339 b 569 186 393 258 453 186 z m 71 488 b 575 993 71 768 297 993 b 1081 488 854 993 1081 768 b 575 -19 1081 206 854 -19 b 71 488 297 -19 71 206 z m 457 600 b 582 731 457 674 510 731 b 706 599 657 731 706 679 b 576 468 706 519 657 468 b 457 600 506 468 457 524 z "},"⁰":{"ha":611,"x_min":0,"x_max":0,"o":"m 308 461 b 543 793 456 461 543 586 b 308 1126 543 999 454 1126 b 69 793 160 1126 69 999 b 308 461 69 586 158 461 z m 156 793 b 308 1060 156 960 210 1060 b 457 793 404 1060 457 960 b 308 528 457 628 404 528 b 156 793 210 528 156 628 z "},"¹":{"ha":404,"x_min":0,"x_max":0,"o":"m 219 940 l 219 474 l 303 474 l 303 1114 l 233 1114 b 44 965 211 1036 142 975 l 44 894 b 219 979 125 899 188 936 z "},"²":{"ha":572,"x_min":0,"x_max":0,"o":"m 65 474 l 507 474 l 507 546 l 167 546 b 256 647 172 581 199 610 l 347 711 b 501 935 442 775 501 840 b 290 1126 501 1047 417 1126 b 67 917 161 1126 69 1040 l 150 917 b 289 1060 156 1006 208 1060 b 417 933 369 1060 417 1007 b 297 765 417 853 357 808 l 218 711 b 65 474 118 643 68 578 z "},"³":{"ha":590,"x_min":0,"x_max":0,"o":"m 294 461 b 522 646 426 461 522 538 b 386 810 522 728 467 789 b 507 953 457 829 507 883 b 300 1126 507 1056 419 1126 b 72 935 168 1126 81 1050 l 157 935 b 299 1060 163 1011 217 1060 b 422 951 374 1060 422 1017 b 296 840 422 881 367 840 l 256 840 l 256 772 l 296 772 b 439 651 388 772 439 719 b 294 528 439 576 381 528 b 147 665 204 528 151 582 l 65 665 b 294 461 69 543 153 461 z "},"⁴":{"ha":592,"x_min":0,"x_max":0,"o":"m 344 474 l 428 474 l 428 640 l 546 640 l 546 706 l 428 706 l 428 1114 l 331 1114 l 43 706 l 43 640 l 344 640 z m 126 706 b 151 742 135 717 142 726 l 324 983 b 344 1014 331 994 336 1004 l 344 706 z "},"⁵":{"ha":571,"x_min":0,"x_max":0,"o":"m 282 461 b 513 686 418 461 513 551 b 313 903 513 813 426 903 b 156 833 249 903 193 874 b 161 869 158 844 160 853 l 188 1042 l 478 1042 l 478 1114 l 122 1114 l 71 746 l 151 746 b 293 838 176 803 232 838 b 431 685 371 838 431 775 b 282 528 431 592 367 528 b 146 646 203 528 150 576 l 64 646 b 282 461 68 538 151 461 z "},"⁶":{"ha":596,"x_min":0,"x_max":0,"o":"m 306 461 b 529 683 436 461 529 554 b 325 894 529 807 443 894 b 153 793 242 894 181 849 b 151 819 151 803 151 811 b 325 1060 151 957 211 1060 b 443 953 392 1060 435 1019 l 526 953 b 328 1126 517 1058 442 1126 b 69 776 165 1126 69 993 b 306 461 69 585 147 461 z m 168 682 b 314 828 168 765 225 828 b 446 681 392 828 446 765 b 306 528 446 590 389 528 b 168 682 222 528 168 585 z "},"⁷":{"ha":515,"x_min":0,"x_max":0,"o":"m 149 474 l 239 474 b 481 1049 253 707 336 892 l 481 1114 l 38 1114 l 38 1042 l 397 1042 b 149 474 251 896 167 717 z "},"⁸":{"ha":599,"x_min":0,"x_max":0,"o":"m 300 461 b 532 642 440 461 532 535 b 393 804 532 721 479 778 b 515 951 467 828 515 881 b 301 1126 515 1054 426 1126 b 85 950 174 1126 85 1054 b 206 804 85 883 126 831 b 68 640 119 776 68 717 b 300 461 68 533 158 461 z m 151 646 b 301 772 151 722 214 772 b 449 646 388 772 449 722 b 301 528 449 576 389 528 b 151 646 211 528 151 576 z m 168 950 b 301 1060 168 1017 221 1060 b 432 949 381 1060 432 1017 b 301 838 432 882 378 838 b 168 950 219 838 168 882 z "},"⁹":{"ha":590,"x_min":0,"x_max":0,"o":"m 274 461 b 522 810 432 461 522 592 b 288 1126 522 1001 443 1126 b 67 914 158 1126 67 1036 b 268 706 67 793 149 706 b 442 803 354 706 413 750 l 442 779 b 275 528 439 615 376 528 b 156 629 208 528 164 564 l 71 629 b 274 461 81 540 146 461 z m 150 917 b 288 1060 150 997 208 1060 b 424 915 371 1060 424 1004 b 282 772 424 828 371 772 b 150 917 204 772 150 833 z "},"₀":{"ha":611,"x_min":0,"x_max":0,"o":"m 307 -154 b 543 178 456 -154 543 -29 b 307 511 543 383 454 511 b 69 178 158 511 69 383 b 307 -154 69 -29 157 -154 z m 154 178 b 307 444 154 344 210 444 b 457 178 403 444 457 344 b 307 -87 457 13 403 -87 b 154 178 210 -87 154 13 z "},"₁":{"ha":404,"x_min":0,"x_max":0,"o":"m 219 325 l 219 -142 l 303 -142 l 303 499 l 233 499 b 44 350 211 421 142 360 l 44 279 b 219 364 125 283 188 321 z "},"₂":{"ha":572,"x_min":0,"x_max":0,"o":"m 65 -142 l 507 -142 l 507 -69 l 167 -69 b 256 32 172 -35 199 -6 l 347 96 b 501 319 442 160 501 225 b 290 511 501 432 417 511 b 67 301 161 511 69 425 l 150 301 b 289 444 156 390 208 444 b 417 318 369 444 417 392 b 297 150 417 238 357 193 l 218 96 b 65 -142 118 28 68 -37 z "},"₃":{"ha":590,"x_min":0,"x_max":0,"o":"m 294 -154 b 522 31 426 -154 522 -78 b 386 194 522 113 467 174 b 507 338 457 214 507 268 b 300 511 507 440 419 511 b 72 319 168 511 81 435 l 157 319 b 299 444 163 396 217 444 b 422 336 374 444 422 401 b 296 225 422 265 367 225 l 256 225 l 256 157 l 296 157 b 439 36 388 157 439 104 b 294 -87 439 -39 381 -87 b 147 50 204 -87 151 -33 l 65 50 b 294 -154 69 -72 153 -154 z "},"₄":{"ha":592,"x_min":0,"x_max":0,"o":"m 344 -142 l 428 -142 l 428 25 l 546 25 l 546 90 l 428 90 l 428 499 l 331 499 l 43 90 l 43 25 l 344 25 z m 126 90 b 151 126 135 101 142 111 l 324 368 b 344 399 331 379 336 389 l 344 90 z "},"₅":{"ha":571,"x_min":0,"x_max":0,"o":"m 282 -154 b 513 71 418 -154 513 -64 b 313 288 513 197 426 288 b 156 218 249 288 193 258 b 161 254 158 229 160 238 l 188 426 l 478 426 l 478 499 l 122 499 l 71 131 l 151 131 b 293 222 176 188 232 222 b 431 69 371 222 431 160 b 282 -87 431 -24 367 -87 b 146 31 203 -87 150 -39 l 64 31 b 282 -154 68 -78 151 -154 z "},"₆":{"ha":596,"x_min":0,"x_max":0,"o":"m 306 -154 b 529 68 436 -154 529 -61 b 325 279 529 192 443 279 b 153 178 242 279 181 233 b 151 204 151 188 151 196 b 325 444 151 342 211 444 b 443 338 392 444 435 404 l 526 338 b 328 511 517 443 442 511 b 69 161 165 511 69 378 b 306 -154 69 -31 147 -154 z m 168 67 b 314 213 168 150 225 213 b 446 65 392 213 446 150 b 306 -87 446 -25 389 -87 b 168 67 222 -87 168 -31 z "},"₇":{"ha":515,"x_min":0,"x_max":0,"o":"m 149 -142 l 239 -142 b 481 433 253 92 336 276 l 481 499 l 38 499 l 38 426 l 397 426 b 149 -142 251 281 167 101 z "},"₈":{"ha":599,"x_min":0,"x_max":0,"o":"m 300 -154 b 532 26 440 -154 532 -81 b 393 189 532 106 479 163 b 515 336 467 213 515 265 b 301 511 515 439 426 511 b 85 335 174 511 85 439 b 206 189 85 268 126 215 b 68 25 119 161 68 101 b 300 -154 68 -82 158 -154 z m 151 31 b 301 157 151 107 214 157 b 449 31 388 157 449 107 b 301 -87 449 -39 389 -87 b 151 31 211 -87 151 -39 z m 168 335 b 301 444 168 401 221 444 b 432 333 381 444 432 401 b 301 222 432 267 378 222 b 168 335 219 222 168 267 z "},"₉":{"ha":590,"x_min":0,"x_max":0,"o":"m 274 -154 b 522 194 432 -154 522 -24 b 288 511 522 386 443 511 b 67 299 158 511 67 421 b 268 90 67 178 149 90 b 442 188 354 90 413 135 l 442 164 b 275 -87 439 0 376 -87 b 156 14 208 -87 164 -51 l 71 14 b 274 -154 81 -75 146 -154 z m 150 301 b 288 444 150 382 208 444 b 424 300 371 444 424 389 b 282 157 424 213 371 157 b 150 301 204 157 150 218 z "},"⁄":{"ha":281,"x_min":0,"x_max":0,"o":"m -260 0 l -168 0 l 539 972 l 449 972 z "},"⅟":{"ha":1014,"x_min":0,"x_max":0,"o":"m 214 814 l 214 390 l 289 390 l 289 972 l 226 972 b 54 838 206 901 143 846 l 54 772 b 214 850 128 776 185 811 z m 179 0 l 271 0 l 978 972 l 888 972 z "},"½":{"ha":1229,"x_min":0,"x_max":0,"o":"m 201 814 l 201 390 l 276 390 l 276 972 l 214 972 b 42 838 193 901 131 846 l 42 772 b 201 850 115 776 172 811 z m 167 0 l 258 0 l 965 972 l 875 972 z m 767 0 l 1168 0 l 1168 65 l 860 65 b 940 158 864 97 889 124 l 1024 215 b 1164 419 1110 274 1164 333 b 972 593 1164 521 1086 593 b 768 403 854 593 771 515 l 844 403 b 971 533 849 483 897 533 b 1086 418 1043 533 1086 485 b 978 265 1086 344 1032 304 l 906 215 b 767 0 815 154 769 94 z "},"⅓":{"ha":1225,"x_min":0,"x_max":0,"o":"m 201 814 l 201 390 l 276 390 l 276 972 l 214 972 b 42 838 193 901 131 846 l 42 772 b 201 850 115 776 172 811 z m 167 0 l 258 0 l 965 972 l 875 972 z m 751 174 b 960 -11 756 63 832 -11 b 1167 157 1081 -11 1167 58 b 1043 306 1167 231 1117 286 b 1153 436 1108 324 1153 372 b 965 593 1153 529 1074 593 b 758 419 846 593 765 524 l 835 419 b 964 533 840 489 889 533 b 1076 435 1032 533 1076 493 b 961 333 1076 369 1026 333 l 925 333 l 925 271 l 961 271 b 1092 161 1044 271 1092 224 b 960 49 1092 93 1039 49 b 826 174 878 49 831 99 z "},"⅔":{"ha":1350,"x_min":0,"x_max":0,"o":"m 65 390 l 467 390 l 467 456 l 158 456 b 239 549 163 488 188 514 l 322 606 b 463 810 408 664 463 724 b 271 983 463 911 385 983 b 67 793 153 983 69 906 l 143 793 b 269 924 147 874 196 924 b 385 808 342 924 385 875 b 276 656 385 735 331 694 l 204 606 b 65 390 114 544 68 485 z m 294 0 l 386 0 l 1093 972 l 1003 972 z m 881 174 b 1089 -11 885 63 961 -11 b 1296 157 1210 -11 1296 58 b 1172 306 1296 231 1246 286 b 1282 436 1238 324 1282 372 b 1094 593 1282 529 1203 593 b 888 419 975 593 894 524 l 964 419 b 1093 533 969 489 1018 533 b 1206 435 1161 533 1206 493 b 1090 333 1206 369 1156 333 l 1054 333 l 1054 271 l 1090 271 b 1221 161 1174 271 1221 224 b 1089 49 1221 93 1168 49 b 956 174 1007 49 960 99 z "},"¼":{"ha":1156,"x_min":0,"x_max":0,"o":"m 201 814 l 201 390 l 276 390 l 276 972 l 214 972 b 42 838 193 901 131 846 l 42 772 b 201 850 115 776 172 811 z m 167 0 l 258 0 l 965 972 l 875 972 z m 654 151 l 928 151 l 928 0 l 1004 0 l 1004 151 l 1111 151 l 1111 211 l 1004 211 l 1004 582 l 915 582 l 654 211 z m 729 211 b 753 243 738 221 743 229 l 908 464 l 928 492 l 928 211 z "},"¾":{"ha":1271,"x_min":0,"x_max":0,"o":"m 267 379 b 474 547 388 379 474 449 b 350 696 474 621 424 676 b 460 826 415 714 460 763 b 272 983 460 919 381 983 b 65 810 153 983 72 914 l 142 810 b 271 924 147 879 196 924 b 383 825 339 924 383 883 b 268 724 383 760 333 724 l 232 724 l 232 661 l 268 661 b 399 551 351 661 399 614 b 267 439 399 483 346 439 b 133 564 185 439 138 489 l 58 564 b 267 379 63 453 139 379 z m 282 0 l 374 0 l 1081 972 l 990 972 z m 771 151 l 1044 151 l 1044 0 l 1121 0 l 1121 151 l 1228 151 l 1228 211 l 1121 211 l 1121 582 l 1032 582 l 771 211 z m 846 211 b 869 243 854 221 860 229 l 1025 464 l 1044 492 l 1044 211 z "},"⅕":{"ha":1221,"x_min":0,"x_max":0,"o":"m 201 814 l 201 390 l 276 390 l 276 972 l 214 972 b 42 838 193 901 131 846 l 42 772 b 201 850 115 776 172 811 z m 167 0 l 258 0 l 965 972 l 875 972 z m 754 157 b 953 -11 758 58 835 -11 b 1163 193 1076 -11 1163 71 b 981 390 1163 308 1085 390 b 838 326 922 390 872 364 b 843 360 840 338 842 344 l 867 517 l 1131 517 l 1131 582 l 808 582 l 761 247 l 835 247 b 963 331 857 299 907 331 b 1088 192 1033 331 1088 274 b 953 49 1088 107 1031 49 b 829 157 881 49 833 93 z "},"⅖":{"ha":1347,"x_min":0,"x_max":0,"o":"m 65 390 l 467 390 l 467 456 l 158 456 b 239 549 163 488 188 514 l 322 606 b 463 810 408 664 463 724 b 271 983 463 911 385 983 b 67 793 153 983 69 906 l 143 793 b 269 924 147 874 196 924 b 385 808 342 924 385 875 b 276 656 385 735 331 694 l 204 606 b 65 390 114 544 68 485 z m 294 0 l 386 0 l 1093 972 l 1003 972 z m 882 157 b 1081 -11 886 58 963 -11 b 1290 193 1204 -11 1290 71 b 1108 390 1290 308 1213 390 b 965 326 1050 390 1000 364 b 971 360 968 338 969 344 l 994 517 l 1258 517 l 1258 582 l 936 582 l 889 247 l 963 247 b 1090 331 985 299 1035 331 b 1215 192 1161 331 1215 274 b 1081 49 1215 107 1158 49 b 957 157 1008 49 961 93 z "},"⅗":{"ha":1331,"x_min":0,"x_max":0,"o":"m 263 379 b 469 547 383 379 469 449 b 346 696 469 621 419 676 b 456 826 411 714 456 763 b 268 983 456 919 376 983 b 61 810 149 983 68 914 l 138 810 b 267 924 143 879 192 924 b 379 825 335 924 379 883 b 264 724 379 760 329 724 l 228 724 l 228 661 l 264 661 b 394 551 347 661 394 614 b 263 439 394 483 342 439 b 129 564 181 439 133 489 l 54 564 b 263 379 58 453 135 379 z m 278 0 l 369 0 l 1076 972 l 986 972 z m 867 157 b 1065 -11 871 58 947 -11 b 1275 193 1189 -11 1275 71 b 1093 390 1275 308 1197 390 b 950 326 1035 390 985 364 b 956 360 953 338 954 344 l 979 517 l 1243 517 l 1243 582 l 921 582 l 874 247 l 947 247 b 1075 331 969 299 1019 331 b 1200 192 1146 331 1200 274 b 1065 49 1200 107 1143 49 b 942 157 993 49 946 93 z "},"⅘":{"ha":1353,"x_min":0,"x_max":0,"o":"m 314 390 l 390 390 l 390 542 l 497 542 l 497 601 l 390 601 l 390 972 l 301 972 l 40 601 l 40 542 l 314 542 z m 115 601 b 139 633 124 611 129 619 l 294 854 l 314 882 l 314 601 z m 296 0 l 388 0 l 1094 972 l 1004 972 z m 885 157 b 1083 -11 889 58 965 -11 b 1293 193 1207 -11 1293 71 b 1111 390 1293 308 1215 390 b 968 326 1053 390 1003 364 b 974 360 971 338 972 344 l 997 517 l 1261 517 l 1261 582 l 939 582 l 892 247 l 965 247 b 1093 331 988 299 1038 331 b 1218 192 1164 331 1218 274 b 1083 49 1218 107 1161 49 b 960 157 1011 49 964 93 z "},"⅙":{"ha":1244,"x_min":0,"x_max":0,"o":"m 201 814 l 201 390 l 276 390 l 276 972 l 214 972 b 42 838 193 901 131 846 l 42 772 b 201 850 115 776 172 811 z m 167 0 l 258 0 l 965 972 l 875 972 z m 765 275 b 981 -11 765 101 836 -11 b 1183 190 1099 -11 1183 74 b 997 382 1183 303 1106 382 b 842 290 922 382 867 340 b 840 314 840 299 840 307 b 997 533 840 439 894 533 b 1106 436 1058 533 1097 496 l 1181 436 b 1000 593 1172 532 1104 593 b 765 275 853 593 765 472 z m 856 189 b 988 322 856 265 907 322 b 1107 188 1058 322 1107 265 b 981 49 1107 106 1056 49 b 856 189 904 49 856 101 z "},"⅚":{"ha":1360,"x_min":0,"x_max":0,"o":"m 250 379 b 460 583 374 379 460 461 b 278 781 460 699 382 781 b 135 717 219 781 169 754 b 140 750 138 728 139 735 l 164 907 l 428 907 l 428 972 l 106 972 l 58 638 l 132 638 b 260 721 154 689 204 721 b 385 582 331 721 385 664 b 250 439 385 497 328 439 b 126 547 178 439 131 483 l 51 547 b 250 379 56 449 132 379 z m 285 0 l 376 0 l 1083 972 l 993 972 z m 885 275 b 1100 -11 885 101 956 -11 b 1303 190 1218 -11 1303 74 b 1117 382 1303 303 1225 382 b 961 290 1042 382 986 340 b 960 314 960 299 960 307 b 1117 533 960 439 1014 533 b 1225 436 1178 533 1217 496 l 1300 436 b 1119 593 1292 532 1224 593 b 885 275 972 593 885 472 z m 975 189 b 1107 322 975 265 1026 322 b 1226 188 1178 322 1226 265 b 1100 49 1226 106 1175 49 b 975 189 1024 49 975 101 z "},"⅛":{"ha":1239,"x_min":0,"x_max":0,"o":"m 201 814 l 201 390 l 276 390 l 276 972 l 214 972 b 42 838 193 901 131 846 l 42 772 b 201 850 115 776 172 811 z m 167 0 l 258 0 l 965 972 l 875 972 z m 761 151 b 972 -11 761 54 843 -11 b 1183 153 1100 -11 1183 56 b 1057 300 1183 225 1135 276 b 1168 435 1124 322 1168 369 b 974 593 1168 528 1088 593 b 776 433 857 593 776 528 b 886 300 776 372 814 325 b 761 151 808 275 761 221 z m 838 157 b 974 271 838 226 894 271 b 1107 157 1051 271 1107 226 b 974 49 1107 93 1053 49 b 838 157 892 49 838 93 z m 853 433 b 974 533 853 493 900 533 b 1092 432 1046 533 1092 493 b 974 331 1092 371 1043 331 b 853 433 899 331 853 371 z "},"⅜":{"ha":1347,"x_min":0,"x_max":0,"o":"m 263 379 b 469 547 383 379 469 449 b 346 696 469 621 419 676 b 456 826 411 714 456 763 b 268 983 456 919 376 983 b 61 810 149 983 68 914 l 138 810 b 267 924 143 879 192 924 b 379 825 335 924 379 883 b 264 724 379 760 329 724 l 228 724 l 228 661 l 264 661 b 394 551 347 661 394 614 b 263 439 394 483 342 439 b 129 564 181 439 133 489 l 54 564 b 263 379 58 453 135 379 z m 278 0 l 369 0 l 1076 972 l 986 972 z m 874 151 b 1085 -11 874 54 956 -11 b 1296 153 1213 -11 1296 56 b 1169 300 1296 225 1247 276 b 1281 435 1236 322 1281 369 b 1086 593 1281 528 1200 593 b 889 433 969 593 889 528 b 999 300 889 372 926 325 b 874 151 921 275 874 221 z m 950 157 b 1086 271 950 226 1007 271 b 1219 157 1164 271 1219 226 b 1086 49 1219 93 1165 49 b 950 157 1004 49 950 93 z m 965 433 b 1086 533 965 493 1013 533 b 1204 432 1158 533 1204 493 b 1086 331 1204 371 1156 331 b 965 433 1011 331 965 371 z "},"⅝":{"ha":1354,"x_min":0,"x_max":0,"o":"m 250 379 b 460 583 374 379 460 461 b 278 781 460 699 382 781 b 135 717 219 781 169 754 b 140 750 138 728 139 735 l 164 907 l 428 907 l 428 972 l 106 972 l 58 638 l 132 638 b 260 721 154 689 204 721 b 385 582 331 721 385 664 b 250 439 385 497 328 439 b 126 547 178 439 131 483 l 51 547 b 250 379 56 449 132 379 z m 285 0 l 376 0 l 1083 972 l 993 972 z m 879 151 b 1090 -11 879 54 961 -11 b 1301 153 1218 -11 1301 56 b 1175 300 1301 225 1253 276 b 1286 435 1242 322 1286 369 b 1092 593 1286 528 1206 593 b 894 433 975 593 894 528 b 1004 300 894 372 932 325 b 879 151 926 275 879 221 z m 956 157 b 1092 271 956 226 1013 271 b 1225 157 1169 271 1225 226 b 1092 49 1225 93 1171 49 b 956 157 1010 49 956 93 z m 971 433 b 1092 533 971 493 1018 533 b 1210 432 1164 533 1210 493 b 1092 331 1210 371 1161 331 b 971 433 1017 331 971 371 z "},"⅞":{"ha":1260,"x_min":0,"x_max":0,"o":"m 142 390 l 224 390 b 443 913 236 603 313 771 l 443 972 l 40 972 l 40 907 l 368 907 b 142 390 235 774 158 611 z m 185 0 l 276 0 l 983 972 l 893 972 z m 779 151 b 990 -11 779 54 861 -11 b 1201 153 1118 -11 1201 56 b 1075 300 1201 225 1153 276 b 1186 435 1142 322 1186 369 b 992 593 1186 528 1106 593 b 794 433 875 593 794 528 b 904 300 794 372 832 325 b 779 151 826 275 779 221 z m 856 157 b 992 271 856 226 913 271 b 1125 157 1069 271 1125 226 b 992 49 1125 93 1071 49 b 856 157 910 49 856 93 z m 871 433 b 992 533 871 493 918 533 b 1110 432 1064 533 1110 493 b 992 331 1110 371 1061 331 b 871 433 917 331 871 371 z "},".":{"ha":311,"x_min":0,"x_max":0,"o":"m 96 0 l 217 0 l 217 138 l 96 138 z "},",":{"ha":319,"x_min":0,"x_max":0,"o":"m 94 -150 l 94 -212 b 222 -31 178 -197 222 -139 l 222 138 l 101 138 l 101 0 l 158 0 l 158 -33 b 94 -150 158 -107 138 -137 z "},":":{"ha":311,"x_min":0,"x_max":0,"o":"m 96 0 l 217 0 l 217 138 l 96 138 z m 96 469 l 217 469 l 217 607 l 96 607 z "},";":{"ha":322,"x_min":0,"x_max":0,"o":"m 103 469 l 224 469 l 224 607 l 103 607 z m 96 -212 b 224 -31 179 -197 224 -139 l 224 138 l 103 138 l 103 0 l 160 0 l 160 -33 b 96 -150 160 -107 139 -137 z "},"…":{"ha":969,"x_min":0,"x_max":0,"o":"m 94 0 l 211 0 l 211 138 l 94 138 z m 426 0 l 544 0 l 544 138 l 426 138 z m 758 0 l 876 0 l 876 138 l 758 138 z "},"!":{"ha":338,"x_min":0,"x_max":0,"o":"m 146 256 l 192 256 l 218 674 l 218 972 l 121 972 l 121 674 z m 113 0 l 225 0 l 225 132 l 113 132 z "},"¡":{"ha":313,"x_min":0,"x_max":0,"o":"m 178 457 l 132 457 l 106 39 l 106 -260 l 203 -260 l 203 39 z m 99 581 l 211 581 l 211 713 l 99 713 z "},"?":{"ha":694,"x_min":0,"x_max":0,"o":"m 289 256 l 378 256 b 460 468 378 350 390 410 l 504 506 b 646 751 583 569 646 640 b 361 993 646 886 529 993 b 44 681 176 993 50 871 l 135 681 b 361 917 140 824 222 917 b 554 747 481 917 554 844 b 451 567 554 661 506 611 l 410 532 b 289 256 306 446 289 369 z m 278 0 l 390 0 l 390 132 l 278 132 z "},"¿":{"ha":686,"x_min":0,"x_max":0,"o":"m 401 457 l 313 457 b 231 244 313 363 300 303 l 186 207 b 44 -39 107 143 44 72 b 329 -281 44 -174 161 -281 b 646 32 514 -281 640 -158 l 556 32 b 329 -204 550 -111 468 -204 b 136 -35 210 -204 136 -132 b 239 146 136 51 185 101 l 281 181 b 401 457 385 267 401 343 z m 300 581 l 413 581 l 413 713 l 300 713 z "},"·":{"ha":311,"x_min":0,"x_max":0,"o":"m 96 367 l 217 367 l 217 504 l 96 504 z "},"•":{"ha":532,"x_min":0,"x_max":0,"o":"m 265 233 b 431 399 357 233 431 307 b 265 567 431 490 357 567 b 101 399 174 567 101 490 b 265 233 101 307 174 233 z "},"*":{"ha":546,"x_min":0,"x_max":0,"o":"m 194 604 l 274 740 l 351 604 l 401 635 l 321 765 l 476 764 l 476 824 l 321 821 l 401 953 l 351 983 l 274 846 l 194 983 l 144 953 l 225 821 l 69 824 l 69 764 l 225 765 l 144 635 z "},"#":{"ha":847,"x_min":0,"x_max":0,"o":"m 169 0 l 246 0 l 285 294 l 508 294 l 469 0 l 546 0 l 586 294 l 744 294 l 744 365 l 596 365 l 631 618 l 793 618 l 793 689 l 640 689 l 679 972 l 603 972 l 564 689 l 340 689 l 379 972 l 303 972 l 264 689 l 100 689 l 100 618 l 254 618 l 219 365 l 56 365 l 56 294 l 208 294 z m 296 365 l 331 618 l 556 618 l 519 365 z "},"/":{"ha":567,"x_min":0,"x_max":0,"o":"m 44 0 l 128 0 l 521 972 l 439 972 z "},"\\":{"ha":569,"x_min":0,"x_max":0,"o":"m 439 0 l 524 0 l 131 972 l 46 972 z "},"(":{"ha":375,"x_min":0,"x_max":0,"o":"m 254 -179 l 336 -179 b 161 418 239 -19 161 165 b 336 1014 161 669 239 853 l 254 1014 b 72 417 161 882 72 682 b 254 -179 72 151 161 -47 z "},")":{"ha":375,"x_min":0,"x_max":0,"o":"m 121 1014 l 39 1014 b 214 417 136 854 214 669 b 39 -179 214 165 136 -18 l 121 -179 b 303 418 214 -47 303 153 b 121 1014 303 683 214 882 z "},"{":{"ha":438,"x_min":0,"x_max":0,"o":"m 358 -179 l 394 -179 l 394 -108 l 361 -108 b 253 22 288 -108 253 -65 l 253 257 b 122 418 253 354 199 401 b 251 578 199 433 251 481 l 251 813 b 361 942 251 896 286 942 l 394 942 l 394 1014 l 358 1014 b 165 808 231 1014 165 942 l 165 588 b 26 457 165 492 103 457 l 26 378 b 165 247 103 378 165 343 l 165 26 b 358 -179 165 -107 231 -179 z "},"}":{"ha":438,"x_min":0,"x_max":0,"o":"m 78 1014 l 42 1014 l 42 943 l 75 943 b 183 813 149 943 183 900 l 183 578 b 314 417 183 481 238 433 b 185 257 238 401 185 354 l 185 22 b 75 -107 185 -61 150 -107 l 42 -107 l 42 -179 l 78 -179 b 271 26 206 -179 271 -107 l 271 247 b 410 378 271 343 333 378 l 410 457 b 271 588 333 457 271 492 l 271 808 b 78 1014 271 942 206 1014 z "},"[":{"ha":396,"x_min":0,"x_max":0,"o":"m 128 -179 l 347 -179 l 347 -108 l 213 -108 l 213 943 l 347 943 l 347 1015 l 128 1015 z "},"]":{"ha":383,"x_min":0,"x_max":0,"o":"m 256 1015 l 36 1015 l 36 944 l 171 944 l 171 -107 l 36 -107 l 36 -179 l 256 -179 z "},"〈":{"ha":426,"x_min":0,"x_max":0,"o":"m 319 -179 l 408 -179 l 122 421 l 400 1015 l 313 1015 l 35 421 z "},"〉":{"ha":428,"x_min":0,"x_max":0,"o":"m 108 1015 l 19 1015 l 306 415 l 28 -179 l 115 -179 l 393 415 z "},"【":{"ha":447,"x_min":0,"x_max":0,"o":"m 136 -179 l 432 -179 l 432 -176 b 215 419 285 3 215 178 b 432 1011 215 661 288 838 l 432 1015 l 136 1015 z "},"】":{"ha":439,"x_min":0,"x_max":0,"o":"m 311 1015 l 15 1015 l 15 1013 b 232 417 163 833 232 658 b 15 -175 232 175 160 -1 l 15 -179 l 311 -179 z "},"「":{"ha":372,"x_min":0,"x_max":0,"o":"m 103 417 l 188 417 l 188 943 l 344 943 l 344 1015 l 103 1015 z "},"」":{"ha":357,"x_min":0,"x_max":0,"o":"m 257 417 l 172 417 l 172 -110 l 15 -110 l 15 -182 l 257 -182 z "},"《":{"ha":681,"x_min":0,"x_max":0,"o":"m 319 -179 l 408 -179 l 122 421 l 400 1015 l 313 1015 l 35 421 z m 288 421 l 571 -179 l 660 -179 l 375 422 l 653 1015 l 565 1015 z "},"》":{"ha":681,"x_min":0,"x_max":0,"o":"m 361 1015 l 272 1015 l 558 415 l 281 -179 l 368 -179 l 646 415 z m 21 1015 l 306 414 l 28 -179 l 115 -179 l 393 415 l 110 1015 z "},"〔":{"ha":367,"x_min":0,"x_max":0,"o":"m 269 -197 l 335 -151 l 176 56 l 176 781 l 336 988 l 272 1033 l 93 797 l 93 36 z "},"〕":{"ha":367,"x_min":0,"x_max":0,"o":"m 97 1033 l 32 988 l 190 781 l 190 56 l 31 -151 l 94 -197 l 274 39 l 274 800 z "},"『":{"ha":574,"x_min":0,"x_max":0,"o":"m 104 358 l 324 358 l 324 794 l 524 794 l 524 1015 l 104 1015 z m 174 417 l 174 957 l 454 957 l 454 853 l 254 853 l 254 417 z "},"』":{"ha":571,"x_min":0,"x_max":0,"o":"m 467 478 l 247 478 l 247 42 l 47 42 l 47 -179 l 467 -179 z m 117 -121 l 117 -17 l 317 -17 l 317 419 l 397 419 l 397 -121 z "},"-":{"ha":533,"x_min":0,"x_max":0,"o":"m 96 338 l 439 338 l 439 413 l 96 413 z "},"­":{"ha":533,"x_min":0,"x_max":0,"o":"m 96 338 l 439 338 l 439 413 l 96 413 z "},"–":{"ha":779,"x_min":0,"x_max":0,"o":"m 96 338 l 683 338 l 683 413 l 96 413 z "},"—":{"ha":1158,"x_min":0,"x_max":0,"o":"m 96 338 l 1064 338 l 1064 413 l 96 413 z "},"―":{"ha":1158,"x_min":0,"x_max":0,"o":"m 96 338 l 1064 338 l 1064 413 l 96 413 z "},"_":{"ha":772,"x_min":0,"x_max":0,"o":"m 74 -126 l 699 -126 l 699 -50 l 74 -50 z "},"‚":{"ha":311,"x_min":0,"x_max":0,"o":"m 92 -143 l 92 -200 b 215 -29 167 -189 215 -132 l 215 133 l 100 133 l 100 0 l 154 0 l 154 -32 b 92 -143 154 -97 129 -132 z "},"„":{"ha":533,"x_min":0,"x_max":0,"o":"m 92 -143 l 92 -200 b 215 -29 167 -189 215 -132 l 215 133 l 100 133 l 100 0 l 154 0 l 154 -32 b 92 -143 154 -97 129 -132 z m 314 -200 b 438 -29 389 -189 438 -132 l 438 133 l 322 133 l 322 0 l 376 0 l 376 -32 b 314 -143 376 -97 351 -132 z "},"“":{"ha":524,"x_min":0,"x_max":0,"o":"m 435 924 l 435 981 b 311 810 360 969 311 913 l 311 647 l 426 647 l 426 781 l 372 781 l 372 813 b 435 924 372 878 397 913 z m 89 647 l 204 647 l 204 781 l 150 781 l 150 813 b 213 924 150 878 175 913 l 213 981 b 89 810 138 969 89 913 z "},"”":{"ha":517,"x_min":0,"x_max":0,"o":"m 92 696 l 92 639 b 215 810 167 650 215 707 l 215 972 l 100 972 l 100 839 l 154 839 l 154 807 b 92 696 154 742 129 707 z m 314 639 b 438 810 389 650 438 707 l 438 972 l 322 972 l 322 839 l 376 839 l 376 807 b 314 696 376 742 351 707 z "},"‘":{"ha":303,"x_min":0,"x_max":0,"o":"m 214 924 l 214 981 b 90 810 139 969 90 913 l 90 647 l 206 647 l 206 781 l 151 781 l 151 813 b 214 924 151 878 176 913 z "},"’":{"ha":294,"x_min":0,"x_max":0,"o":"m 92 696 l 92 639 b 215 810 167 650 215 707 l 215 972 l 100 972 l 100 839 l 154 839 l 154 807 b 92 696 154 742 129 707 z "},"«":{"ha":624,"x_min":0,"x_max":0,"o":"m 299 92 l 299 203 l 196 301 b 140 354 178 319 158 336 b 193 404 158 371 176 388 l 299 503 l 299 614 l 68 390 l 68 315 z m 322 315 l 551 92 l 551 203 l 447 301 b 393 354 431 319 411 336 b 446 404 411 371 429 388 l 551 503 l 551 614 l 322 390 z "},"»":{"ha":624,"x_min":0,"x_max":0,"o":"m 347 617 l 347 506 l 450 407 b 506 354 468 389 488 372 b 453 304 488 338 469 321 l 347 206 l 347 94 l 578 318 l 578 393 z m 94 94 l 324 318 l 324 393 l 94 617 l 94 506 l 199 407 b 253 354 215 389 235 372 b 200 304 235 338 217 321 l 94 206 z "},"‹":{"ha":399,"x_min":0,"x_max":0,"o":"m 299 92 l 299 203 l 196 301 b 140 354 178 319 158 336 b 193 404 158 371 176 388 l 299 503 l 299 614 l 68 390 l 68 315 z "},"›":{"ha":390,"x_min":0,"x_max":0,"o":"m 96 617 l 96 506 l 199 407 b 254 354 217 389 236 372 b 201 304 236 338 218 321 l 96 206 l 96 94 l 326 318 l 326 393 z "},"\"":{"ha":440,"x_min":0,"x_max":0,"o":"m 104 694 l 151 694 l 172 875 l 172 972 l 83 972 l 83 875 z m 268 875 l 289 694 l 336 694 l 357 875 l 357 972 l 268 972 z "},"'":{"ha":256,"x_min":0,"x_max":0,"o":"m 104 694 l 151 694 l 172 875 l 172 972 l 83 972 l 83 875 z "}," ":{"ha":53,"x_min":0,"x_max":0,"o":""}," ":{"ha":157,"x_min":0,"x_max":0,"o":""}," ":{"ha":347,"x_min":0,"x_max":0,"o":""}," ":{"ha":632,"x_min":0,"x_max":0,"o":""}," ":{"ha":1265,"x_min":0,"x_max":0,"o":""},"฿":{"ha":867,"x_min":0,"x_max":0,"o":"m 136 0 l 400 0 l 400 -154 l 479 -154 l 479 0 b 792 267 660 7 792 86 b 593 511 792 389 713 478 b 767 732 693 542 767 622 b 479 972 767 882 656 968 l 479 1128 l 400 1128 l 400 972 l 136 972 z m 226 76 l 226 471 l 400 471 l 400 76 z m 226 546 l 226 896 l 400 896 l 400 546 z m 479 76 l 479 471 b 700 271 628 463 700 382 b 479 76 700 153 629 81 z m 479 546 l 479 896 b 675 726 613 890 675 819 b 479 546 675 625 604 554 z "},"₿":{"ha":867,"x_min":0,"x_max":0,"o":"m 136 0 l 397 0 l 397 -154 l 479 -154 l 479 0 b 792 267 660 8 792 88 b 593 511 792 389 713 478 b 765 732 692 542 765 622 b 465 972 765 886 649 972 l 479 972 l 479 1128 l 397 1128 l 397 972 l 136 972 z m 226 75 l 226 471 l 454 471 b 699 271 619 471 699 389 b 464 75 699 147 624 75 z m 226 546 l 226 897 l 463 897 b 674 726 607 897 674 824 b 456 546 674 618 594 546 z "},"¢":{"ha":842,"x_min":0,"x_max":0,"o":"m 394 -79 l 472 -79 l 472 58 b 788 342 646 74 768 186 l 699 342 b 472 133 685 228 594 147 l 472 842 b 694 636 596 829 685 749 l 788 636 b 472 917 769 794 650 906 l 472 1053 l 394 1053 l 394 915 b 50 490 196 893 50 726 b 394 58 50 247 183 76 z m 143 489 b 394 840 143 685 246 817 l 394 133 b 143 489 242 154 143 293 z "},"¤":{"ha":936,"x_min":0,"x_max":0,"o":"m 468 135 b 681 211 550 135 624 161 l 800 93 l 853 149 l 732 268 b 796 494 772 328 796 404 b 732 721 796 586 772 663 l 853 840 l 800 897 l 681 779 b 468 856 624 829 550 856 b 256 779 386 856 313 829 l 136 897 l 82 840 l 204 721 b 140 494 164 663 140 586 b 204 269 140 404 164 328 l 82 149 l 136 93 l 256 211 b 468 135 313 161 386 135 z m 225 494 b 468 783 225 682 332 783 b 711 494 604 783 711 682 b 468 207 711 308 606 207 b 225 494 331 207 225 308 z "},"$":{"ha":824,"x_min":0,"x_max":0,"o":"m 383 -154 l 460 -154 l 460 -18 b 767 263 636 -4 767 107 b 515 518 767 399 672 479 l 460 532 l 460 915 b 654 706 571 899 649 817 l 742 706 b 460 990 736 863 625 974 l 460 1128 l 383 1128 l 383 992 b 82 733 207 982 82 874 b 335 475 82 597 185 513 l 383 464 l 383 56 b 139 307 236 71 146 172 l 50 307 b 383 -18 57 128 183 -4 z m 172 733 b 383 918 172 836 257 908 l 383 550 l 358 556 b 172 733 229 588 172 647 z m 460 56 l 460 446 l 475 442 b 676 257 607 408 676 351 b 460 56 676 144 585 69 z "},"€":{"ha":885,"x_min":0,"x_max":0,"o":"m 492 -19 b 819 318 685 -19 790 115 l 728 318 b 492 56 707 161 638 56 b 242 339 357 56 269 153 l 590 339 l 590 408 l 235 408 b 232 485 233 432 232 458 b 235 560 232 511 233 536 l 590 560 l 590 629 l 242 629 b 501 917 269 817 358 917 b 724 671 635 917 704 818 l 814 671 b 503 993 792 871 690 993 b 150 629 313 993 186 858 l 54 629 l 54 560 l 142 560 b 139 485 140 536 139 511 b 142 408 139 458 140 433 l 54 408 l 54 339 l 149 339 b 492 -19 185 111 306 -19 z "},"ƒ":{"ha":735,"x_min":0,"x_max":0,"o":"m 133 -178 b 338 18 240 -178 314 -118 l 422 510 l 679 510 l 679 579 l 433 579 l 469 786 b 596 915 486 879 526 915 b 679 901 622 915 644 911 l 679 978 b 588 993 656 985 626 993 b 385 796 482 993 408 933 l 347 579 l 103 579 l 103 510 l 336 510 l 253 28 b 126 -101 236 -64 196 -101 b 44 -86 100 -101 78 -96 l 44 -162 b 133 -178 67 -169 96 -178 z "},"₴":{"ha":758,"x_min":0,"x_max":0,"o":"m 376 -19 b 669 236 547 -19 663 90 l 579 236 b 376 56 572 131 499 56 b 185 240 256 56 185 138 b 224 368 185 293 201 336 l 733 368 l 733 438 l 26 438 l 26 368 l 133 368 b 97 233 114 335 97 290 b 376 -19 97 99 197 -19 z m 26 571 l 733 571 l 733 639 l 649 639 b 668 739 660 667 668 700 b 393 993 668 874 569 993 b 100 736 224 993 107 878 l 189 736 b 393 917 196 842 271 917 b 582 733 513 917 582 835 b 561 639 582 697 574 665 l 26 639 z "},"₺":{"ha":793,"x_min":0,"x_max":0,"o":"m 192 0 l 281 0 b 747 385 544 0 731 142 l 657 385 b 281 75 640 185 493 75 l 281 392 l 597 554 l 597 631 l 281 468 l 281 608 l 597 771 l 597 847 l 281 685 l 281 972 l 192 972 l 192 639 l 76 579 l 76 504 l 192 563 l 192 422 l 76 363 l 76 288 l 192 346 z "},"₦":{"ha":817,"x_min":0,"x_max":0,"o":"m 129 0 l 219 0 l 219 447 l 383 447 l 554 0 l 686 0 l 686 447 l 799 447 l 799 517 l 686 517 l 686 972 l 596 972 l 596 517 l 440 517 l 267 972 l 129 972 l 129 517 l 18 517 l 18 447 l 129 447 z m 219 517 l 219 760 l 219 878 l 357 517 z m 467 447 l 596 447 l 596 232 l 596 108 z "},"₽":{"ha":864,"x_min":0,"x_max":0,"o":"m 183 0 l 272 0 l 272 232 l 651 232 l 651 301 l 272 301 l 272 440 l 490 440 b 814 706 678 440 814 521 b 490 972 814 896 674 972 l 183 972 l 183 510 l 71 510 l 71 440 l 183 440 l 183 301 l 71 301 l 71 232 l 183 232 z m 272 510 l 272 897 l 488 897 b 722 706 644 897 722 826 b 488 510 722 586 644 510 z "},"₹":{"ha":831,"x_min":0,"x_max":0,"o":"m 526 0 l 646 0 l 203 443 l 307 443 b 626 671 479 443 610 515 l 774 671 l 774 740 l 625 740 b 504 903 615 814 574 868 l 774 903 l 774 972 l 88 972 l 88 903 l 304 903 b 532 740 442 903 518 839 l 88 740 l 88 671 l 532 671 b 304 518 518 578 443 518 l 88 518 l 88 443 z "},"₪":{"ha":944,"x_min":0,"x_max":0,"o":"m 319 0 l 597 0 b 849 246 760 0 849 81 l 849 972 l 760 972 l 760 246 b 597 75 760 128 704 75 l 407 75 l 407 774 l 319 774 z m 97 0 l 186 0 l 186 897 l 378 897 b 539 728 483 897 539 844 l 539 199 l 628 199 l 628 726 b 376 972 628 892 540 972 l 97 972 z "},"£":{"ha":894,"x_min":0,"x_max":0,"o":"m 75 0 l 824 0 l 824 79 l 301 79 l 301 419 l 664 419 l 664 494 l 301 494 l 301 674 b 515 914 301 818 382 914 b 724 703 650 914 721 822 l 815 703 b 517 993 810 869 701 993 b 210 679 335 993 210 869 l 210 494 l 56 494 l 56 419 l 210 419 l 210 79 l 75 79 z "},"₸":{"ha":803,"x_min":0,"x_max":0,"o":"m 356 0 l 447 0 l 447 667 l 753 667 l 753 746 l 49 746 l 49 667 l 356 667 z m 49 894 l 753 894 l 753 972 l 49 972 z "},"₩":{"ha":1451,"x_min":0,"x_max":0,"o":"m 371 0 l 482 0 l 588 381 l 869 381 l 976 0 l 1086 0 l 1192 381 l 1382 381 l 1382 449 l 1211 449 l 1247 579 l 1382 579 l 1382 649 l 1267 649 l 1357 972 l 1271 972 l 1179 649 l 876 649 l 785 972 l 674 972 l 583 649 l 279 649 l 188 972 l 94 972 l 186 649 l 71 649 l 71 579 l 206 579 l 243 449 l 71 449 l 71 381 l 263 381 z m 299 579 l 564 579 l 528 449 l 335 449 z m 354 381 l 508 381 l 461 213 b 432 106 453 182 442 139 b 401 213 421 140 411 178 z m 606 449 l 643 579 l 814 579 l 850 449 z m 661 649 l 696 772 b 726 886 707 810 718 849 b 760 772 739 849 749 810 l 794 649 z m 896 579 l 1160 579 l 1124 449 l 932 449 z m 951 381 l 1104 381 l 1057 214 b 1029 104 1049 181 1038 140 b 999 214 1017 140 1007 179 z "},"¥":{"ha":851,"x_min":0,"x_max":0,"o":"m 379 0 l 468 0 l 468 235 l 753 235 l 753 306 l 468 306 l 468 422 l 469 424 l 753 424 l 753 496 l 513 496 l 800 972 l 701 972 l 489 611 b 424 501 468 575 444 538 b 363 608 403 538 383 571 l 154 972 l 51 972 l 335 496 l 99 496 l 99 424 l 378 424 l 379 422 l 379 306 l 99 306 l 99 235 l 379 235 z "},"∕":{"ha":569,"x_min":0,"x_max":0,"o":"m 69 0 l 153 0 l 546 972 l 464 972 z "},"+":{"ha":772,"x_min":0,"x_max":0,"o":"m 346 75 l 424 75 l 424 379 l 714 379 l 714 454 l 424 454 l 424 754 l 346 754 l 346 454 l 56 454 l 56 379 l 346 379 z "},"−":{"ha":856,"x_min":0,"x_max":0,"o":"m 99 379 l 757 379 l 757 454 l 99 454 z "},"×":{"ha":739,"x_min":0,"x_max":0,"o":"m 129 124 l 371 364 l 610 124 l 665 179 l 425 418 l 665 657 l 608 713 l 371 472 l 131 713 l 75 657 l 317 418 l 75 178 z "},"÷":{"ha":846,"x_min":0,"x_max":0,"o":"m 372 613 l 475 613 l 475 733 l 372 733 z m 93 379 l 751 379 l 751 454 l 93 454 z m 372 101 l 475 101 l 475 222 l 372 222 z "},"=":{"ha":860,"x_min":0,"x_max":0,"o":"m 100 507 l 758 507 l 758 582 l 100 582 z m 100 250 l 758 250 l 758 325 l 100 325 z "},"≠":{"ha":860,"x_min":0,"x_max":0,"o":"m 207 28 l 286 28 l 392 250 l 758 250 l 758 325 l 426 325 l 513 507 l 758 507 l 758 582 l 549 582 l 653 803 l 574 803 l 469 582 l 100 582 l 100 507 l 433 507 l 347 325 l 100 325 l 100 250 l 313 250 z "},">":{"ha":761,"x_min":0,"x_max":0,"o":"m 90 108 l 710 378 l 710 456 l 90 725 l 90 636 l 489 468 b 607 417 529 451 568 433 l 489 367 l 90 197 z "},"<":{"ha":761,"x_min":0,"x_max":0,"o":"m 671 108 l 671 197 l 271 367 b 153 417 229 385 193 400 l 267 467 l 671 636 l 671 725 l 53 456 l 53 378 z "},"≥":{"ha":851,"x_min":0,"x_max":0,"o":"m 108 186 l 764 442 l 764 519 l 108 776 l 108 688 l 539 526 b 664 481 582 511 624 496 l 538 433 l 108 274 z m 107 13 l 765 13 l 765 88 l 107 88 z "},"≤":{"ha":851,"x_min":0,"x_max":0,"o":"m 739 186 l 739 275 l 310 436 b 183 483 267 453 224 467 b 310 531 225 499 267 514 l 739 690 l 739 776 l 83 521 l 83 443 z m 82 13 l 740 13 l 740 88 l 82 88 z "},"±":{"ha":878,"x_min":0,"x_max":0,"o":"m 401 265 l 478 265 l 478 472 l 768 472 l 768 547 l 478 547 l 478 754 l 401 754 l 401 547 l 110 547 l 110 472 l 401 472 z m 108 88 l 767 88 l 767 163 l 108 163 z "},"≈":{"ha":815,"x_min":0,"x_max":0,"o":"m 103 458 l 182 458 b 272 540 189 511 225 540 b 392 503 313 540 351 522 b 546 458 438 481 488 458 b 717 615 636 458 708 513 l 638 615 b 543 532 628 560 592 532 b 422 571 503 532 464 551 b 269 617 375 593 326 617 b 103 458 188 617 110 567 z m 103 189 l 182 189 b 272 271 189 242 225 271 b 392 233 313 271 351 253 b 546 189 438 211 488 189 b 717 346 636 189 708 243 l 638 346 b 543 263 628 290 592 263 b 422 301 503 263 464 282 b 269 347 375 324 326 347 b 103 189 188 347 110 297 z "},"¬":{"ha":865,"x_min":0,"x_max":0,"o":"m 685 144 l 763 144 l 763 454 l 104 454 l 104 379 l 685 379 z "},"~":{"ha":818,"x_min":0,"x_max":0,"o":"m 104 336 l 183 336 b 274 418 190 389 226 418 b 393 381 314 418 353 400 b 547 336 439 358 489 336 b 718 493 638 336 710 390 l 639 493 b 544 410 629 438 593 410 b 424 449 504 410 465 429 b 271 494 376 471 328 494 b 104 336 189 494 111 444 z "},"^":{"ha":656,"x_min":0,"x_max":0,"o":"m 61 475 l 153 475 l 281 774 l 326 881 b 372 772 340 846 357 808 l 500 475 l 594 475 l 371 972 l 285 972 z "},"∞":{"ha":1060,"x_min":0,"x_max":0,"o":"m 290 183 b 531 356 406 183 474 263 b 771 183 589 256 661 183 b 990 421 901 183 990 279 b 771 657 990 560 900 657 b 531 489 661 657 589 582 b 290 657 471 583 397 657 b 69 421 160 657 69 560 b 290 183 69 279 158 183 z m 149 421 b 292 583 149 517 206 583 b 489 419 375 583 439 511 b 292 257 439 328 375 257 b 149 421 206 257 149 324 z m 571 419 b 771 583 622 511 683 583 b 911 421 854 583 911 518 b 771 257 911 324 854 257 b 571 419 685 257 622 329 z "},"∅":{"ha":850,"x_min":0,"x_max":0,"o":"m 425 -19 b 779 336 619 -19 779 140 b 668 590 779 436 736 526 l 726 665 l 669 710 l 611 635 b 425 688 557 668 493 688 b 72 336 231 688 72 529 b 182 79 72 235 114 143 l 124 3 l 181 -42 l 239 35 b 425 -19 293 0 357 -19 z m 150 336 b 425 614 150 489 274 614 b 565 575 476 614 525 600 l 229 139 b 150 336 181 190 150 260 z m 286 94 l 622 531 b 700 336 671 481 700 411 b 425 56 700 181 578 56 b 286 94 374 56 326 69 z "},"∫":{"ha":431,"x_min":0,"x_max":0,"o":"m 39 -290 l 72 -290 b 257 -96 193 -290 257 -225 l 257 776 b 358 897 257 857 290 897 l 393 897 l 393 972 l 358 972 b 174 776 238 972 174 907 l 174 -96 b 72 -217 174 -176 140 -217 l 39 -217 z "},"Ω":{"ha":1063,"x_min":0,"x_max":0,"o":"m 114 0 l 458 0 l 458 75 b 172 493 293 115 172 251 b 531 914 172 750 322 914 b 890 493 739 914 890 750 b 604 75 890 251 769 115 l 604 0 l 947 0 l 947 75 l 782 75 l 750 75 b 985 496 907 154 985 311 b 531 993 985 796 792 993 b 78 496 271 993 78 796 b 313 75 78 311 154 154 l 278 75 l 114 75 z "},"∆":{"ha":915,"x_min":0,"x_max":0,"o":"m 44 0 l 871 0 l 871 76 l 499 972 l 415 972 l 44 76 z m 132 76 l 406 743 l 457 868 b 508 743 474 826 492 783 l 782 76 z "},"∏":{"ha":797,"x_min":0,"x_max":0,"o":"m 536 -179 l 619 -179 l 619 901 l 749 901 l 749 972 l 49 972 l 49 901 l 178 901 l 178 -179 l 261 -179 l 261 901 l 536 901 z "},"∑":{"ha":722,"x_min":0,"x_max":0,"o":"m 50 -179 l 665 -179 l 665 -110 l 143 -110 b 210 -22 163 -85 185 -57 l 508 371 l 508 422 l 213 815 b 146 901 190 843 167 874 l 665 901 l 665 972 l 50 972 l 50 894 l 428 396 l 50 -101 z "},"√":{"ha":747,"x_min":0,"x_max":0,"o":"m 179 -179 l 296 -179 l 538 901 l 728 901 l 728 972 l 472 972 l 253 -11 b 236 -92 247 -37 242 -68 b 215 -11 229 -69 222 -37 l 113 394 l 28 394 z "},"∂":{"ha":808,"x_min":0,"x_max":0,"o":"m 339 -19 b 731 543 607 -19 731 238 b 338 993 731 828 585 993 l 338 921 b 646 488 571 921 669 735 b 639 431 644 469 642 451 b 368 618 596 549 507 618 b 43 281 175 618 43 458 b 339 -19 43 92 169 -19 z m 132 275 b 379 549 132 439 232 549 b 596 329 508 549 596 458 b 336 51 596 164 490 51 b 132 275 217 51 132 138 z "},"µ":{"ha":790,"x_min":0,"x_max":0,"o":"m 125 -290 l 211 -290 l 211 6 l 211 49 b 363 -19 244 4 297 -19 b 581 117 471 -19 544 44 l 581 47 l 581 0 l 665 0 l 665 668 l 579 668 l 579 300 b 379 51 579 160 507 51 b 211 261 258 51 211 135 l 211 668 l 125 668 z "},"%":{"ha":1054,"x_min":0,"x_max":0,"o":"m 258 529 b 467 757 381 529 467 624 b 258 983 467 890 381 983 b 50 757 135 983 50 890 b 258 529 50 624 135 529 z m 128 0 l 218 0 l 926 972 l 835 972 z m 129 757 b 258 917 129 851 181 917 b 388 757 335 917 388 851 b 258 600 388 664 335 600 b 129 757 181 600 129 664 z m 589 218 b 796 -10 589 82 674 -10 b 1004 218 919 -10 1004 82 b 796 443 1004 350 919 443 b 589 218 674 443 589 350 z m 667 218 b 796 378 667 313 721 378 b 926 218 874 378 926 313 b 796 60 926 124 874 60 b 667 218 721 60 667 124 z "},"‰":{"ha":1397,"x_min":0,"x_max":0,"o":"m 258 529 b 467 757 381 529 467 624 b 258 983 467 890 381 983 b 50 757 135 983 50 890 b 258 529 50 624 135 529 z m 128 0 l 218 0 l 926 972 l 835 972 z m 129 757 b 258 917 129 851 181 917 b 388 757 335 917 388 851 b 258 600 388 664 335 600 b 129 757 181 600 129 664 z m 589 218 b 794 -10 589 82 674 -10 b 967 96 871 -10 933 31 b 1139 -10 1000 31 1063 -10 b 1346 218 1260 -10 1346 82 b 1139 443 1346 350 1260 443 b 967 338 1063 443 1000 403 b 794 443 933 403 871 443 b 589 218 674 443 589 350 z m 667 218 b 796 378 667 313 721 378 b 926 218 872 378 926 313 b 796 60 926 124 872 60 b 667 218 721 60 667 124 z m 1008 218 b 1138 378 1008 313 1061 378 b 1267 218 1213 378 1267 313 b 1138 60 1267 124 1213 60 b 1008 218 1061 60 1008 124 z "},"↑":{"ha":931,"x_min":0,"x_max":0,"o":"m 422 0 l 508 0 l 508 839 l 886 458 l 886 568 l 465 993 l 44 568 l 44 458 l 422 839 z "},"↗":{"ha":925,"x_min":0,"x_max":0,"o":"m 139 236 l 736 835 l 736 297 l 815 375 l 815 972 l 218 972 l 139 894 l 675 894 l 81 297 z "},"→":{"ha":1104,"x_min":0,"x_max":0,"o":"m 522 74 l 633 74 l 1057 494 l 633 917 l 522 917 l 904 538 l 64 538 l 64 451 l 904 451 z "},"↘":{"ha":910,"x_min":0,"x_max":0,"o":"m 129 736 l 71 675 l 665 78 l 129 78 l 208 0 l 806 0 l 806 597 l 726 675 l 726 138 z "},"↓":{"ha":929,"x_min":0,"x_max":0,"o":"m 421 972 l 421 133 l 43 514 l 43 404 l 464 -21 l 885 404 l 885 514 l 507 133 l 507 972 z "},"↙":{"ha":910,"x_min":0,"x_max":0,"o":"m 779 736 l 182 138 l 182 675 l 103 597 l 103 0 l 700 0 l 779 78 l 243 78 l 838 675 z "},"←":{"ha":1104,"x_min":0,"x_max":0,"o":"m 582 74 l 200 451 l 1040 451 l 1040 538 l 200 538 l 582 917 l 471 917 l 47 494 l 471 74 z "},"↖":{"ha":925,"x_min":0,"x_max":0,"o":"m 786 236 l 844 297 l 250 894 l 786 894 l 707 972 l 110 972 l 110 375 l 189 297 l 189 835 z "},"◊":{"ha":678,"x_min":0,"x_max":0,"o":"m 297 0 l 381 0 l 624 486 l 381 972 l 297 972 l 54 486 z m 139 490 l 300 810 b 338 886 314 836 326 863 b 375 810 350 863 363 836 l 539 483 l 381 165 l 342 86 b 301 167 328 113 314 139 z "},"":{"ha":1667,"x_min":0,"x_max":0,"o":"m 224 933 b 207 644 142 925 178 715 b 299 458 243 557 272 532 b 331 292 304 444 321 358 b 361 36 340 214 357 68 b 400 -17 365 -7 388 -17 b 467 92 446 -17 436 92 b 533 -6 488 92 488 -6 b 565 58 554 -6 563 32 b 771 229 579 163 594 213 b 1056 179 981 251 1014 226 b 1118 54 1088 144 1108 96 b 1189 -8 1132 -8 1171 -17 b 1217 97 1217 3 1199 97 b 1303 0 1243 97 1267 6 b 1347 56 1332 -4 1344 22 b 1358 189 1349 81 1353 153 b 1406 410 1365 238 1392 376 b 1442 636 1438 493 1442 524 b 1392 750 1442 676 1426 750 b 1333 686 1364 750 1354 708 b 1292 672 1321 675 1306 672 b 1253 710 1269 672 1253 686 b 1222 760 1253 742 1246 760 b 1138 683 1190 760 1153 708 b 1047 613 1122 658 1083 622 b 806 607 989 597 900 600 b 521 608 686 615 606 614 b 368 656 432 604 393 626 b 285 785 340 689 301 749 b 224 933 251 858 279 938 z m 1164 506 b 1206 553 1164 529 1181 565 b 1257 494 1256 532 1269 521 b 1222 443 1244 468 1224 465 b 1190 447 1214 443 1211 443 b 1185 472 1174 450 1164 456 b 1231 489 1197 482 1222 471 b 1210 528 1239 510 1232 524 b 1164 506 1194 531 1178 522 z m 1185 682 b 1207 708 1188 693 1197 701 l 1193 654 b 1185 682 1189 660 1182 672 z m 1328 457 b 1358 494 1350 457 1363 482 b 1332 522 1356 503 1349 522 b 1376 488 1343 540 1372 519 b 1349 447 1378 468 1358 450 b 1328 457 1336 443 1332 450 z m 1389 640 b 1393 693 1382 647 1379 665 b 1400 663 1399 688 1406 678 b 1389 640 1399 658 1393 647 z "},"@":{"ha":1057,"x_min":0,"x_max":0,"o":"m 553 -151 b 850 -56 663 -151 771 -114 l 814 -3 b 554 -83 736 -54 657 -83 b 143 347 318 -83 143 85 b 558 792 143 621 328 792 b 928 415 775 792 928 643 b 793 157 928 279 876 157 b 729 274 743 157 722 201 l 763 594 l 689 594 l 681 524 b 538 610 660 565 615 610 b 300 324 410 610 300 494 b 497 93 300 178 389 93 b 665 185 575 93 638 136 b 789 93 683 126 725 93 b 1001 415 914 93 1001 224 b 558 861 1001 681 814 861 b 68 349 290 861 68 661 b 553 -151 68 36 278 -151 z m 375 326 b 540 544 375 454 449 544 b 668 381 622 544 668 463 b 507 158 668 243 600 158 b 375 326 426 158 375 222 z "},"&":{"ha":878,"x_min":0,"x_max":0,"o":"m 360 -19 b 656 114 478 -19 581 31 l 750 0 l 860 0 l 710 182 b 796 471 757 260 789 356 l 703 471 b 676 317 699 408 689 361 b 653 251 671 296 661 272 b 613 300 642 267 625 285 l 425 525 l 451 540 b 639 797 560 606 639 689 b 411 993 639 914 544 993 b 172 790 268 993 172 901 b 279 569 172 711 204 660 l 301 543 l 269 524 b 64 236 142 444 64 360 b 360 -19 64 72 203 -19 z m 156 240 b 321 463 156 338 224 399 l 351 483 l 607 175 b 364 56 549 103 467 56 b 156 240 243 56 156 128 z m 264 786 b 411 917 264 863 322 917 b 550 797 493 917 550 868 b 407 604 550 718 497 658 l 375 585 l 353 611 b 264 786 307 668 264 722 z "},"¶":{"ha":758,"x_min":0,"x_max":0,"o":"m 315 471 l 315 -179 l 394 -179 l 394 901 l 538 901 l 538 -179 l 617 -179 l 617 972 l 328 972 b 42 719 150 972 42 871 b 315 471 42 567 150 471 z "},"§":{"ha":733,"x_min":0,"x_max":0,"o":"m 361 -193 b 625 7 515 -193 625 -117 b 492 188 625 90 567 144 b 669 385 600 229 669 294 b 508 579 669 476 610 531 l 332 664 b 200 804 260 700 200 735 b 363 918 200 872 260 918 b 539 786 461 918 532 867 l 629 786 b 365 993 618 911 518 993 b 110 799 213 993 110 913 b 243 613 110 710 168 654 b 68 415 136 569 68 504 b 231 219 68 322 129 269 l 404 135 b 535 -4 476 100 535 64 b 361 -119 535 -72 469 -119 b 179 18 260 -119 186 -65 l 86 18 b 361 -193 103 -110 203 -193 z m 160 426 b 308 579 160 493 217 544 l 460 508 b 579 374 536 472 579 439 b 428 219 579 304 521 253 l 279 292 b 160 426 203 328 160 361 z "},"©":{"ha":1153,"x_min":0,"x_max":0,"o":"m 576 -19 b 1082 488 858 -19 1082 203 b 576 993 1082 769 858 993 b 71 488 296 993 71 769 b 576 -19 71 203 296 -19 z m 146 488 b 576 924 146 735 335 924 b 1008 488 819 924 1008 735 b 576 49 1008 240 819 49 b 146 488 335 49 146 240 z m 328 485 b 582 211 328 314 433 211 b 811 401 708 211 803 286 l 740 401 b 583 274 729 319 665 274 b 403 485 472 274 403 358 b 583 701 403 611 476 701 b 735 581 664 701 725 651 l 806 581 b 583 763 796 692 704 763 b 328 485 438 763 328 649 z "},"®":{"ha":908,"x_min":0,"x_max":0,"o":"m 454 233 b 832 613 663 233 832 403 b 454 993 832 824 663 993 b 76 613 244 993 76 824 b 454 233 76 403 244 233 z m 138 613 b 454 933 138 792 278 933 b 771 613 631 933 771 792 b 454 292 771 433 631 292 b 138 613 278 292 138 433 z m 315 414 l 372 414 l 372 583 l 474 583 b 546 513 526 583 546 564 l 546 414 l 603 414 l 603 519 b 549 610 603 567 586 594 b 613 706 588 626 613 664 b 483 819 613 774 561 819 l 315 819 z m 372 633 l 372 765 l 478 765 b 556 700 526 765 556 742 b 481 633 556 661 529 633 z "},"℗":{"ha":1153,"x_min":0,"x_max":0,"o":"m 576 -19 b 1082 488 858 -19 1082 203 b 576 993 1082 769 858 993 b 71 488 296 993 71 769 b 576 -19 71 203 296 -19 z m 146 488 b 576 924 146 735 335 924 b 1008 488 819 924 1008 735 b 576 49 1008 240 819 49 b 146 488 335 49 146 240 z m 410 221 l 479 221 l 479 429 l 635 429 b 813 592 742 429 813 492 b 635 754 813 692 742 754 l 410 754 z m 479 492 l 479 692 l 628 692 b 743 592 697 692 743 657 b 628 492 743 528 697 492 z "},"™":{"ha":1253,"x_min":0,"x_max":0,"o":"m 586 440 l 657 440 l 657 792 l 657 865 l 828 440 l 896 440 l 1068 865 l 1068 792 l 1068 440 l 1140 440 l 1140 972 l 1043 972 l 888 588 b 864 529 879 568 871 547 b 840 585 856 547 847 567 l 685 972 l 586 972 z m 46 906 l 236 906 l 236 440 l 308 440 l 308 906 l 499 906 l 499 972 l 46 972 z "},"°":{"ha":494,"x_min":0,"x_max":0,"o":"m 246 610 b 433 793 351 610 433 689 b 246 979 433 899 353 979 b 61 796 142 979 61 900 b 246 610 61 689 142 610 z m 135 794 b 246 911 135 863 182 911 b 360 794 311 911 360 863 b 246 676 360 726 311 676 b 135 794 182 676 135 726 z "},"|":{"ha":340,"x_min":0,"x_max":0,"o":"m 128 -179 l 213 -179 l 213 1014 l 128 1014 z "},"¦":{"ha":340,"x_min":0,"x_max":0,"o":"m 128 549 l 213 549 l 213 1014 l 128 1014 z m 128 -179 l 213 -179 l 213 286 l 128 286 z "},"†":{"ha":668,"x_min":0,"x_max":0,"o":"m 293 0 l 375 0 l 375 588 l 624 588 l 624 668 l 375 668 l 375 972 l 293 972 l 293 668 l 44 668 l 44 588 l 293 588 z "},"‡":{"ha":735,"x_min":0,"x_max":0,"o":"m 78 249 l 326 249 l 326 0 l 408 0 l 408 249 l 658 249 l 658 328 l 408 328 l 408 588 l 657 588 l 657 668 l 408 668 l 408 972 l 326 972 l 326 668 l 78 668 l 78 588 l 326 588 l 326 328 l 78 328 z "},"ℓ":{"ha":703,"x_min":0,"x_max":0,"o":"m 404 -19 b 649 306 549 -19 639 125 l 564 306 b 406 53 560 183 510 53 b 240 300 313 53 258 149 b 646 781 471 375 646 561 b 463 993 646 906 585 993 b 153 422 260 993 153 735 b 154 354 153 399 153 376 b 46 340 119 347 83 342 l 46 265 b 163 279 85 267 124 272 b 404 -19 189 89 274 -19 z m 233 422 b 458 919 233 642 300 919 b 564 781 529 919 564 867 b 235 378 564 590 421 443 b 233 422 233 392 233 407 z "},"№":{"ha":1558,"x_min":0,"x_max":0,"o":"m 136 0 l 228 0 l 228 708 l 228 878 l 803 0 l 929 0 l 929 972 l 836 972 l 836 243 l 836 107 l 268 972 l 136 972 z m 1046 740 b 1267 499 1046 606 1131 499 b 1488 740 1403 499 1488 606 b 1267 983 1488 878 1403 983 b 1046 740 1131 983 1046 878 z m 1058 342 l 1475 342 l 1475 411 l 1058 411 z m 1125 740 b 1267 919 1125 849 1179 919 b 1408 740 1356 919 1408 849 b 1267 561 1408 632 1356 561 b 1125 740 1178 561 1125 632 z "},"●":{"ha":1164,"x_min":0,"x_max":0,"o":"m 582 -25 b 1092 486 863 -25 1092 206 b 582 997 1092 767 863 997 b 72 486 301 997 72 767 b 582 -25 72 206 301 -25 z "},"○":{"ha":1186,"x_min":0,"x_max":0,"o":"m 593 -35 b 1114 486 879 -35 1114 200 b 593 1007 1114 772 879 1007 b 72 486 307 1007 72 772 b 593 -35 72 200 307 -35 z m 158 486 b 593 928 158 733 353 928 b 1028 486 833 928 1028 733 b 593 44 1028 239 833 44 b 158 486 353 44 158 239 z "},"◆":{"ha":1182,"x_min":0,"x_max":0,"o":"m 590 -74 l 1150 486 l 590 1044 l 31 486 z "},"◇":{"ha":1182,"x_min":0,"x_max":0,"o":"m 590 -74 l 1150 486 l 590 1044 l 31 486 z m 140 486 l 590 936 l 1042 486 l 590 35 z "},"■":{"ha":1242,"x_min":0,"x_max":0,"o":"m 135 0 l 1107 0 l 1107 972 l 135 972 z "},"◼":{"ha":1033,"x_min":0,"x_max":0,"o":"m 135 104 l 899 104 l 899 868 l 135 868 z "},"▪":{"ha":790,"x_min":0,"x_max":0,"o":"m 118 208 l 674 208 l 674 764 l 118 764 z "},"□":{"ha":1242,"x_min":0,"x_max":0,"o":"m 135 0 l 1107 0 l 1107 972 l 135 972 z m 215 79 l 215 893 l 1025 893 l 1025 79 z "},"◻":{"ha":1033,"x_min":0,"x_max":0,"o":"m 135 104 l 899 104 l 899 868 l 135 868 z m 214 182 l 214 790 l 819 790 l 819 182 z "},"▫":{"ha":790,"x_min":0,"x_max":0,"o":"m 118 208 l 674 208 l 674 764 l 118 764 z m 196 286 l 196 686 l 594 686 l 594 286 z "},"▲":{"ha":1132,"x_min":0,"x_max":0,"o":"m 42 0 l 1092 0 l 567 997 z "},"▶":{"ha":1044,"x_min":0,"x_max":0,"o":"m 135 -11 l 1003 486 l 135 983 z "},"▼":{"ha":1132,"x_min":0,"x_max":0,"o":"m 42 972 l 567 -25 l 1092 972 z "},"◀":{"ha":1044,"x_min":0,"x_max":0,"o":"m 910 -11 l 910 983 l 42 486 z "},"△":{"ha":1132,"x_min":0,"x_max":0,"o":"m 42 0 l 1090 0 l 565 997 z m 171 78 l 565 829 l 961 78 z "},"▷":{"ha":1044,"x_min":0,"x_max":0,"o":"m 135 -11 l 1003 486 l 135 983 z m 214 122 l 214 850 l 849 486 z "},"▽":{"ha":1132,"x_min":0,"x_max":0,"o":"m 42 972 l 565 -25 l 1090 972 z m 171 894 l 961 894 l 565 143 z "},"◁":{"ha":1044,"x_min":0,"x_max":0,"o":"m 910 -11 l 910 983 l 42 486 z m 196 486 l 831 850 l 831 122 z "},"♡":{"ha":1125,"x_min":0,"x_max":0,"o":"m 561 -28 b 1057 699 886 263 1057 475 b 796 992 1057 874 954 992 b 563 828 681 992 597 924 b 331 992 529 924 444 992 b 68 699 172 992 68 874 b 561 -28 68 472 244 257 z m 149 703 b 335 919 149 836 222 919 b 522 728 444 919 508 849 l 603 728 b 790 919 618 849 682 919 b 976 701 903 919 976 836 b 561 72 976 524 857 346 b 149 703 272 340 149 524 z "},"♥":{"ha":1125,"x_min":0,"x_max":0,"o":"m 561 -26 b 1057 701 885 264 1057 478 b 799 993 1057 876 951 993 b 563 793 672 993 588 914 b 326 993 538 914 453 993 b 68 703 174 993 68 876 b 561 -26 68 475 250 254 z "},"´":{"ha":326,"x_min":0,"x_max":0,"o":"m 43 793 l 117 793 l 244 964 l 136 964 z "},"˘":{"ha":461,"x_min":0,"x_max":0,"o":"m 211 797 b 379 964 318 797 378 868 l 308 964 b 211 869 303 908 272 869 b 115 964 150 869 118 907 l 43 964 b 211 797 44 868 107 797 z "},"ˇ":{"ha":496,"x_min":0,"x_max":0,"o":"m 175 803 l 281 803 l 414 964 l 319 964 l 269 904 b 228 857 256 886 242 872 b 188 903 214 871 200 886 l 135 964 l 43 964 z "},"¸":{"ha":404,"x_min":0,"x_max":0,"o":"m 183 -292 b 322 -181 275 -292 322 -242 b 186 -82 322 -117 268 -75 l 242 4 l 185 29 l 107 -96 l 142 -137 b 186 -131 154 -133 169 -131 b 253 -181 228 -131 253 -151 b 182 -232 253 -214 224 -232 b 81 -187 135 -232 101 -207 l 43 -233 b 183 -292 72 -264 125 -292 z "},"ˆ":{"ha":496,"x_min":0,"x_max":0,"o":"m 43 803 l 135 803 l 188 864 b 228 911 200 879 214 897 b 269 863 242 896 256 879 l 319 803 l 414 803 l 281 964 l 175 964 z "},"¨":{"ha":501,"x_min":0,"x_max":0,"o":"m 321 797 l 419 797 l 419 936 l 321 936 z m 43 797 l 143 797 l 143 936 l 43 936 z "},"˙":{"ha":225,"x_min":0,"x_max":0,"o":"m 43 797 l 143 797 l 143 936 l 43 936 z "},"`":{"ha":329,"x_min":0,"x_max":0,"o":"m 171 793 l 247 793 l 154 964 l 43 964 z "},"˝":{"ha":504,"x_min":0,"x_max":0,"o":"m 256 793 l 321 793 l 422 964 l 322 964 z m 43 793 l 106 793 l 201 964 l 103 964 z "},"¯":{"ha":493,"x_min":0,"x_max":0,"o":"m 43 831 l 410 831 l 410 908 l 43 908 z "},"˛":{"ha":321,"x_min":0,"x_max":0,"o":"m 179 -261 b 236 -254 203 -261 221 -258 l 236 -187 b 194 -192 224 -189 210 -192 b 121 -128 156 -192 121 -172 b 239 0 121 -72 176 -29 l 179 14 b 43 -144 101 -19 43 -71 b 179 -261 43 -221 106 -261 z "},"˚":{"ha":351,"x_min":0,"x_max":0,"o":"m 156 763 b 269 874 218 763 269 808 b 156 988 269 940 218 988 b 43 874 94 988 43 940 b 156 763 43 808 94 763 z m 103 874 b 156 933 103 911 125 933 b 210 874 188 933 210 911 b 156 817 210 839 189 817 b 103 874 125 817 103 839 z "},"˜":{"ha":524,"x_min":0,"x_max":0,"o":"m 331 815 b 442 944 388 815 440 850 l 371 944 b 322 883 369 907 357 883 b 158 950 265 883 231 950 b 43 819 101 950 46 917 l 115 819 b 165 882 117 857 132 882 b 331 815 219 882 257 815 z "},"":{"ha":1092,"x_min":0,"x_max":0,"o":"m 108 -21 l 546 431 l 983 -19 l 1039 38 l 601 488 l 1040 938 l 983 993 l 546 543 l 110 993 l 53 936 l 490 486 l 53 36 z "},"":{"ha":1246,"x_min":0,"x_max":0,"o":"m 497 -21 l 1190 908 l 1124 960 l 499 117 l 128 619 l 63 565 z "},"":{"ha":1310,"x_min":0,"x_max":0,"o":"m 118 842 l 1193 842 l 1193 919 l 118 919 z m 118 58 l 1193 58 l 1193 138 l 118 138 z m 118 450 l 1193 450 l 1193 528 l 118 528 z "},"":{"ha":1244,"x_min":0,"x_max":0,"o":"m 135 0 l 1108 0 l 1108 972 l 135 972 z m 222 79 l 222 894 l 1021 894 l 1021 79 z "},"":{"ha":1244,"x_min":0,"x_max":0,"o":"m 135 0 l 1108 0 l 1108 453 l 1021 453 l 1021 79 l 222 79 l 222 893 l 769 893 l 769 972 l 135 972 z m 375 625 l 622 221 l 1131 946 l 1063 994 l 629 367 l 444 672 z "},"":{"ha":1244,"x_min":0,"x_max":0,"o":"m 135 0 l 1108 0 l 1108 972 l 135 972 z m 222 79 l 222 894 l 1021 894 l 1021 79 z m 561 422 l 683 422 l 683 560 l 561 560 z "},"":{"ha":1001,"x_min":0,"x_max":0,"o":"m 963 79 l 38 79 l 38 0 l 963 0 z m 160 408 l 499 79 l 839 408 l 778 471 l 543 239 l 543 972 l 454 972 l 454 238 l 221 469 z "},"":{"ha":978,"x_min":0,"x_max":0,"o":"m 489 69 b 906 486 718 69 906 257 b 489 903 906 715 718 903 b 72 486 260 903 72 715 b 489 69 72 257 260 69 z "},"":{"ha":811,"x_min":0,"x_max":0,"o":"m 406 153 b 739 486 589 153 739 303 b 406 819 739 669 589 819 b 72 486 222 819 72 669 b 406 153 72 303 222 153 z "},"":{"ha":1019,"x_min":0,"x_max":0,"o":"m 510 49 b 947 486 750 49 947 246 b 510 924 947 726 750 924 b 72 486 269 924 72 726 b 510 49 72 246 269 49 z m 158 486 b 510 840 158 681 315 840 b 861 486 704 840 861 681 b 510 132 861 292 704 132 b 158 486 315 132 158 292 z "},"":{"ha":811,"x_min":0,"x_max":0,"o":"m 406 153 b 739 486 589 153 739 303 b 406 819 739 669 589 819 b 72 486 222 819 72 669 b 406 153 72 303 222 153 z m 156 486 b 406 738 156 624 268 738 b 656 486 543 738 656 624 b 406 235 656 349 543 235 b 156 486 268 235 156 349 z "},"":{"ha":1186,"x_min":0,"x_max":0,"o":"m 593 -35 b 1114 486 881 -35 1114 200 b 593 1007 1114 774 881 1007 b 72 486 307 1007 72 774 b 593 -35 72 200 307 -35 z m 150 486 b 593 931 150 732 350 931 b 1036 486 836 931 1036 732 b 593 42 1036 240 836 42 b 150 486 350 42 150 240 z m 274 486 b 593 167 274 310 417 167 b 913 486 769 167 913 310 b 593 806 913 663 769 806 b 274 486 417 806 274 663 z m 351 486 b 593 728 351 619 460 728 b 835 486 726 728 835 619 b 593 244 835 353 726 244 b 351 486 460 244 351 353 z m 472 486 b 593 365 472 421 528 365 b 714 486 660 365 714 421 b 593 607 714 553 660 607 b 472 486 528 607 472 553 z "},"":{"ha":1024,"x_min":0,"x_max":0,"o":"m 513 49 b 950 486 753 49 950 246 b 513 924 950 726 753 924 b 75 486 272 924 75 726 b 513 49 75 246 272 49 z m 154 486 b 513 844 154 683 315 844 b 869 486 708 844 869 683 b 513 128 869 289 708 128 b 154 486 315 128 154 289 z m 283 486 b 513 257 283 360 386 257 b 742 486 639 257 742 360 b 513 715 742 613 639 715 b 283 486 386 715 283 613 z m 363 486 b 513 636 363 569 431 636 b 661 486 596 636 661 569 b 513 336 661 404 596 336 b 363 486 431 336 363 404 z "},"":{"ha":815,"x_min":0,"x_max":0,"o":"m 408 153 b 742 486 592 153 742 303 b 408 819 742 669 592 819 b 75 486 225 819 75 669 b 408 153 75 303 225 153 z m 154 486 b 408 739 154 626 268 739 b 661 486 547 739 661 626 b 408 233 661 346 547 233 b 154 486 268 233 154 346 z m 283 486 b 408 361 283 418 340 361 b 533 486 478 361 533 418 b 408 611 533 556 478 611 b 283 486 340 611 283 556 z "},"":{"ha":1242,"x_min":0,"x_max":0,"o":"m 135 0 l 1107 0 l 1107 972 l 135 972 z m 214 78 l 214 894 l 1028 894 l 1028 78 z m 343 208 l 899 208 l 899 764 l 343 764 z m 422 286 l 422 686 l 819 686 l 819 286 z m 551 417 l 690 417 l 690 556 l 551 556 z "},"":{"ha":1033,"x_min":0,"x_max":0,"o":"m 135 104 l 899 104 l 899 868 l 135 868 z m 214 182 l 214 790 l 819 790 l 819 182 z m 343 313 l 690 313 l 690 660 l 343 660 z m 422 390 l 422 582 l 611 582 l 611 390 z "},"":{"ha":790,"x_min":0,"x_max":0,"o":"m 118 208 l 674 208 l 674 764 l 118 764 z m 196 286 l 196 686 l 594 686 l 594 286 z m 326 417 l 465 417 l 465 556 l 326 556 z "},"‐":{"ha":533,"x_min":0,"x_max":0,"o":"m 96 338 l 439 338 l 439 413 l 96 413 z "}}}
